<?xml version="1.0" encoding="utf-8"?>
<!-- Generator: Adobe Illustrator 24.1.0, SVG Export Plug-In . SVG Version: 6.00 Build 0)  -->
<svg version="1.1" id="Layer_1" xmlns="http://www.w3.org/2000/svg" xmlns:xlink="http://www.w3.org/1999/xlink" x="0px" y="0px"
	 viewBox="0 0 30 30" style="enable-background:new 0 0 30 30;" xml:space="preserve">
<style type="text/css">
	.st0{fill:#E50B7B;}
</style>
<g>
	<path class="st0" d="M13.5,3.1v-3c-3,0.3-5.8,1.5-8,3.3l2.1,2.1C9.3,4.2,11.3,3.4,13.5,3.1z M24.5,3.4c-2.2-1.8-5-3-8-3.3v3
		c2.2,0.3,4.2,1.1,5.8,2.4L24.5,3.4z M26.9,13.5h3c-0.3-3-1.5-5.8-3.3-8l-2.1,2.1C25.8,9.3,26.6,11.3,26.9,13.5z M5.5,7.6L3.4,5.5
		c-1.8,2.2-3,5-3.3,8h3C3.4,11.3,4.2,9.3,5.5,7.6z M3.1,16.5h-3c0.3,3,1.5,5.8,3.3,8l2.1-2.1C4.2,20.7,3.4,18.7,3.1,16.5z M19.5,15
		c0-2.5-2-4.5-4.5-4.5s-4.5,2-4.5,4.5s2,4.5,4.5,4.5S19.5,17.5,19.5,15z M24.5,22.3l2.1,2.1c1.8-2.2,3-5,3.3-8h-3
		C26.6,18.7,25.8,20.7,24.5,22.3z M16.5,26.9v3c3-0.3,5.8-1.5,8-3.3l-2.1-2.1C20.7,25.8,18.7,26.6,16.5,26.9z M5.5,26.6
		c2.2,1.8,5,3,8,3.3v-3c-2.2-0.3-4.2-1.1-5.8-2.4L5.5,26.6z"/>
</g>
</svg>
