<?xml version="1.0" encoding="utf-8"?>
<!-- Generator: Adobe Illustrator 24.1.0, SVG Export Plug-In . SVG Version: 6.00 Build 0)  -->
<svg version="1.1" id="Layer_1" xmlns="http://www.w3.org/2000/svg" xmlns:xlink="http://www.w3.org/1999/xlink" x="0px" y="0px"
	 viewBox="0 0 30 30" style="enable-background:new 0 0 30 30;" xml:space="preserve">
<style type="text/css">
	.st0{fill:#E50B7B;}
</style>
<path class="st0" d="M23.9,16.5h-1l-3,3h2.8l2.6,3H4.6l2.7-3h3.1l-3-3H6.1L1.6,21v6c0,1.6,1.3,3,3,3h20.9c1.6,0,3-1.3,3-3v-6
	L23.9,16.5z M22.5,9l-7.4,7.4l-5.3-5.3l7.4-7.4L22.5,9z M16.1,0.5L6.6,10c-0.6,0.6-0.6,1.5,0,2.1l7.4,7.4c0.6,0.6,1.5,0.6,2.1,0
	l9.5-9.5c0.6-0.6,0.6-1.5,0-2.1l-7.4-7.4C17.7-0.1,16.7-0.1,16.1,0.5z"/>
</svg>
