<?xml version="1.0" encoding="utf-8"?>
<!-- Generator: Adobe Illustrator 24.1.0, SVG Export Plug-In . SVG Version: 6.00 Build 0)  -->
<svg version="1.1" id="Layer_1" xmlns="http://www.w3.org/2000/svg" xmlns:xlink="http://www.w3.org/1999/xlink" x="0px" y="0px"
	 viewBox="0 0 30 30" style="enable-background:new 0 0 30 30;" xml:space="preserve">
<style type="text/css">
	.st0{fill:#E50B7B;}
</style>
<g>
	<path class="st0" d="M6,16.5c-0.8,0-1.5,0.7-1.5,1.5s0.7,1.5,1.5,1.5s1.5-0.7,1.5-1.5S6.8,16.5,6,16.5z M6,22.5
		c-0.8,0-1.5,0.7-1.5,1.5s0.7,1.5,1.5,1.5s1.5-0.7,1.5-1.5S6.8,22.5,6,22.5z M6,10.5c-0.8,0-1.5,0.7-1.5,1.5c0,0.8,0.7,1.5,1.5,1.5
		s1.5-0.7,1.5-1.5C7.5,11.2,6.8,10.5,6,10.5z M1.5,11.2c-0.4,0-0.8,0.3-0.8,0.8c0,0.4,0.3,0.8,0.8,0.8s0.8-0.3,0.8-0.8
		C2.2,11.6,1.9,11.2,1.5,11.2z M6,4.5C5.2,4.5,4.5,5.2,4.5,6S5.2,7.5,6,7.5S7.5,6.8,7.5,6S6.8,4.5,6,4.5z M28.5,12.8
		c0.4,0,0.8-0.3,0.8-0.8c0-0.4-0.3-0.8-0.8-0.8s-0.8,0.3-0.8,0.8C27.8,12.4,28.1,12.8,28.5,12.8z M18,7.5c0.8,0,1.5-0.7,1.5-1.5
		S18.8,4.5,18,4.5S16.5,5.2,16.5,6S17.2,7.5,18,7.5z M18,2.2c0.4,0,0.8-0.3,0.8-0.8S18.4,0.8,18,0.8s-0.8,0.3-0.8,0.8
		S17.6,2.2,18,2.2z M1.5,17.2c-0.4,0-0.8,0.3-0.8,0.8s0.3,0.8,0.8,0.8s0.8-0.3,0.8-0.8S1.9,17.2,1.5,17.2z M12,27.8
		c-0.4,0-0.8,0.3-0.8,0.8c0,0.4,0.3,0.8,0.8,0.8s0.8-0.3,0.8-0.8C12.8,28.1,12.4,27.8,12,27.8z M12,2.2c0.4,0,0.8-0.3,0.8-0.8
		S12.4,0.8,12,0.8s-0.8,0.3-0.8,0.8S11.6,2.2,12,2.2z M12,7.5c0.8,0,1.5-0.7,1.5-1.5S12.8,4.5,12,4.5S10.5,5.2,10.5,6
		S11.2,7.5,12,7.5z M12,15.8c-1.2,0-2.2,1-2.2,2.2s1,2.2,2.2,2.2s2.2-1,2.2-2.2S13.2,15.8,12,15.8z M24,16.5c-0.8,0-1.5,0.7-1.5,1.5
		s0.7,1.5,1.5,1.5s1.5-0.7,1.5-1.5S24.8,16.5,24,16.5z M24,22.5c-0.8,0-1.5,0.7-1.5,1.5s0.7,1.5,1.5,1.5s1.5-0.7,1.5-1.5
		S24.8,22.5,24,22.5z M24,10.5c-0.8,0-1.5,0.7-1.5,1.5c0,0.8,0.7,1.5,1.5,1.5s1.5-0.7,1.5-1.5C25.5,11.2,24.8,10.5,24,10.5z M24,4.5
		c-0.8,0-1.5,0.7-1.5,1.5s0.7,1.5,1.5,1.5s1.5-0.7,1.5-1.5S24.8,4.5,24,4.5z M28.5,17.2c-0.4,0-0.8,0.3-0.8,0.8s0.3,0.8,0.8,0.8
		s0.8-0.3,0.8-0.8S28.9,17.2,28.5,17.2z M18,22.5c-0.8,0-1.5,0.7-1.5,1.5s0.7,1.5,1.5,1.5s1.5-0.7,1.5-1.5S18.8,22.5,18,22.5z
		 M18,27.8c-0.4,0-0.8,0.3-0.8,0.8c0,0.4,0.3,0.8,0.8,0.8s0.8-0.3,0.8-0.8C18.8,28.1,18.4,27.8,18,27.8z M12,9.8
		c-1.2,0-2.2,1-2.2,2.2s1,2.2,2.2,2.2s2.2-1,2.2-2.2S13.2,9.8,12,9.8z M12,22.5c-0.8,0-1.5,0.7-1.5,1.5s0.7,1.5,1.5,1.5
		s1.5-0.7,1.5-1.5S12.8,22.5,12,22.5z M18,15.8c-1.2,0-2.2,1-2.2,2.2s1,2.2,2.2,2.2s2.2-1,2.2-2.2S19.2,15.8,18,15.8z M18,9.8
		c-1.2,0-2.2,1-2.2,2.2s1,2.2,2.2,2.2s2.2-1,2.2-2.2S19.2,9.8,18,9.8z"/>
</g>
</svg>
