<svg id="Layer_1" data-name="Layer 1" xmlns="http://www.w3.org/2000/svg" viewBox="0 0 159.8 160.05"><defs><style>.cls-1{fill:#e6007a;}</style></defs><path class="cls-1" d="M159.8,80a79.94,79.94,0,0,1-4.65,27c-7.51-5.61-10.87-9.77-13.78-5.89-3.15,4.21-21.06,15.79-19,25.8,1.44,6.84,4.74.52,6.32,2.1a26.85,26.85,0,0,1,5.19,9.95A80,80,0,0,1,12.51,123.4c2.14-11.93,6.19-26.15,6.19-31.26,0-7.37-7.9-4.74-12.11-6.32C2.6,84.32,4.28,76.7,0,73.66a76.75,76.75,0,0,1,1-7.79c4.51,3.92,9.37,6.67,8.75.47C8.7,55.81,23.44,44.23,30.81,40.54s-3.16-8.95-5.26-11.06c-1-1-1.56-3.79-1.85-6.55a80,80,0,0,1,110.39-1.67c-4.45.76-8.57.73-11.5-.63-9.64-4.49-15.71-6.94-20.24-4.14s-12.86,4.68-23.63,3S69.47,31.07,66.06,31.07s-1-6.32-5.59-6.32c-5.19,0-8.6,4.73-5.44,14.21,1.69,5.1-10.53,0-8.24,7.81,2.42,8.25,13,2.25,14.74,0s11.34-.55,14.17-.55,8.51,2.8,8.51,7.85c0,8.4-13.61-5-22.68-3.37S35.45,73.13,40,80.43s18.13-1.13,23.81,9-4,41.5,5.1,43.18,25.51-19.07,24.94-27.48,13.66-21.59,8.51-25.23c-7.94-5.61-19.85-6.17-14.17-9.54,6.23-3.71,17.57-.56,22.67,9.54s13.6,19.63,18.71,14S132.39,72,135.79,72s7.37,14,10.78,9-3.47-8-2.28-10.66c1.35-3,10-7,12.7-11.39A80.1,80.1,0,0,1,159.8,80Z"/></svg>