<svg xmlns="http://www.w3.org/2000/svg" viewBox="0 0 904.4 276.71"><defs><style>.cls-1{fill:#1e1e1e;}</style></defs><title>logo-economist</title><g id="Layer_2" data-name="Layer 2"><g id="Layer_1-2" data-name="Layer 1"><path class="cls-1" d="M589.5,272.6c1.3-1.1,2.5-2.5,4-3.1,4.6-1.7,6.4-5.1,6.4-9.7,0-15.7.1-31.3-.3-47-.2-9.8-5.2-16.2-12.3-17.1-7.5-1-15.9,5.3-18.4,14a16.91,16.91,0,0,0-.9,4.9c.2,15.8.5,31.6.7,47.5,0,3.5,1.8,5.4,4.9,6.8a47.88,47.88,0,0,1,5.3,3.4l-.6,1.5H533.8c-.3-.3-.7-.6-1-.9,1.2-1,2.2-2.7,3.6-3,8.2-1.6,9.6-2.7,9.7-11.1.2-18.6.2-37.3,0-55.9-.1-7.5-1.9-9.1-9.2-10.6-1.3-.3-2.5-1.6-3.7-2.4,1.2-.9,2.3-2.3,3.6-2.5,8.6-1.3,17.1-2.5,25.7-3.4,1.2-.1,3.4,1.7,3.7,3,.8,3.3.7,6.8,1.1,11.3,8-8.1,15.9-14,27.2-14.3,11.9-.2,19.5,5.2,24.6,15.8,3-2.8,5.4-5.1,7.8-7.3,8.7-8,18.9-10.1,30.2-7.4,10.2,2.5,16.3,10.7,16.9,23.2.7,15.8.9,31.6,1.2,47.5.2,9.6,1.1,10.9,10.2,13.8,1.4.5,2.5,1.8,4.8,3.7a35.44,35.44,0,0,1-5,.8c-12.3,0-24.7.1-37,0-1.4,0-2.8-1-4.2-1.5,1.2-1.1,2.1-2.9,3.5-3.3,4-1.3,5.5-4,5.5-7.9-.1-17.3-.1-34.7-.2-52,0-5.5-1.8-10.5-7.4-12.5-6.2-2.2-12.3-1.2-17.1,3.6a21,21,0,0,0-6.5,15.2c.2,14.2.3,28.3.6,42.5.1,5.3.5,10.6,7.5,11.6.7.1,1.2,1.6,1.8,2.5-1,.6-2,1.8-3,1.8-12.6.1-25.3.1-37.9.1A6.1,6.1,0,0,1,589.5,272.6Z"/><path class="cls-1" d="M81.6,148.6v25.6c-2,.2-3.9.4-5.6.6-.4-.5-.8-.8-.8-1-3.2-14.2-4.7-15.5-19.4-16-5-.2-9.9,0-15.2,0v46.8c6.9,0,13.6.5,20.3-.1,8.2-.7,9.2-2.1,11.3-10.2.8-3.2,1.1-7.1,6.7-5.1,0,12.1,0,24.4-.1,36.7,0,.9-1.3,2.6-2,2.6-1.2,0-2.5-1-3.7-1.6-.2-.1-.2-.6-.3-.9-.7-10.2-7.6-12-16-12.2-5.3-.1-10.6-.6-16.3-1a32.6,32.6,0,0,0-.5,4.1c.2,13,.4,26,.8,39,.2,8,1.6,9.1,9.6,9,4.3,0,8.7,0,13-.1,11.6-.4,16.3-4.6,18.7-16.1.3-1.4,1.2-3.3,2.3-3.9,3.5-1.7,5.9.1,5.4,4-.9,7.4-1.8,14.9-3.2,22.2-.3,1.4-2.7,3.3-4.3,3.5a124.69,124.69,0,0,1-15,.4c-20.8-.1-41.7-.2-62.5-.5-1.6,0-3.2-1.3-4.8-2,1.4-1.1,2.7-2.7,4.4-3.1,10.5-3.1,11.5-3.8,11.5-14.7q.15-42.75,0-85.5c0-2.1-.7-4.3-.8-6.4-.1-5.8-3.4-8.3-8.7-8.9a9.29,9.29,0,0,1-3.8-1c-1.1-.7-1.7-2-2.5-3.1,1-.6,2-1.6,3-1.6,25.7-.1,51.3,0,77,0C80.5,148,80.8,148.3,81.6,148.6Z"/><path class="cls-1" d="M352.3,274.5c-14.1,0-28.2,0-42.3-.1-.9,0-1.8-1.3-2.8-2,.8-.8,1.6-2.2,2.6-2.4,10-2.6,10.3-2.6,10.4-12.9.2-18.1.1-36.3,0-54.4,0-7.1-1.9-8.8-8.9-10.3-1.4-.3-2.7-1.8-4-2.7,1.3-.8,2.5-2.1,3.9-2.3,9.4-1.2,18.8-2.3,28.8-3.4.5,4.5,1,8.9,1.6,14.3,2.7-2.4,4.7-4.3,6.7-6.2,10.1-9.5,22-10,34-5.2,9.9,4,13.4,13,13.7,23.1.5,16.3.7,32.6,1.1,49,.1,6.9,1.5,8.6,8.2,10.6,1.9.6,3.6,1.9,5.4,2.9-.3.5-.5,1.1-.8,1.6H365.7a9.43,9.43,0,0,0-1-1c1.1-1.2,1.9-2.9,3.2-3.4,4.4-1.4,6.8-4.3,6.8-8.8,0-16.8.4-33.6-.5-50.4-.5-10.3-5-14.5-12.4-14.7-9.2-.3-18.1,5.9-18.5,14.8-.8,17.3-.5,34.6-.1,51.9.1,2.2,3.2,4.5,5.2,6.5,1.3,1.3,3,2,4.6,3A23.35,23.35,0,0,0,352.3,274.5Z"/><path class="cls-1" d="M514.1,117.3H474.3c-.3-.3-.6-.7-.9-1,1.2-1.2,2.6-2.3,3.7-3.5,1.8-2,4.9-4,4.9-6.1.2-16.3.3-32.6-.6-48.8-.5-7.8-3.7-10.3-9.5-11-6.7-.9-13.5,2.6-16.1,8.5a22.86,22.86,0,0,0-1.9,8.2c-.3,13.2-.2,26.3-.3,39.5-.1,4.8,1.2,8.5,6.2,10.1,1,.3,1.5,1.8,2.3,2.8-.9.6-1.7,1.7-2.6,1.7-11.8,0-23.7-.1-35.5-.3-.6,0-1.2-.6-2.7-1.3,2.3-1.2,3.9-2.6,5.6-2.8,4.9-.5,6-3.7,6.1-7.7.4-11.8.7-23.6.8-35.5.2-15.5.1-31,.2-46.5.1-7.7-.3-15-10.3-16.4-.7-.1-1.3-1.3-2.8-2.9,11.2-1.5,21.5-2.9,32.4-4.3V46.7c3.4-2.2,5.8-3.8,8.2-5.3,7-4.3,14.4-6.8,22.8-4.6,9.8,2.6,16.2,9.9,16.8,19.9.8,15.6,1.2,31.3,1.9,46.9.3,7.3,1.1,7.9,8,9.9,1.4.4,2.6,1.6,3.9,2.4C514.6,116.4,514.4,116.8,514.1,117.3Z"/><path class="cls-1" d="M243.3,276.6c-28.7.1-46.7-20.8-43.8-50.9a66.12,66.12,0,0,1,2-11.8c5.2-18.4,18.5-28.7,38.5-29.9,18.6-1.1,35.3,8.7,42.2,25.2,5.2,12.4,6.2,25.1,1.9,38C277.8,265.7,262.8,276.5,243.3,276.6Zm22.1-41.8c-.3-.1-.6-.1-.9-.2-.2-3.2-.2-6.3-.5-9.5-1-9.9-3.4-19.3-10.2-27-4.6-5.3-10.3-7.9-17.3-6.3s-11,6.6-12.6,13.4a81.42,81.42,0,0,0-1.4,31.1c1.3,8.4,1.8,16.9,6.8,24.2,4.1,6,9.5,10,17.1,9.2s12.5-5.7,14.6-12.6C263,249.8,263.9,242.2,265.4,234.8Z"/><path class="cls-1" d="M512.5,229.8c.3,22.9-12.5,40.7-32.8,45.5-28.7,6.7-52.9-11.1-54.3-40.5a69.86,69.86,0,0,1,1.8-19.3c5-21,22.1-32.9,43.7-31.2C496.5,186.3,512.1,203.3,512.5,229.8Zm-21.3,5.1c-.8-10.7-2.3-20.8-7-30.3-3.2-6.3-7.7-11.4-15-12.9-9.8-2.1-18.4,4.2-20,16.1a136.48,136.48,0,0,0-.4,31.3c.7,7.4,3.5,14.8,6.7,21.7,3,6.5,9.2,9.5,16.6,8.9s12.3-4.7,14.2-11.5C488.5,250.6,489.6,242.7,491.2,234.9Z"/><path class="cls-1" d="M322.4,28.3c0-5-.1-9.6,0-14.3.1-3.3.5-6.6.7-10.1h95V28.1c-4,1.5-5.7.1-6.1-4.2-.6-7.3-2.8-9.7-10-10.8-6.4-1-12.8-1.4-19.4-2a17.27,17.27,0,0,0-.6,3c.2,29,.2,57.9.6,86.9.1,8.3,2.3,10.2,10.5,11.9,1.3.3,2.3,1.7,3.5,2.6-1.1.7-2.1,2-3.2,2-15.6.1-31.3.1-46.9.1-1.4-3.4.4-4.2,3-4.9,9.4-2.3,10-2.3,10.1-11.7.3-29.8.1-59.5.1-90.3-8.5,1.2-16.8,2.1-25,3.6-4.7.9-5.1,5.4-5.5,9.1C328.6,27.7,326.8,29.5,322.4,28.3Z"/><path class="cls-1" d="M594.5,73.5h-9.8c-11.7,0-23.3.1-35-.1-4.1-.1-5.7,1.4-4.8,5.2,1.5,6.4,2.5,13.1,5.1,19.1,4.9,11.3,15.7,15.3,27,10.2,5.3-2.4,10-6.3,15.1-9.6,2.7,3.1,1,5.8-1.5,8.3-11.4,11.6-24.9,15.8-40.6,10.9-15.5-4.8-22.7-16.7-24.9-31.9a48.3,48.3,0,0,1,7.2-33.5c8.5-13.6,26.9-19.7,42.2-14.3C587.6,42.5,596,57.1,594.5,73.5Zm-51.8-6.8c12.1-.7,22.6-1.4,33.1-2a24.07,24.07,0,0,0-4.5-16.2c-5.9-8.4-17.2-8.4-22.2.5C546.3,53.9,545.1,59.7,542.7,66.7Z"/><path class="cls-1" d="M826.8,205.4c-8.3,1.4-8.3,1.4-11.4-6-3.2-7.7-8-10.1-15.8-8-4.4,1.2-7.6,3.5-8.7,8a10.17,10.17,0,0,0,3.9,11.1c8,6.3,16.1,12.4,24.1,18.7,11.1,8.8,13.6,23.2,5.5,34.7-7.5,10.6-18.5,13.6-30.9,12.3a53.4,53.4,0,0,1-11.2-2.5c-2.7-.9-6.9-2.2-7.3-3.9a46.19,46.19,0,0,1-.3-15.3c.4-2.9,6.7-2.7,8.8.3,1.4,2,2.2,4.5,3.5,6.6,4.2,7.3,11.8,9.5,19.3,5.7,5.9-2.9,7.7-8.9,3.7-14.1a65.59,65.59,0,0,0-10.2-10.2c-5.2-4.4-11-8.1-16.1-12.6-7.5-6.6-10-15.2-8.6-24.9,1.7-11.9,9.7-19.9,21.7-20.4,8.4-.4,16.8,1,25.2,2.2,1.7.2,4.2,2.6,4.4,4.2C827.2,195.8,826.8,200.5,826.8,205.4Z"/><path class="cls-1" d="M901.2,187.5c-.5,2.8-.5,5.1-1.4,6.9-.7,1.4-2.5,3-3.9,3.1-5.3.4-10.6.1-16.4.1-.1,2.2-.3,3.9-.3,5.7.2,15.5.4,31,.7,46.4.2,14.2,5.2,18.3,19.4,16.4a8.74,8.74,0,0,1,5.1.8c-1.2,1.7-2.1,4.2-3.7,5a38.65,38.65,0,0,1-26.7,3,18.39,18.39,0,0,1-13.9-17.5c-.7-17.6-1.2-35.3-1.8-52.9-.1-2.1,0-4.3,0-6.8h-9.7c-2.3-6.9-1.6-8.5,4.5-9.8,7.1-1.5,11.1-6.2,13.9-12.4a53.66,53.66,0,0,0,2.1-5.6c2.1-6.6,2.1-6.6,10-5.9v23.3C886.6,187.5,893.6,187.5,901.2,187.5Z"/><path class="cls-1" d="M177.9,255.5c3.4,4.4,2.7,7.5-1,10.7-11.7,10.2-24.8,13.3-39.4,7.8-15.5-5.8-22.2-18.3-24.3-33.8-1.4-10.5-1-21,2.9-31,6.5-16.5,19-25.1,37.6-24.9,7.1.1,14.2,1.5,21.2,2.8,1.3.2,3,2.5,3.1,4a93.92,93.92,0,0,1-.2,15c-.1,1.3-2,3-3.5,3.6-2.1.9-4.3.5-4.9-2.5a43.44,43.44,0,0,0-1.4-4.8c-1.7-6-4.7-10.9-11.6-11.5-7.1-.5-13.4,1.7-16.9,8.3a40.13,40.13,0,0,0-4.2,12.2c-1.9,12.1-1.7,24.3,1.7,36.1,5.7,19.8,21.8,24.3,37.5,10.8C175.6,257.4,176.6,256.6,177.9,255.5Z"/><path class="cls-1" d="M705.3,188.1c11.1-1.5,22.2-2.9,34.3-4.6v14.8l.3,50.4c0,3.3.5,6.6.6,9.9.2,6.5,2.4,10.9,9.8,11.3,1.2.1,2.3,1.6,3.4,2.5-.2.4-.3.9-.5,1.3H705.3a10.93,10.93,0,0,1-.5-1.7c2-.9,3.9-2.2,6-2.6,4.2-.8,6.6-3,6.8-7.3.4-7.8,1.2-15.6,1.2-23.4,0-12.1-.4-24.3-.8-36.4-.2-6.6-1.8-8.3-8.1-10-1.8-.5-3.3-1.8-5-2.7A11.31,11.31,0,0,1,705.3,188.1Z"/><path class="cls-1" d="M740.2,154.6a11.68,11.68,0,0,1-11.5,12,11.93,11.93,0,0,1-12.1-12c.1-6.8,5.4-12.4,11.8-12.4A12,12,0,0,1,740.2,154.6Z"/></g></g></svg>