<svg xmlns="http://www.w3.org/2000/svg" viewBox="0 0 522.46 200"><defs><style>.cls-1{fill:#1e1e1e;}</style></defs><title>theblock</title><g id="Layer_2" data-name="Layer 2"><g id="Layer_1-2" data-name="Layer 1"><path class="cls-1" d="M96.31,16.64l80.83,31.94V151.41L96.31,183.35,15.48,151.41V48.59L96.31,16.64M96.31,0,0,38.06V161.94L96.31,200l96.31-38.06V38.06L96.31,0Z"/><path class="cls-1" d="M96.31,76.51l22.55,9.15v28.66l-22.55,9.17-22.55-9.17V85.66l22.55-9.15m0-41.75L81.76,40.67,59.21,49.82l-24.14,9.8v80.75l24.12,9.81,22.55,9.17,14.57,5.93,14.57-5.93,22.55-9.17,24.12-9.81V59.61l-24.14-9.8-22.55-9.15-14.55-5.9Z"/><path class="cls-1" d="M230.61,47.49h-7V39.35h23.81v8.14h-7V69h-9.78V47.49Z"/><path class="cls-1" d="M250.64,39.35h9.74V49.91h8.4V39.35h9.78V69h-9.78V58h-8.4V69h-9.74Z"/><path class="cls-1" d="M284,39.35h21.6v8.14H293.45v2.68h11.69V58H293.45v2.86h12.6V69H284Z"/><path class="cls-1" d="M320.36,39.35H333.3c4.89,0,10.56,1.69,10.56,7.7a6.54,6.54,0,0,1-4.46,6.23v.22c3.68,1,5.67,3,5.67,6.93,0,6.67-6.88,8.53-12.73,8.53h-12V39.35ZM332,51c2,0,2.47-1.26,2.47-2.12a2.07,2.07,0,0,0-2.38-2.12h-2.51V51Zm.44,10.43c2,0,3-.82,3-2.21,0-1.73-1.12-2.21-3.42-2.21h-2.47v4.41h2.86Z"/><path class="cls-1" d="M349.1,39.35h9.74V60.6h10.52V69H349.1V39.35Z"/><path class="cls-1" d="M369.7,54.11c0-9.7,7-15.41,16.28-15.41s16.27,5.71,16.27,15.41c0,9.44-6.36,15.54-16.27,15.54C376.71,69.65,369.7,63.54,369.7,54.11Zm22.33,0c0-4-2.25-6.84-6.06-6.84-3.64,0-6,2.64-6,6.84s2.25,7,6,7S392,58.39,392,54.11Z"/><path class="cls-1" d="M404.84,54.24c0-9,6.28-15.54,16.23-15.54a17.85,17.85,0,0,1,7.53,1.43V48.7a15.39,15.39,0,0,0-6.75-1.43c-5.11,0-6.75,3.59-6.75,6.93,0,4.85,2.94,6.8,7.49,6.8,3.12,0,4.93-.48,6-1.13V68.4a24.38,24.38,0,0,1-8.27,1.26C410.81,69.65,404.84,63.8,404.84,54.24Z"/><path class="cls-1" d="M433,39.35h9.74V52.68l6.71-13.33h11l-8.31,13L461.5,69H450.41L443.4,55h-.65V69H433V39.35Z"/><path class="cls-1" d="M223.59,85.07h27.19c18.8,0,40.15,7.44,40.15,36.33,0,26.35-19.33,36.33-39.09,36.33H223.58V85.07Zm27.52,52.79c6.69,0,15.51-1.91,15.51-16.47s-9-16.47-15.83-16.47h-3.61v32.93h3.93Z"/><path class="cls-1" d="M314.31,85.07h25.81l26.45,72.66H341.82L339,147.85H315.47l-2.87,9.88H287.85Zm19.44,44.61-6.27-22h-.42l-6.37,22Z"/><path class="cls-1" d="M371.08,85.07H395v72.66h-23.9Z"/><path class="cls-1" d="M406.4,85.07h23.9v52.16h25.82v20.5H406.4Z"/><path class="cls-1" d="M472,127.77l-25.71-42.7H473.7l10.94,23.48,10.94-23.48h26.88l-26.66,42.7v30H472Z"/></g></g></svg>