<svg xmlns="http://www.w3.org/2000/svg" viewBox="0 0 478.82 270.96"><defs><style>.cls-1{fill:#1e1e1e;}</style></defs><title>logo-wsj</title><g id="Layer_2" data-name="Layer 2"><g id="Layer_1-2" data-name="Layer 1"><path class="cls-1" d="M160.58,270.72h-9.8q-18-87.15-36-174a3.4,3.4,0,0,1-1-.1q-16.35,87-32.6,174.1H68.38c-2.8-13.3-5.6-26.6-8.5-39.9Q38,127.77,16,24.82c-.5-2.3-1.3-4.5-1.9-6.7-1.4-5.5-4.8-8.9-10.5-10.1-3.8-.8-3.7-1.1-3.5-5.8h67.8c1.6,3.6,0,5-3.4,5.7-9,1.9-12.7,5.7-11.7,14.9,1.3,12.5,3.7,25,6.1,37.4,8.5,42.8,17.2,85.5,25.8,128.2.1.5.3.9,1.3,1.6,1.2-6.2,2.5-12.4,3.7-18.7,6-32.1,12.1-64.1,17.7-96.2.8-4.7-.5-9.9-1.4-14.7-2.2-11.9-4.8-23.8-7-35.8-1.7-9.1-4.4-17.1-15.8-17.4V2.12h70.1c1.5,3.6.2,5.3-3.4,5.7-12.1,1.1-15.8,6.8-14.2,18.7,2.2,15.8,5.4,31.5,8.4,47.2,7.1,37.3,14.4,74.5,21.6,111.7a11.58,11.58,0,0,0,1.9,4.9c1.9-9.1,3.8-18.3,5.6-27.4,8-39.8,16.1-79.6,23.9-119.4a102.46,102.46,0,0,0,1.8-18.4c.2-11.5-3-15.1-14.4-17.1-3.2-.6-6.2-.9-4.6-5.8h49.9c-1.8,2.5-2.6,5.2-4.1,5.6-7.2,2.1-10.6,7.2-12.2,13.9-3.4,14.6-6.8,29.2-9.9,43.8q-21.15,100.8-42.2,201.8A11.15,11.15,0,0,1,160.58,270.72Z"/><path class="cls-1" d="M236.28,268.62v-87.4h4.5c2.7,12.5,5,24.7,8.1,36.8a78.4,78.4,0,0,0,14.4,29.4c4.8,6.1,10.7,11,18.2,13.5,14.8,4.9,28.5-1.2,34.5-16.4,7.9-19.8,7.1-39.7-3.6-58.2-5.7-9.9-12.9-19-20.4-27.6-11-12.8-23.1-24.5-34-37.3-12.7-14.8-21.9-31.4-23.4-51.4-1.2-16.5,1.2-32.3,9.7-46.7,10.5-17.8,30.2-26.9,49.9-22,6.7,1.7,12.7,6.2,18.7,10,7.5,4.7,12.9,3.3,16.2-4.9.3-.6.3-1.4.8-1.8,1.2-1.2,2.6-2.2,4.9-4.1v89.3h-4.7c-2.4-12.5-4.4-24.9-7.1-37-2.6-11.4-6.7-22.4-14-31.7-5.7-7.3-12.8-12-22.4-12.4-10.7-.4-18,4.1-21.5,14.3-5,14.4-4.3,28.8,2.6,42.2a128.92,128.92,0,0,0,16.8,24.6c10.4,12.1,22,23.2,32.8,35,15.4,16.9,26.9,36,30.3,59.1,2.9,19.5,1.3,38.6-7.7,56.5-11.3,22.5-33.7,34.5-56.8,29.3-7-1.6-13.8-5.7-19.9-9.8-10.8-7.1-16.2-6-21.1,5.9C240.78,268.62,239.48,270.12,236.28,268.62Z"/><path class="cls-1" d="M403.18,2h75.1c1.3,3.6.3,5.6-3.4,6a24.59,24.59,0,0,0-3.4.9c-8.8,2.5-11.5,5.6-11.6,15-.2,19.8-.1,39.7-.1,59.5v123c0,11.7-1.4,23.2-5.9,34.2-11.4,27.9-38.8,33.5-58.7,28.9-21.9-5.1-36.4-27.2-34.1-51.6,1.1-12,8.8-22.1,18.8-24.7,8.4-2.2,17,.7,21.2,7.3,4.6,7.2,3.9,18.7-2,25.2a51.66,51.66,0,0,1-8,6.7c-4.9,3.6-11,6.5-9.9,14.2.9,6.6,8.5,13.6,16.2,15.4,10.5,2.4,19.3-1.7,22.7-12a74.84,74.84,0,0,0,3.9-22c.4-51.8.3-103.7.3-155.5,0-15.8.1-31.7,0-47.5-.1-10.5-2.6-13.5-12.7-16a38.77,38.77,0,0,0-4.9-1.1C403.28,7.42,401.78,5.82,403.18,2Z"/></g></g></svg>