<svg xmlns="http://www.w3.org/2000/svg" viewBox="0 0 1199.82 232"><defs><style>.cls-1{fill:#1e1e1e;}</style></defs><title>logo-coindesk</title><g id="Layer_2" data-name="Layer 2"><g id="Layer_1-2" data-name="Layer 1"><g id="c5SEFz.tif"><path class="cls-1" d="M207,0c1.5.61,3,1.27,4.52,1.83a30,30,0,0,1,19.91,27.36,30.35,30.35,0,0,1-17.34,28.64c-11.18,5.22-24.89,3.63-33.34-5.46-12.65-13.59-32.07-13.07-44.58,0-11.48,12-29.82,11-42.17-1C86.42,44,77.77,40.64,67.2,42.75c-18.21,3.65-34.5,28-17.76,49,4.82,6,9.73,11.84,10.65,19.92,1.19,10.47-2.18,19.12-9.35,26.82C35.28,155.09,43,181.92,64.83,188.14c10.23,2.92,19.51.56,27.47-6.36,5.62-4.89,11.45-9,19.11-10.07a30.29,30.29,0,0,1,14.21,58.6c-1.55.53-3.08,1.12-4.62,1.69H110c-7.44-2.3-13.36-6.78-19.15-11.94a27.19,27.19,0,0,0-36.12.26C49.1,225.45,43.2,229.63,36,232H25c-3.06-1.22-6.24-2.21-9.17-3.69C7.05,223.86,2.72,216,0,207V196c2.27-7.44,6.67-13.41,11.83-19.2a27.37,27.37,0,0,0-.12-36.11C6.64,135,2.42,129.16,0,122V110c2.42-7.16,6.6-13.06,11.69-18.7a27.36,27.36,0,0,0-.17-36.48C6.42,49.16,2.29,43.22,0,36V25C3.5,11.84,11.79,3.45,25,0H36c7,2.25,12.84,6.34,18.42,11.22,10.41,9.13,24.85,8.81,36.33.59C96.85,7.43,103.56,3.91,110,0h11c5.55,3.11,11.8,5.42,16.52,9.5,12.12,10.44,26.95,11.65,39.36,1.56C182.74,6.31,188.69,2.07,196,0Z"/><path class="cls-1" d="M817.21,1.2h21.5V181.67H817.55V166.53a13.12,13.12,0,0,0-2.18,1.58c-19.3,24.68-69.31,24.21-88.06-12-10.49-20.24-10.46-41.2-.1-61.47,14.29-27.95,52.43-37.9,78.41-20.85,4,2.62,7.34,6.18,11.59,9.83Zm.22,123.72c-.09-1.39-.15-3.89-.42-6.37-1.88-17.76-15.34-31.3-32.35-32.59-20.29-1.53-35.6,8.36-40.12,26.69a60.9,60.9,0,0,0-1.37,18.28c1,15.79,10.66,27.83,24.88,32.28C794.12,171.37,816.93,154.19,817.43,124.92Z"/><path class="cls-1" d="M1116.77,124.9v56.76h-21.3V1.27h21.19V117.7c2.15-2,3.42-3.16,4.61-4.36,13.63-13.71,27.3-27.37,40.81-41.19a10.18,10.18,0,0,1,8.31-3.37c7.8.23,15.61.07,24.84.07l-52.67,51.48,57.26,61.77c-6.17,0-11.28-.59-16.2.12-10.46,1.51-17.45-2.53-24.07-10.67-12.4-15.23-26-29.49-39.06-44.17-.87-1-1.68-2-2.52-3Z"/><path class="cls-1" d="M973.1,133.24H882.4c-1.17,10.83,6.05,22.19,17.59,28.26,17.43,9.16,31.12,6.1,51.49-11.62a13.21,13.21,0,0,1,1.61.92c4.63,3.53,9.24,7.09,14.56,11.18-3.19,3.23-6,6.47-9.17,9.21-25.45,21.68-68.72,17.8-87.77-7.94C848.34,133,856.9,79.56,901.24,68c38.2-10,67.13,11.76,70.83,48C972.62,121.43,972.73,126.9,973.1,133.24Zm-23.51-17.42c0-21.56-14.19-34.32-35.94-32.83-17,1.17-33.17,18.07-31.15,32.83Z"/><path class="cls-1" d="M409.62,125.16c.1-33.36,26.72-59.52,60.44-59.42s60.05,26.45,60,59.88S503.28,185.2,469.1,185A59.27,59.27,0,0,1,409.62,125.16Zm22.88,1c.12,1.61.22,3.94.48,6.26,2,17.94,15.25,30.94,33.07,32.47,19.06,1.64,34.68-8.65,39.28-26.6a59.82,59.82,0,0,0,1.53-17.76c-.87-16.88-11.74-30-27.11-33.64C453.55,80.68,432.45,97.89,432.5,126.17Z"/><path class="cls-1" d="M702.79,181.9H682c-.08-1.93-.22-3.69-.22-5.45,0-19.49.05-39-.07-58.45a61.68,61.68,0,0,0-1.2-12.89c-2.47-11-10-17.8-20.43-19.09-13.83-1.71-26.06,3.55-30.91,15.13a67.3,67.3,0,0,0-4.87,23.14c-.68,19-.22,38-.22,57.37h-21V68.9h20.81V84.62c.83-.12,1.3-.06,1.4-.22,11.66-20,39.27-22.32,55.89-14.82,13.65,6.15,20.87,17.72,21.36,32C703.45,128.12,702.79,154.76,702.79,181.9Z"/><path class="cls-1" d="M1001.29,151.8c3.7,2.85,7,5.7,10.56,8.08,10,6.62,20.69,6.6,31.47,2.23,4.86-2,8.4-5.42,8.73-11.13s-2.87-9.64-7.62-11.84-10-3.6-15-5.12c-6.37-1.91-12.93-3.23-19.18-5.44-26.84-9.48-23.81-40.36-9-52.56,15.87-13,46.73-13.86,62.58-.83,3,2.48,5.43,5.68,8.4,8.85L1055.49,96.8c-1.2-1.11-2.35-2.22-3.54-3.28-9.23-8.27-19.79-10-31.1-5.5-9.63,3.83-10.92,14.78-2.16,20.35,5,3.21,11.21,4.75,17,6.6,6.31,2,13,3.11,19.16,5.4,11.12,4.09,18.46,11.79,19.88,24,1.5,12.86-2.22,23.85-13,31.56-13,9.26-27.84,10.08-43.06,8.43-12.64-1.38-23.27-6.6-31.23-16.74-.6-.76-1.08-1.6-1.89-2.81Z"/><path class="cls-1" d="M384.93,152.7l14.85,14.75c-10.41,14.93-38.39,21.81-61.39,15.07-24-7-39.63-27.55-40.34-53-.82-29.29,12.76-51.22,37.15-60,22.88-8.24,52.24-1.82,65.27,14.64L384.6,98.64c-6.91-6.9-14.54-11.68-24.15-12.55-17.71-1.62-31.25,7.11-36.93,24a46.47,46.47,0,0,0-1,28c7.72,27.17,39.33,36,60.06,16.78Z"/><path class="cls-1" d="M551.18,68.79h20.65V181.72H551.18Z"/><path class="cls-1" d="M561.57,12a15.74,15.74,0,0,1-.27,31.48,15.57,15.57,0,0,1-15.49-15.64A15.48,15.48,0,0,1,561.57,12Z"/><path class="cls-1" d="M201.34,107.66a10.67,10.67,0,1,1-10.78,10.67A10.53,10.53,0,0,1,201.34,107.66Z"/><path class="cls-1" d="M201.2,213.06a10.63,10.63,0,0,1-.2-21.26,10.63,10.63,0,1,1,.2,21.26Z"/><path class="cls-1" d="M126.38,119.09a10.79,10.79,0,0,1-10.85,10.72,10.8,10.8,0,0,1,.17-21.59A10.79,10.79,0,0,1,126.38,119.09Z"/></g></g></g></svg>