<svg xmlns="http://www.w3.org/2000/svg" viewBox="0 0 300 60.47"><defs><style>.cls-1,.cls-2{fill:#1e1e1e;}.cls-2{stroke:#010101;stroke-miterlimit:10;stroke-width:7.5px;}</style></defs><title>logo-bloomberg</title><g id="Layer_2" data-name="Layer 2"><g id="Layer_1-2" data-name="Layer 1"><path class="cls-1" d="M7.9,7.81h6.52c6,0,8.58,1.89,8.58,5.71,0,3.32-2.62,5.58-7.9,5.58H7.9ZM0,45.42H16c8.4,0,16.8-3,16.8-12.65A10.57,10.57,0,0,0,23.2,22v-.13c4.56-1.37,7.71-4.69,7.71-9.71C30.91,4.12,24,1.05,17.3,1.05H0ZM7.9,25.87h7.58c6.39,0,9.41,1.63,9.41,6.27,0,5.82-5.65,6.52-9.73,6.52H7.9Z"/><line class="cls-2" x1="41.71" y1="45.42" x2="41.71"/><path class="cls-1" d="M58,30.38a8.84,8.84,0,1,1,17.67,0,8.84,8.84,0,1,1-17.67,0m-7.52,0c0,9.47,7.26,15.79,16.36,15.79s16.37-6.32,16.37-15.79-7.28-15.8-16.37-15.8-16.36,6.34-16.36,15.8"/><path class="cls-1" d="M94.13,30.38a8.84,8.84,0,1,1,17.67,0,8.84,8.84,0,1,1-17.67,0m-7.52,0c0,9.47,7.27,15.79,16.36,15.79s16.37-6.32,16.37-15.79-7.28-15.8-16.37-15.8-16.36,6.34-16.36,15.8"/><path class="cls-1" d="M123.92,15.34h7.15V20h.11c1.32-2.82,4.2-5.46,9.22-5.46,4.64,0,7.85,1.81,9.41,5.58,2.19-3.82,5.39-5.58,9.89-5.58,8,0,10.85,5.71,10.85,12.92V45.42H163v-17c0-3.76-1.12-7-5.58-7-4.7,0-6.46,3.88-6.46,7.76v16.3h-7.51V27.5c0-3.71-1.51-6.14-5.15-6.14-4.94,0-6.89,3.62-6.89,7.64V45.42h-7.52Z"/><path class="cls-1" d="M201.6,30.38a8.85,8.85,0,1,1-17.69,0,8.85,8.85,0,1,1,17.69,0m-24.95,15h7.15V40.91h.11c2.21,3.63,6.15,5.26,10.36,5.26,9.26,0,14.85-6.89,14.85-15.79s-6-15.8-14.55-15.8c-5.63,0-8.65,2.63-10.21,4.59h-.19V0h-7.52V45.42Z"/><path class="cls-1" d="M220,27.37c.57-4.33,3.33-7.15,7.77-7.15,4.7,0,7.59,2.76,7.65,7.15ZM243,33V31c0-10.47-5.7-16.37-14.1-16.37-9.11,0-16.37,6.34-16.37,15.8s7.26,15.79,16.37,15.79a15.65,15.65,0,0,0,12.71-6l-5.39-4.06a9.92,9.92,0,0,1-8.08,4.06A7.79,7.79,0,0,1,220.05,33Z"/><path class="cls-1" d="M247.88,15.34h7.53V20.1h.13a9.56,9.56,0,0,1,8.89-5.52,9.37,9.37,0,0,1,2.7.45v7.26a15.26,15.26,0,0,0-3.64-.56,7.57,7.57,0,0,0-8.08,7.6V45.42h-7.53V15.34Z"/><path class="cls-1" d="M284,21.36c5.44,0,8.9,3.62,8.9,8.84,0,5-3.39,8.83-9,8.83a8.68,8.68,0,0,1-8.84-8.71c0-5.34,3.62-9,8.9-9m8.9-6v4.51h-.12c-2.2-3.64-6.16-5.27-10.36-5.27-9.27,0-14.85,6.9-14.85,15.8,0,8.52,6,15.42,15,15.42,3.77,0,7.65-1.44,9.86-4.38h.1v2.19c0,6-2.24,10.09-9.52,10.09-4.2,0-7.33-1.57-10.34-4.34l-4.51,6.15c4.25,3.78,9.34,5,14.92,5,11.72,0,17-6.9,17-17.74V15.34Z"/></g></g></svg>