<svg xmlns="http://www.w3.org/2000/svg" viewBox="0 0 170.19 24"><defs><style>.cls-1{fill:#1e1e1e;}</style></defs><title>logo-techcrunch</title><g id="Layer_2" data-name="Layer 2"><g id="Layer_1-2" data-name="Layer 1"><path class="cls-1" d="M64,9.38V20H60.09V9.38H56.17V6H67.89V9.38Z"/><path class="cls-1" d="M77,15.78H70.79a1.66,1.66,0,0,0,1.78,1.68,5.48,5.48,0,0,0,2.72-.74L76.67,19a8.15,8.15,0,0,1-4.28,1.2c-3.16,0-4.9-2.24-4.9-5.46,0-3.62,2-5.48,4.8-5.48S77,11.18,77,15.08A6.87,6.87,0,0,1,77,15.78Zm-4.76-3.84c-.82,0-1.28.56-1.4,1.6h3C73.61,12.48,73.25,11.94,72.19,11.94Z"/><path class="cls-1" d="M83.65,20.22c-3.08,0-4.92-2-4.92-5.5,0-3.22,1.64-5.44,5-5.44a4.4,4.4,0,0,1,4,2.4l-2.48,1.88c-.5-.92-.84-1.36-1.62-1.36s-1.38.92-1.38,2.58.5,2.52,1.48,2.52c.68,0,1.16-.38,1.82-1.36l2.28,1.78C86.65,19.52,85.51,20.22,83.65,20.22Z"/><path class="cls-1" d="M95.93,20V14c0-1.36-.46-1.72-1.2-1.72s-1.22.36-1.22,1.68v6h-3.6V6.86l3.6-1.44V10.2a4,4,0,0,1,2.64-.92c2.3,0,3.4,1.54,3.4,4.3V20Z"/><path class="cls-1" d="M108.17,20.22c-4.16,0-6.38-3.08-6.38-7.22,0-4.5,2.64-7.22,6.4-7.22,3.44,0,4.81,1.48,5.77,4.12l-3.53,1.38c-.5-1.3-1-2.12-2.26-2.12-1.62,0-2.32,1.62-2.32,3.84s.68,3.84,2.36,3.84c1.22,0,1.74-.66,2.5-2L114,16.6A6,6,0,0,1,108.17,20.22Z"/><path class="cls-1" d="M122.85,13.46a2.27,2.27,0,0,0-1.68-.88c-.88,0-1.42.42-1.42,1.7V20h-3.6V9.5h3.6v.76a3.22,3.22,0,0,1,3.94-.54Z"/><path class="cls-1" d="M131.41,20v-.7a4,4,0,0,1-2.62.92c-2.3,0-3.4-1.54-3.4-4.3V9.5H129v6c0,1.36.46,1.72,1.2,1.72s1.2-.36,1.2-1.68v-6H135V20Z"/><path class="cls-1" d="M143.65,20V14c0-1.36-.46-1.72-1.2-1.72s-1.22.36-1.22,1.68v6h-3.6V9.5h3.6v.7a4,4,0,0,1,2.64-.92c2.3,0,3.4,1.54,3.4,4.3V20Z"/><path class="cls-1" d="M154.29,20.22c-3.08,0-4.92-2-4.92-5.5,0-3.22,1.64-5.44,5-5.44a4.4,4.4,0,0,1,4,2.4l-2.48,1.88c-.5-.92-.84-1.36-1.62-1.36s-1.38.92-1.38,2.58.5,2.52,1.48,2.52c.68,0,1.16-.38,1.82-1.36l2.28,1.78C157.29,19.52,156.15,20.22,154.29,20.22Z"/><path class="cls-1" d="M166.57,20V14c0-1.36-.46-1.72-1.2-1.72s-1.22.36-1.22,1.68v6h-3.6V6.86l3.6-1.44V10.2a4,4,0,0,1,2.64-.92c2.3,0,3.4,1.54,3.4,4.3V20Z"/><polygon class="cls-1" points="0 0 0 8 8 8 8 24 16 24 16 8 24 8 24 0 0 0"/><polygon class="cls-1" points="32 16 32 8 24 8 24 24 48 24 48 16 32 16"/><rect class="cls-1" x="32" width="16" height="8"/></g></g></svg>