<svg width="258" height="258" viewBox="0 0 258 258" fill="none" xmlns="http://www.w3.org/2000/svg">
<g clip-path="url(#clip0_115_2105)">
<path d="M127.87 24.1705C134.619 24.1705 140.09 18.6994 140.09 11.9505C140.09 5.20155 134.619 -0.269531 127.87 -0.269531C121.121 -0.269531 115.65 5.20155 115.65 11.9505C115.65 18.6994 121.121 24.1705 127.87 24.1705Z" fill="#321D47"/>
<path d="M127.87 33.4399C132.984 33.4399 137.13 29.2941 137.13 24.1799C137.13 19.0658 132.984 14.9199 127.87 14.9199C122.756 14.9199 118.61 19.0658 118.61 24.1799C118.61 29.2941 122.756 33.4399 127.87 33.4399Z" fill="#E6007A"/>
<path d="M127.87 13.6102C130.123 13.6102 131.95 11.7835 131.95 9.5302C131.95 7.27687 130.123 5.4502 127.87 5.4502C125.617 5.4502 123.79 7.27687 123.79 9.5302C123.79 11.7835 125.617 13.6102 127.87 13.6102Z" fill="#E6007A"/>
<circle cx="128" cy="12" r="11.5" stroke="black"/>
</g>
<g clip-path="url(#clip1_115_2105)">
<path d="M166.87 47.1705C173.619 47.1705 179.09 41.6994 179.09 34.9505C179.09 28.2016 173.619 22.7305 166.87 22.7305C160.121 22.7305 154.65 28.2016 154.65 34.9505C154.65 41.6994 160.121 47.1705 166.87 47.1705Z" fill="#321D47"/>
<path d="M166.87 56.4399C171.984 56.4399 176.13 52.2941 176.13 47.1799C176.13 42.0658 171.984 37.9199 166.87 37.9199C161.756 37.9199 157.61 42.0658 157.61 47.1799C157.61 52.2941 161.756 56.4399 166.87 56.4399Z" fill="#E6007A"/>
<path d="M166.87 36.6102C169.123 36.6102 170.95 34.7835 170.95 32.5302C170.95 30.2769 169.123 28.4502 166.87 28.4502C164.617 28.4502 162.79 30.2769 162.79 32.5302C162.79 34.7835 164.617 36.6102 166.87 36.6102Z" fill="#E6007A"/>
<circle cx="167" cy="35" r="11.5" stroke="black"/>
</g>
<g clip-path="url(#clip2_115_2105)">
<path d="M166.87 93.1705C173.619 93.1705 179.09 87.6994 179.09 80.9505C179.09 74.2016 173.619 68.7305 166.87 68.7305C160.121 68.7305 154.65 74.2016 154.65 80.9505C154.65 87.6994 160.121 93.1705 166.87 93.1705Z" fill="#321D47"/>
<path d="M166.87 102.44C171.984 102.44 176.13 98.2941 176.13 93.1799C176.13 88.0658 171.984 83.9199 166.87 83.9199C161.756 83.9199 157.61 88.0658 157.61 93.1799C157.61 98.2941 161.756 102.44 166.87 102.44Z" fill="#E6007A"/>
<path d="M166.87 82.6102C169.123 82.6102 170.95 80.7835 170.95 78.5302C170.95 76.2769 169.123 74.4502 166.87 74.4502C164.617 74.4502 162.79 76.2769 162.79 78.5302C162.79 80.7835 164.617 82.6102 166.87 82.6102Z" fill="#E6007A"/>
<circle cx="167" cy="81" r="11.5" stroke="black"/>
</g>
<g clip-path="url(#clip3_115_2105)">
<path d="M87.8699 93.1705C94.6188 93.1705 100.09 87.6994 100.09 80.9505C100.09 74.2016 94.6188 68.7305 87.8699 68.7305C81.121 68.7305 75.6499 74.2016 75.6499 80.9505C75.6499 87.6994 81.121 93.1705 87.8699 93.1705Z" fill="#321D47"/>
<path d="M87.8699 102.44C92.984 102.44 97.1299 98.2941 97.1299 93.1799C97.1299 88.0658 92.984 83.9199 87.8699 83.9199C82.7557 83.9199 78.6099 88.0658 78.6099 93.1799C78.6099 98.2941 82.7557 102.44 87.8699 102.44Z" fill="#E6007A"/>
<path d="M87.87 82.6102C90.1234 82.6102 91.95 80.7835 91.95 78.5302C91.95 76.2769 90.1234 74.4502 87.87 74.4502C85.6167 74.4502 83.79 76.2769 83.79 78.5302C83.79 80.7835 85.6167 82.6102 87.87 82.6102Z" fill="#E6007A"/>
<circle cx="88" cy="81" r="11.5" stroke="black"/>
</g>
<g clip-path="url(#clip4_115_2105)">
<path d="M127.87 116.17C134.619 116.17 140.09 110.699 140.09 103.95C140.09 97.2016 134.619 91.7305 127.87 91.7305C121.121 91.7305 115.65 97.2016 115.65 103.95C115.65 110.699 121.121 116.17 127.87 116.17Z" fill="#321D47"/>
<path d="M127.87 125.44C132.984 125.44 137.13 121.294 137.13 116.18C137.13 111.066 132.984 106.92 127.87 106.92C122.756 106.92 118.61 111.066 118.61 116.18C118.61 121.294 122.756 125.44 127.87 125.44Z" fill="#E6007A"/>
<path d="M127.87 105.61C130.123 105.61 131.95 103.784 131.95 101.53C131.95 99.2769 130.123 97.4502 127.87 97.4502C125.617 97.4502 123.79 99.2769 123.79 101.53C123.79 103.784 125.617 105.61 127.87 105.61Z" fill="#E6007A"/>
<circle cx="128" cy="104" r="11.5" stroke="black"/>
</g>
<g clip-path="url(#clip5_115_2105)">
<path d="M88.0999 47.1304C94.8488 47.1304 100.32 41.6594 100.32 34.9104C100.32 28.1615 94.8488 22.6904 88.0999 22.6904C81.351 22.6904 75.8799 28.1615 75.8799 34.9104C75.8799 41.6594 81.351 47.1304 88.0999 47.1304Z" fill="#321D47"/>
<path d="M88.0998 56.3901C93.214 56.3901 97.3598 52.2443 97.3598 47.1301C97.3598 42.016 93.214 37.8701 88.0998 37.8701C82.9857 37.8701 78.8398 42.016 78.8398 47.1301C78.8398 52.2443 82.9857 56.3901 88.0998 56.3901Z" fill="#E6007A"/>
<path d="M88.1 36.5604C90.3533 36.5604 92.18 34.7337 92.18 32.4804C92.18 30.2271 90.3533 28.4004 88.1 28.4004C85.8467 28.4004 84.02 30.2271 84.02 32.4804C84.02 34.7337 85.8467 36.5604 88.1 36.5604Z" fill="#E6007A"/>
<circle cx="88" cy="35" r="11.5" stroke="black"/>
</g>
<g clip-path="url(#clip6_115_2105)">
<path d="M51.8699 166.17C58.6188 166.17 64.0899 160.699 64.0899 153.95C64.0899 147.202 58.6188 141.73 51.8699 141.73C45.121 141.73 39.6499 147.202 39.6499 153.95C39.6499 160.699 45.121 166.17 51.8699 166.17Z" fill="#321D47"/>
<path d="M51.8699 175.44C56.984 175.44 61.1299 171.294 61.1299 166.18C61.1299 161.066 56.984 156.92 51.8699 156.92C46.7557 156.92 42.6099 161.066 42.6099 166.18C42.6099 171.294 46.7557 175.44 51.8699 175.44Z" fill="#E6007A"/>
<path d="M51.87 155.61C54.1234 155.61 55.95 153.784 55.95 151.53C55.95 149.277 54.1234 147.45 51.87 147.45C49.6167 147.45 47.79 149.277 47.79 151.53C47.79 153.784 49.6167 155.61 51.87 155.61Z" fill="#E6007A"/>
<circle cx="52" cy="154" r="11.5" stroke="black"/>
</g>
<g clip-path="url(#clip7_115_2105)">
<path d="M90.8699 189.17C97.6188 189.17 103.09 183.699 103.09 176.95C103.09 170.202 97.6188 164.73 90.8699 164.73C84.121 164.73 78.6499 170.202 78.6499 176.95C78.6499 183.699 84.121 189.17 90.8699 189.17Z" fill="#321D47"/>
<path d="M90.8699 198.44C95.984 198.44 100.13 194.294 100.13 189.18C100.13 184.066 95.984 179.92 90.8699 179.92C85.7557 179.92 81.6099 184.066 81.6099 189.18C81.6099 194.294 85.7557 198.44 90.8699 198.44Z" fill="#E6007A"/>
<path d="M90.87 178.61C93.1234 178.61 94.95 176.784 94.95 174.53C94.95 172.277 93.1234 170.45 90.87 170.45C88.6167 170.45 86.79 172.277 86.79 174.53C86.79 176.784 88.6167 178.61 90.87 178.61Z" fill="#E6007A"/>
<circle cx="91" cy="177" r="11.5" stroke="black"/>
</g>
<g clip-path="url(#clip8_115_2105)">
<path d="M90.8699 235.17C97.6188 235.17 103.09 229.699 103.09 222.95C103.09 216.202 97.6188 210.73 90.8699 210.73C84.121 210.73 78.6499 216.202 78.6499 222.95C78.6499 229.699 84.121 235.17 90.8699 235.17Z" fill="#321D47"/>
<path d="M90.8699 244.44C95.984 244.44 100.13 240.294 100.13 235.18C100.13 230.066 95.984 225.92 90.8699 225.92C85.7557 225.92 81.6099 230.066 81.6099 235.18C81.6099 240.294 85.7557 244.44 90.8699 244.44Z" fill="#E6007A"/>
<path d="M90.87 224.61C93.1234 224.61 94.95 222.784 94.95 220.53C94.95 218.277 93.1234 216.45 90.87 216.45C88.6167 216.45 86.79 218.277 86.79 220.53C86.79 222.784 88.6167 224.61 90.87 224.61Z" fill="#E6007A"/>
<circle cx="91" cy="223" r="11.5" stroke="black"/>
</g>
<g clip-path="url(#clip9_115_2105)">
<path d="M11.8699 235.17C18.6188 235.17 24.0899 229.699 24.0899 222.95C24.0899 216.202 18.6188 210.73 11.8699 210.73C5.12098 210.73 -0.350098 216.202 -0.350098 222.95C-0.350098 229.699 5.12098 235.17 11.8699 235.17Z" fill="#321D47"/>
<path d="M11.8699 244.44C16.984 244.44 21.1299 240.294 21.1299 235.18C21.1299 230.066 16.984 225.92 11.8699 225.92C6.75571 225.92 2.60986 230.066 2.60986 235.18C2.60986 240.294 6.75571 244.44 11.8699 244.44Z" fill="#E6007A"/>
<path d="M11.87 224.61C14.1234 224.61 15.95 222.784 15.95 220.53C15.95 218.277 14.1234 216.45 11.87 216.45C9.61672 216.45 7.79004 218.277 7.79004 220.53C7.79004 222.784 9.61672 224.61 11.87 224.61Z" fill="#E6007A"/>
<circle cx="12" cy="223" r="11.5" stroke="black"/>
</g>
<g clip-path="url(#clip10_115_2105)">
<path d="M51.8699 258.17C58.6188 258.17 64.0899 252.699 64.0899 245.95C64.0899 239.202 58.6188 233.73 51.8699 233.73C45.121 233.73 39.6499 239.202 39.6499 245.95C39.6499 252.699 45.121 258.17 51.8699 258.17Z" fill="#321D47"/>
<path d="M51.8699 267.44C56.984 267.44 61.1299 263.294 61.1299 258.18C61.1299 253.066 56.984 248.92 51.8699 248.92C46.7557 248.92 42.6099 253.066 42.6099 258.18C42.6099 263.294 46.7557 267.44 51.8699 267.44Z" fill="#E6007A"/>
<path d="M51.87 247.61C54.1234 247.61 55.95 245.784 55.95 243.53C55.95 241.277 54.1234 239.45 51.87 239.45C49.6167 239.45 47.79 241.277 47.79 243.53C47.79 245.784 49.6167 247.61 51.87 247.61Z" fill="#E6007A"/>
<circle cx="52" cy="246" r="11.5" stroke="black"/>
</g>
<g clip-path="url(#clip11_115_2105)">
<path d="M12.0999 189.13C18.8488 189.13 24.3199 183.659 24.3199 176.91C24.3199 170.162 18.8488 164.69 12.0999 164.69C5.35096 164.69 -0.120117 170.162 -0.120117 176.91C-0.120117 183.659 5.35096 189.13 12.0999 189.13Z" fill="#321D47"/>
<path d="M12.0998 198.39C17.214 198.39 21.3598 194.244 21.3598 189.13C21.3598 184.016 17.214 179.87 12.0998 179.87C6.98569 179.87 2.83984 184.016 2.83984 189.13C2.83984 194.244 6.98569 198.39 12.0998 198.39Z" fill="#E6007A"/>
<path d="M12.1 178.56C14.3533 178.56 16.18 176.734 16.18 174.48C16.18 172.227 14.3533 170.4 12.1 170.4C9.8467 170.4 8.02002 172.227 8.02002 174.48C8.02002 176.734 9.8467 178.56 12.1 178.56Z" fill="#E6007A"/>
<circle cx="12" cy="177" r="11.5" stroke="black"/>
</g>
<g clip-path="url(#clip12_115_2105)">
<path d="M206.87 166.17C213.619 166.17 219.09 160.699 219.09 153.95C219.09 147.202 213.619 141.73 206.87 141.73C200.121 141.73 194.65 147.202 194.65 153.95C194.65 160.699 200.121 166.17 206.87 166.17Z" fill="#321D47"/>
<path d="M206.87 175.44C211.984 175.44 216.13 171.294 216.13 166.18C216.13 161.066 211.984 156.92 206.87 156.92C201.756 156.92 197.61 161.066 197.61 166.18C197.61 171.294 201.756 175.44 206.87 175.44Z" fill="#E6007A"/>
<path d="M206.87 155.61C209.123 155.61 210.95 153.784 210.95 151.53C210.95 149.277 209.123 147.45 206.87 147.45C204.617 147.45 202.79 149.277 202.79 151.53C202.79 153.784 204.617 155.61 206.87 155.61Z" fill="#E6007A"/>
<circle cx="207" cy="154" r="11.5" stroke="black"/>
</g>
<g clip-path="url(#clip13_115_2105)">
<path d="M245.87 189.17C252.619 189.17 258.09 183.699 258.09 176.95C258.09 170.202 252.619 164.73 245.87 164.73C239.121 164.73 233.65 170.202 233.65 176.95C233.65 183.699 239.121 189.17 245.87 189.17Z" fill="#321D47"/>
<path d="M245.87 198.44C250.984 198.44 255.13 194.294 255.13 189.18C255.13 184.066 250.984 179.92 245.87 179.92C240.756 179.92 236.61 184.066 236.61 189.18C236.61 194.294 240.756 198.44 245.87 198.44Z" fill="#E6007A"/>
<path d="M245.87 178.61C248.123 178.61 249.95 176.784 249.95 174.53C249.95 172.277 248.123 170.45 245.87 170.45C243.617 170.45 241.79 172.277 241.79 174.53C241.79 176.784 243.617 178.61 245.87 178.61Z" fill="#E6007A"/>
<circle cx="246" cy="177" r="11.5" stroke="black"/>
</g>
<g clip-path="url(#clip14_115_2105)">
<path d="M245.87 235.17C252.619 235.17 258.09 229.699 258.09 222.95C258.09 216.202 252.619 210.73 245.87 210.73C239.121 210.73 233.65 216.202 233.65 222.95C233.65 229.699 239.121 235.17 245.87 235.17Z" fill="#321D47"/>
<path d="M245.87 244.44C250.984 244.44 255.13 240.294 255.13 235.18C255.13 230.066 250.984 225.92 245.87 225.92C240.756 225.92 236.61 230.066 236.61 235.18C236.61 240.294 240.756 244.44 245.87 244.44Z" fill="#E6007A"/>
<path d="M245.87 224.61C248.123 224.61 249.95 222.784 249.95 220.53C249.95 218.277 248.123 216.45 245.87 216.45C243.617 216.45 241.79 218.277 241.79 220.53C241.79 222.784 243.617 224.61 245.87 224.61Z" fill="#E6007A"/>
<circle cx="246" cy="223" r="11.5" stroke="black"/>
</g>
<g clip-path="url(#clip15_115_2105)">
<path d="M166.87 235.17C173.619 235.17 179.09 229.699 179.09 222.95C179.09 216.202 173.619 210.73 166.87 210.73C160.121 210.73 154.65 216.202 154.65 222.95C154.65 229.699 160.121 235.17 166.87 235.17Z" fill="#321D47"/>
<path d="M166.87 244.44C171.984 244.44 176.13 240.294 176.13 235.18C176.13 230.066 171.984 225.92 166.87 225.92C161.756 225.92 157.61 230.066 157.61 235.18C157.61 240.294 161.756 244.44 166.87 244.44Z" fill="#E6007A"/>
<path d="M166.87 224.61C169.123 224.61 170.95 222.784 170.95 220.53C170.95 218.277 169.123 216.45 166.87 216.45C164.617 216.45 162.79 218.277 162.79 220.53C162.79 222.784 164.617 224.61 166.87 224.61Z" fill="#E6007A"/>
<circle cx="167" cy="223" r="11.5" stroke="black"/>
</g>
<g clip-path="url(#clip16_115_2105)">
<path d="M206.87 258.17C213.619 258.17 219.09 252.699 219.09 245.95C219.09 239.202 213.619 233.73 206.87 233.73C200.121 233.73 194.65 239.202 194.65 245.95C194.65 252.699 200.121 258.17 206.87 258.17Z" fill="#321D47"/>
<path d="M206.87 267.44C211.984 267.44 216.13 263.294 216.13 258.18C216.13 253.066 211.984 248.92 206.87 248.92C201.756 248.92 197.61 253.066 197.61 258.18C197.61 263.294 201.756 267.44 206.87 267.44Z" fill="#E6007A"/>
<path d="M206.87 247.61C209.123 247.61 210.95 245.784 210.95 243.53C210.95 241.277 209.123 239.45 206.87 239.45C204.617 239.45 202.79 241.277 202.79 243.53C202.79 245.784 204.617 247.61 206.87 247.61Z" fill="#E6007A"/>
<circle cx="207" cy="246" r="11.5" stroke="black"/>
</g>
<g clip-path="url(#clip17_115_2105)">
<path d="M167.1 189.13C173.849 189.13 179.32 183.659 179.32 176.91C179.32 170.162 173.849 164.69 167.1 164.69C160.351 164.69 154.88 170.162 154.88 176.91C154.88 183.659 160.351 189.13 167.1 189.13Z" fill="#321D47"/>
<path d="M167.1 198.39C172.214 198.39 176.36 194.244 176.36 189.13C176.36 184.016 172.214 179.87 167.1 179.87C161.986 179.87 157.84 184.016 157.84 189.13C157.84 194.244 161.986 198.39 167.1 198.39Z" fill="#E6007A"/>
<path d="M167.1 178.56C169.353 178.56 171.18 176.734 171.18 174.48C171.18 172.227 169.353 170.4 167.1 170.4C164.847 170.4 163.02 172.227 163.02 174.48C163.02 176.734 164.847 178.56 167.1 178.56Z" fill="#E6007A"/>
<circle cx="167" cy="177" r="11.5" stroke="black"/>
</g>
<defs>
<clipPath id="clip0_115_2105">
<rect x="116" width="24" height="24" rx="12" fill="white"/>
</clipPath>
<clipPath id="clip1_115_2105">
<rect x="155" y="23" width="24" height="24" rx="12" fill="white"/>
</clipPath>
<clipPath id="clip2_115_2105">
<rect x="155" y="69" width="24" height="24" rx="12" fill="white"/>
</clipPath>
<clipPath id="clip3_115_2105">
<rect x="76" y="69" width="24" height="24" rx="12" fill="white"/>
</clipPath>
<clipPath id="clip4_115_2105">
<rect x="116" y="92" width="24" height="24" rx="12" fill="white"/>
</clipPath>
<clipPath id="clip5_115_2105">
<rect x="76" y="23" width="24" height="24" rx="12" fill="white"/>
</clipPath>
<clipPath id="clip6_115_2105">
<rect x="40" y="142" width="24" height="24" rx="12" fill="white"/>
</clipPath>
<clipPath id="clip7_115_2105">
<rect x="79" y="165" width="24" height="24" rx="12" fill="white"/>
</clipPath>
<clipPath id="clip8_115_2105">
<rect x="79" y="211" width="24" height="24" rx="12" fill="white"/>
</clipPath>
<clipPath id="clip9_115_2105">
<rect y="211" width="24" height="24" rx="12" fill="white"/>
</clipPath>
<clipPath id="clip10_115_2105">
<rect x="40" y="234" width="24" height="24" rx="12" fill="white"/>
</clipPath>
<clipPath id="clip11_115_2105">
<rect y="165" width="24" height="24" rx="12" fill="white"/>
</clipPath>
<clipPath id="clip12_115_2105">
<rect x="195" y="142" width="24" height="24" rx="12" fill="white"/>
</clipPath>
<clipPath id="clip13_115_2105">
<rect x="234" y="165" width="24" height="24" rx="12" fill="white"/>
</clipPath>
<clipPath id="clip14_115_2105">
<rect x="234" y="211" width="24" height="24" rx="12" fill="white"/>
</clipPath>
<clipPath id="clip15_115_2105">
<rect x="155" y="211" width="24" height="24" rx="12" fill="white"/>
</clipPath>
<clipPath id="clip16_115_2105">
<rect x="195" y="234" width="24" height="24" rx="12" fill="white"/>
</clipPath>
<clipPath id="clip17_115_2105">
<rect x="155" y="165" width="24" height="24" rx="12" fill="white"/>
</clipPath>
</defs>
</svg>
