<svg width="500" height="500" viewBox="0 0 500 500" fill="none" xmlns="http://www.w3.org/2000/svg">
<path d="M96.4 161.1L192.8 389.2H307.4L403.8 161.1L338.9 96.1999L250.1 72.3999L161.3 96.1999L96.4 161.1Z" stroke="#E6EAF6" stroke-width="2" stroke-miterlimit="10"/>
<path d="M250.1 499.9V72.3999" stroke="#E6EAF6" stroke-width="2" stroke-miterlimit="10"/>
<path d="M250.1 90.8C260.262 90.8 268.5 82.562 268.5 72.4C268.5 62.238 260.262 54 250.1 54C239.938 54 231.7 62.238 231.7 72.4C231.7 82.562 239.938 90.8 250.1 90.8Z" fill="#E6EAF6"/>
<path d="M174.9 351C174.9 341.076 182.876 333.1 192.8 333.1C202.626 333.1 210.7 341.078 210.7 351V427.4C210.7 437.324 202.724 445.3 192.8 445.3C182.974 445.3 174.9 437.322 174.9 427.4V351Z" fill="#E6EAF6" stroke="black"/>
<path d="M232.2 351C232.2 341.076 240.176 333.1 250.1 333.1C259.926 333.1 268 341.078 268 351V427.4C268 437.324 260.024 445.3 250.1 445.3C240.274 445.3 232.2 437.322 232.2 427.4V351Z" fill="#E6EAF6" stroke="black"/>
<path d="M289.5 351H289.5L289.5 350.99C289.305 341.16 297.092 332.894 306.91 332.7C316.738 332.505 325.003 340.289 325.2 350.105V350.105V350.107V350.109V350.111V350.112V350.114V350.116V350.118V350.119V350.121V350.123V350.125V350.126V350.128V350.13V350.132V350.133V350.135V350.137V350.139V350.14V350.142V350.144V350.146V350.147V350.149V350.151V350.153V350.154V350.156V350.158V350.16V350.162V350.163V350.165V350.167V350.169V350.17V350.172V350.174V350.176V350.177V350.179V350.181V350.183V350.184V350.186V350.188V350.19V350.191V350.193V350.195V350.197V350.198V350.2V350.202V350.204V350.205V350.207V350.209V350.211V350.212V350.214V350.216V350.218V350.22V350.221V350.223V350.225V350.227V350.228V350.23V350.232V350.234V350.235V350.237V350.239V350.241V350.242V350.244V350.246V350.248V350.249V350.251V350.253V350.255V350.256V350.258V350.26V350.262V350.263V350.265V350.267V350.269V350.27V350.272V350.274V350.276V350.278V350.279V350.281V350.283V350.285V350.286V350.288V350.29V350.292V350.293V350.295V350.297V350.299V350.3V350.302V350.304V350.306V350.307V350.309V350.311V350.313V350.314V350.316V350.318V350.32V350.321V350.323V350.325V350.327V350.328V350.33V350.332V350.334V350.336V350.337V350.339V350.341V350.343V350.344V350.346V350.348V350.35V350.351V350.353V350.355V350.357V350.358V350.36V350.362V350.364V350.365V350.367V350.369V350.371V350.372V350.374V350.376V350.378V350.379V350.381V350.383V350.385V350.387V350.388V350.39V350.392V350.394V350.395V350.397V350.399V350.401V350.402V350.404V350.406V350.408V350.409V350.411V350.413V350.415V350.416V350.418V350.42V350.422V350.423V350.425V350.427V350.429V350.43V350.432V350.434V350.436V350.437V350.439V350.441V350.443V350.445V350.446V350.448V350.45V350.452V350.453V350.455V350.457V350.459V350.46V350.462V350.464V350.466V350.467V350.469V350.471V350.473V350.474V350.476V350.478V350.48V350.481V350.483V350.485V350.487V350.488V350.49V350.492V350.494V350.495V350.497V350.499V350.501V350.503V350.504V350.506V350.508V350.51V350.511V350.513V350.515V350.517V350.518V350.52V350.522V350.524V350.525V350.527V350.529V350.531V350.532V350.534V350.536V350.538V350.539V350.541V350.543V350.545V350.546V350.548V350.55V350.552V350.553V350.555V350.557V350.559V350.561V350.562V350.564V350.566V350.568V350.569V350.571V350.573V350.575V350.576V350.578V350.58V350.582V350.583V350.585V350.587V350.589V350.59V350.592V350.594V350.596V350.597V350.599V350.601V350.603V350.604V350.606V350.608V350.61V350.612V350.613V350.615V350.617V350.619V350.62V350.622V350.624V350.626V350.627V350.629V350.631V350.633V350.634V350.636V350.638V350.64V350.641V350.643V350.645V350.647V350.648V350.65V350.652V350.654V350.655V350.657V350.659V350.661V350.662V350.664V350.666V350.668V350.67V350.671V350.673V350.675V350.677V350.678V350.68V350.682V350.684V350.685V350.687V350.689V350.691V350.692V350.694V350.696V350.698V350.699V350.701V350.703V350.705V350.706V350.708V350.71V350.712V350.713V350.715V350.717V350.719V350.72V350.722V350.724V350.726V350.728V350.729V350.731V350.733V350.735V350.736V350.738V350.74V350.742V350.743V350.745V350.747V350.749V350.75V350.752V350.754V350.756V350.757V350.759V350.761V350.763V350.764V350.766V350.768V350.77V350.771V350.773V350.775V350.777V350.778V350.78V350.782V350.784V350.786V350.787V350.789V350.791V350.793V350.794V350.796V350.798V350.8V350.801V350.803V350.805V350.807V350.808V350.81V350.812V350.814V350.815V350.817V350.819V350.821V350.822V350.824V350.826V350.828V350.829V350.831V350.833V350.835V350.837V350.838V350.84V350.842V350.844V350.845V350.847V350.849V350.851V350.852V350.854V350.856V350.858V350.859V350.861V350.863V350.865V350.866V350.868V350.87V350.872V350.873V350.875V350.877V350.879V350.88V350.882V350.884V350.886V350.887V350.889V350.891V350.893V350.895V350.896V350.898V350.9V350.902V350.903V350.905V350.907V350.909V350.91V350.912V350.914V350.916V350.917V350.919V350.921V350.923V350.924V350.926V350.928V350.93V350.931V350.933V350.935V350.937V350.938V350.94V350.942V350.944V350.945V350.947V350.949V350.951V350.953V350.954V350.956V350.958V350.96V350.961V350.963V350.965V350.967V350.968V350.97V350.972V350.974V350.975V350.977V350.979V350.981V350.982V350.984V350.986V350.988V350.989V350.991V350.993V350.995V350.996V350.998V351V427.395C325.003 437.215 316.735 445.092 306.915 444.8L306.91 444.8C297.38 444.606 289.697 436.924 289.5 427.395V351Z" fill="#E6EAF6" stroke="black"/>
<path d="M403.8 161.1L250.1 249.9L96.4 161.1" stroke="#E6EAF6" stroke-width="2" stroke-miterlimit="10"/>
<path d="M268 72.4C268 82.2859 259.986 90.3 250.1 90.3C240.214 90.3 232.2 82.2859 232.2 72.4C232.2 62.5141 240.214 54.5 250.1 54.5C259.986 54.5 268 62.5141 268 72.4Z" fill="#E6EAF6" stroke="black"/>
<path d="M114.3 161.1C114.3 170.986 106.286 179 96.4 179C86.5141 179 78.5 170.986 78.5 161.1C78.5 151.214 86.5141 143.2 96.4 143.2C106.286 143.2 114.3 151.214 114.3 161.1Z" fill="#E6EAF6" stroke="black"/>
<path d="M421.7 161.1C421.7 170.986 413.686 179 403.8 179C393.914 179 385.9 170.986 385.9 161.1C385.9 151.214 393.914 143.2 403.8 143.2C413.686 143.2 421.7 151.214 421.7 161.1Z" fill="#E6EAF6" stroke="black"/>
<path d="M338.9 96.2L250.1 249.9L161.3 96.2" stroke="#E6EAF6" stroke-width="2" stroke-miterlimit="10"/>
<path d="M179.2 96.2001C179.2 106.086 171.186 114.1 161.3 114.1C151.414 114.1 143.4 106.086 143.4 96.2001C143.4 86.3142 151.414 78.3 161.3 78.3C171.186 78.3 179.2 86.3142 179.2 96.2001Z" fill="#E6EAF6" stroke="black"/>
<path d="M347.86 80.6582C356.421 85.6012 359.354 96.5485 354.411 105.11C349.468 113.671 338.521 116.604 329.96 111.661C321.398 106.718 318.465 95.7708 323.408 87.2096C328.351 78.6485 339.298 75.7153 347.86 80.6582Z" fill="#E6EAF6" stroke="black"/>
<path d="M194 288.3V211.9C194 201.976 201.976 194 211.9 194H288.3C298.224 194 306.2 201.976 306.2 211.9V288.3C306.2 298.224 298.224 306.2 288.3 306.2H211.9C201.976 306.2 194 298.224 194 288.3Z" fill="#E6007A" stroke="black"/>
<path d="M240.6 222.7H259.7C269.624 222.7 277.6 230.676 277.6 240.6V259.7C277.6 269.624 269.624 277.6 259.7 277.6H240.6C230.676 277.6 222.7 269.624 222.7 259.7V240.6C222.7 230.676 230.676 222.7 240.6 222.7Z" fill="white" stroke="black"/>
</svg>
