<svg width="500" height="500" viewBox="0 0 500 500" fill="none" xmlns="http://www.w3.org/2000/svg">
<path d="M390.1 109.3L250 187.1L109.9 109.3L168.8 49.9999L250 28.3999L331.2 49.9999L390.1 109.3ZM390.1 109.3L301.6 320H198.4L109.9 109.3" stroke="#E6EAF6" stroke-width="2" stroke-miterlimit="10"/>
<path d="M234.6 287C234.6 278.476 241.476 271.6 250 271.6C258.426 271.6 265.4 278.478 265.4 287V353C265.4 361.524 258.524 368.4 250 368.4C241.574 368.4 234.6 361.522 234.6 353V287Z" fill="#E6EAF6" stroke="black"/>
<path d="M286.2 287C286.2 278.476 293.076 271.6 301.6 271.6C310.026 271.6 317 278.478 317 287V353C317 361.524 310.124 368.4 301.6 368.4C293.174 368.4 286.2 361.522 286.2 353V287Z" fill="#E6EAF6" stroke="black"/>
<path d="M183 287C183 278.476 189.876 271.6 198.4 271.6C206.826 271.6 213.8 278.478 213.8 287V353C213.8 361.524 206.924 368.4 198.4 368.4C189.974 368.4 183 361.522 183 353V287Z" fill="#E6EAF6" stroke="black"/>
<path d="M331.2 50L250 187.1L168.8 50" stroke="#E6EAF6" stroke-width="2" stroke-miterlimit="10"/>
<path d="M185.2 49.9999C185.2 58.8917 177.992 66.0999 169.1 66.0999C160.208 66.0999 153 58.8917 153 49.9999C153 41.1081 160.208 33.8999 169.1 33.8999C177.992 33.8999 185.2 41.1081 185.2 49.9999Z" fill="#E6EAF6" stroke="black"/>
<path d="M126 109.3C126 118.192 118.792 125.4 109.9 125.4C101.008 125.4 93.8 118.192 93.8 109.3C93.8 100.408 101.008 93.2 109.9 93.2C118.792 93.2 126 100.408 126 109.3Z" fill="#E6EAF6" stroke="black"/>
<path d="M406.2 109.3C406.2 118.192 398.992 125.4 390.1 125.4C381.208 125.4 374 118.192 374 109.3C374 100.408 381.208 93.2 390.1 93.2C398.992 93.2 406.2 100.408 406.2 109.3Z" fill="#E6EAF6" stroke="black"/>
<path d="M347 49.9999C347 58.8917 339.792 66.0999 330.9 66.0999C322.008 66.0999 314.8 58.8917 314.8 49.9999C314.8 41.1081 322.008 33.8999 330.9 33.8999C339.792 33.8999 347 41.1081 347 49.9999Z" fill="#E6EAF6" stroke="black"/>
<path d="M250 28.3999V440.4" stroke="#E6EAF6" stroke-width="2" stroke-miterlimit="10"/>
<mask id="path-11-inside-1_115_1242" fill="white">
<path fill-rule="evenodd" clip-rule="evenodd" d="M217 138.1C208.2 138.1 201.1 145.2 201.1 154V220C201.1 220.017 201.1 220.034 201.1 220.05C201.1 220.067 201.1 220.084 201.1 220.1C201.1 228.9 208.2 236 217 236H283C291.8 236 298.9 228.8 298.9 220.1C298.9 220.084 298.9 220.067 298.9 220.05C298.9 220.033 298.9 220.017 298.9 220V154C298.9 145.2 291.8 138.1 283 138.1H217ZM267.1 204.2V169.9H232.9V204.2H267.1Z"/>
</mask>
<path fill-rule="evenodd" clip-rule="evenodd" d="M217 138.1C208.2 138.1 201.1 145.2 201.1 154V220C201.1 220.017 201.1 220.034 201.1 220.05C201.1 220.067 201.1 220.084 201.1 220.1C201.1 228.9 208.2 236 217 236H283C291.8 236 298.9 228.8 298.9 220.1C298.9 220.084 298.9 220.067 298.9 220.05C298.9 220.033 298.9 220.017 298.9 220V154C298.9 145.2 291.8 138.1 283 138.1H217ZM267.1 204.2V169.9H232.9V204.2H267.1Z" fill="#E6EAF6"/>
<path d="M201.1 220.05L202.1 220.053L202.1 220.047L201.1 220.05ZM298.9 220.05L297.9 220.047L297.9 220.053L298.9 220.05ZM267.1 204.2V205.2H268.1V204.2H267.1ZM267.1 169.9H268.1V168.9H267.1V169.9ZM232.9 169.9V168.9H231.9V169.9H232.9ZM232.9 204.2H231.9V205.2H232.9V204.2ZM202.1 154C202.1 145.752 208.752 139.1 217 139.1V137.1C207.648 137.1 200.1 144.648 200.1 154H202.1ZM202.1 220V154H200.1V220H202.1ZM202.1 220.047C202.1 220.031 202.1 220.016 202.1 220H200.1C200.1 220.018 200.1 220.036 200.1 220.053L202.1 220.047ZM202.1 220.1C202.1 220.085 202.1 220.069 202.1 220.053L200.1 220.047C200.1 220.065 200.1 220.083 200.1 220.1H202.1ZM217 235C208.752 235 202.1 228.348 202.1 220.1H200.1C200.1 229.452 207.648 237 217 237V235ZM283 235H217V237H283V235ZM297.9 220.1C297.9 228.252 291.244 235 283 235V237C292.356 237 299.9 229.348 299.9 220.1H297.9ZM297.9 220.053C297.9 220.069 297.9 220.084 297.9 220.1H299.9C299.9 220.083 299.9 220.065 299.9 220.047L297.9 220.053ZM297.9 220C297.9 220.016 297.9 220.031 297.9 220.047L299.9 220.053C299.9 220.035 299.9 220.018 299.9 220H297.9ZM297.9 154V220H299.9V154H297.9ZM283 139.1C291.248 139.1 297.9 145.752 297.9 154H299.9C299.9 144.648 292.352 137.1 283 137.1V139.1ZM217 139.1H283V137.1H217V139.1ZM268.1 204.2V169.9H266.1V204.2H268.1ZM267.1 168.9H232.9V170.9H267.1V168.9ZM231.9 169.9V204.2H233.9V169.9H231.9ZM232.9 205.2H267.1V203.2H232.9V205.2Z" fill="black" mask="url(#path-11-inside-1_115_1242)"/>
<path d="M241.9 163.7H258.2C266.624 163.7 273.4 170.476 273.4 178.9V195.2C273.4 203.624 266.624 210.4 258.2 210.4H241.9C233.476 210.4 226.7 203.624 226.7 195.2V178.9C226.7 170.476 233.476 163.7 241.9 163.7Z" fill="white" stroke="black"/>
<path d="M266.1 28.4001C266.1 37.2918 258.892 44.5 250 44.5C241.108 44.5 233.9 37.2918 233.9 28.4001C233.9 19.5083 241.108 12.3 250 12.3C258.892 12.3 266.1 19.5083 266.1 28.4001Z" fill="#E6EAF6" stroke="black"/>
<path d="M0.5 487.5V393.3H499.5V487.5H0.5Z" fill="#E6007A" stroke="black"/>
<path d="M241.9 417H258.2C266.624 417 273.4 423.776 273.4 432.2V448.5C273.4 456.924 266.624 463.7 258.2 463.7H241.9C233.476 463.7 226.7 456.924 226.7 448.5V432.2C226.7 423.776 233.476 417 241.9 417Z" fill="white" stroke="black"/>
<path d="M101.7 417H118C126.424 417 133.2 423.776 133.2 432.2V448.5C133.2 456.924 126.424 463.7 118 463.7H101.7C93.2761 463.7 86.5 456.924 86.5 448.5V432.203C86.5984 423.773 93.3802 417 101.7 417Z" fill="white" stroke="black"/>
<path d="M382 417H398.3C406.724 417 413.5 423.776 413.5 432.2V448.5C413.5 456.924 406.724 463.7 398.3 463.7H382C373.576 463.7 366.8 456.924 366.8 448.5V432.2C366.8 423.776 373.576 417 382 417Z" fill="white" stroke="black"/>
</svg>
