<svg width="116" height="116" viewBox="0 0 116 116" fill="none" xmlns="http://www.w3.org/2000/svg">
<g clip-path="url(#clip0_115_2107)">
<path d="M57.8699 24.1705C64.6188 24.1705 70.0899 18.6994 70.0899 11.9505C70.0899 5.20155 64.6188 -0.269531 57.8699 -0.269531C51.121 -0.269531 45.6499 5.20155 45.6499 11.9505C45.6499 18.6994 51.121 24.1705 57.8699 24.1705Z" fill="#321D47"/>
<path d="M57.8699 33.4399C62.984 33.4399 67.1299 29.2941 67.1299 24.1799C67.1299 19.0658 62.984 14.9199 57.8699 14.9199C52.7557 14.9199 48.6099 19.0658 48.6099 24.1799C48.6099 29.2941 52.7557 33.4399 57.8699 33.4399Z" fill="#E6007A"/>
<path d="M57.87 13.6102C60.1234 13.6102 61.95 11.7835 61.95 9.5302C61.95 7.27687 60.1234 5.4502 57.87 5.4502C55.6167 5.4502 53.79 7.27687 53.79 9.5302C53.79 11.7835 55.6167 13.6102 57.87 13.6102Z" fill="#E6007A"/>
<circle cx="58" cy="12" r="11.5" stroke="black"/>
</g>
<g clip-path="url(#clip1_115_2107)">
<path d="M96.8699 47.1705C103.619 47.1705 109.09 41.6994 109.09 34.9505C109.09 28.2016 103.619 22.7305 96.8699 22.7305C90.121 22.7305 84.6499 28.2016 84.6499 34.9505C84.6499 41.6994 90.121 47.1705 96.8699 47.1705Z" fill="#321D47"/>
<path d="M96.8699 56.4399C101.984 56.4399 106.13 52.2941 106.13 47.1799C106.13 42.0658 101.984 37.9199 96.8699 37.9199C91.7557 37.9199 87.6099 42.0658 87.6099 47.1799C87.6099 52.2941 91.7557 56.4399 96.8699 56.4399Z" fill="#E6007A"/>
<path d="M96.87 36.6102C99.1234 36.6102 100.95 34.7835 100.95 32.5302C100.95 30.2769 99.1234 28.4502 96.87 28.4502C94.6167 28.4502 92.79 30.2769 92.79 32.5302C92.79 34.7835 94.6167 36.6102 96.87 36.6102Z" fill="#E6007A"/>
<circle cx="97" cy="35" r="11.5" stroke="black"/>
</g>
<g clip-path="url(#clip2_115_2107)">
<path d="M96.8699 93.1705C103.619 93.1705 109.09 87.6994 109.09 80.9505C109.09 74.2016 103.619 68.7305 96.8699 68.7305C90.121 68.7305 84.6499 74.2016 84.6499 80.9505C84.6499 87.6994 90.121 93.1705 96.8699 93.1705Z" fill="#321D47"/>
<path d="M96.8699 102.44C101.984 102.44 106.13 98.2941 106.13 93.1799C106.13 88.0658 101.984 83.9199 96.8699 83.9199C91.7557 83.9199 87.6099 88.0658 87.6099 93.1799C87.6099 98.2941 91.7557 102.44 96.8699 102.44Z" fill="#E6007A"/>
<path d="M96.87 82.6102C99.1234 82.6102 100.95 80.7835 100.95 78.5302C100.95 76.2769 99.1234 74.4502 96.87 74.4502C94.6167 74.4502 92.79 76.2769 92.79 78.5302C92.79 80.7835 94.6167 82.6102 96.87 82.6102Z" fill="#E6007A"/>
<circle cx="97" cy="81" r="11.5" stroke="black"/>
</g>
<g clip-path="url(#clip3_115_2107)">
<path d="M17.8699 93.1705C24.6188 93.1705 30.0899 87.6994 30.0899 80.9505C30.0899 74.2016 24.6188 68.7305 17.8699 68.7305C11.121 68.7305 5.6499 74.2016 5.6499 80.9505C5.6499 87.6994 11.121 93.1705 17.8699 93.1705Z" fill="#321D47"/>
<path d="M17.8699 102.44C22.984 102.44 27.1299 98.2941 27.1299 93.1799C27.1299 88.0658 22.984 83.9199 17.8699 83.9199C12.7557 83.9199 8.60986 88.0658 8.60986 93.1799C8.60986 98.2941 12.7557 102.44 17.8699 102.44Z" fill="#E6007A"/>
<path d="M17.87 82.6102C20.1234 82.6102 21.95 80.7835 21.95 78.5302C21.95 76.2769 20.1234 74.4502 17.87 74.4502C15.6167 74.4502 13.79 76.2769 13.79 78.5302C13.79 80.7835 15.6167 82.6102 17.87 82.6102Z" fill="#E6007A"/>
<circle cx="18" cy="81" r="11.5" stroke="black"/>
</g>
<g clip-path="url(#clip4_115_2107)">
<path d="M57.8699 116.17C64.6188 116.17 70.0899 110.699 70.0899 103.95C70.0899 97.2016 64.6188 91.7305 57.8699 91.7305C51.121 91.7305 45.6499 97.2016 45.6499 103.95C45.6499 110.699 51.121 116.17 57.8699 116.17Z" fill="#321D47"/>
<path d="M57.8699 125.44C62.984 125.44 67.1299 121.294 67.1299 116.18C67.1299 111.066 62.984 106.92 57.8699 106.92C52.7557 106.92 48.6099 111.066 48.6099 116.18C48.6099 121.294 52.7557 125.44 57.8699 125.44Z" fill="#E6007A"/>
<path d="M57.87 105.61C60.1234 105.61 61.95 103.784 61.95 101.53C61.95 99.2769 60.1234 97.4502 57.87 97.4502C55.6167 97.4502 53.79 99.2769 53.79 101.53C53.79 103.784 55.6167 105.61 57.87 105.61Z" fill="#E6007A"/>
<circle cx="58" cy="104" r="11.5" stroke="black"/>
</g>
<g clip-path="url(#clip5_115_2107)">
<path d="M18.0999 47.1304C24.8488 47.1304 30.3199 41.6594 30.3199 34.9104C30.3199 28.1615 24.8488 22.6904 18.0999 22.6904C11.351 22.6904 5.87988 28.1615 5.87988 34.9104C5.87988 41.6594 11.351 47.1304 18.0999 47.1304Z" fill="#321D47"/>
<path d="M18.0998 56.3901C23.214 56.3901 27.3598 52.2443 27.3598 47.1301C27.3598 42.016 23.214 37.8701 18.0998 37.8701C12.9857 37.8701 8.83984 42.016 8.83984 47.1301C8.83984 52.2443 12.9857 56.3901 18.0998 56.3901Z" fill="#E6007A"/>
<path d="M18.1 36.5604C20.3533 36.5604 22.18 34.7337 22.18 32.4804C22.18 30.2271 20.3533 28.4004 18.1 28.4004C15.8467 28.4004 14.02 30.2271 14.02 32.4804C14.02 34.7337 15.8467 36.5604 18.1 36.5604Z" fill="#E6007A"/>
<circle cx="18" cy="35" r="11.5" stroke="black"/>
</g>
<defs>
<clipPath id="clip0_115_2107">
<rect x="46" width="24" height="24" rx="12" fill="white"/>
</clipPath>
<clipPath id="clip1_115_2107">
<rect x="85" y="23" width="24" height="24" rx="12" fill="white"/>
</clipPath>
<clipPath id="clip2_115_2107">
<rect x="85" y="69" width="24" height="24" rx="12" fill="white"/>
</clipPath>
<clipPath id="clip3_115_2107">
<rect x="6" y="69" width="24" height="24" rx="12" fill="white"/>
</clipPath>
<clipPath id="clip4_115_2107">
<rect x="46" y="92" width="24" height="24" rx="12" fill="white"/>
</clipPath>
<clipPath id="clip5_115_2107">
<rect x="6" y="23" width="24" height="24" rx="12" fill="white"/>
</clipPath>
</defs>
</svg>
