<svg width="500" height="500" viewBox="0 0 500 500" fill="none" xmlns="http://www.w3.org/2000/svg">
<path d="M78.1 173.9L99.8 273.2L192.7 173.9" stroke="#E6EAF6" stroke-width="2" stroke-miterlimit="10"/>
<path d="M135.4 173.9L188.1 273.2L364.6 173.9" stroke="#E6EAF6" stroke-width="2" stroke-miterlimit="10"/>
<path d="M276.5 273.2L250 173.9" stroke="#E6EAF6" stroke-width="2" stroke-miterlimit="10"/>
<path d="M307.3 173.9L364.6 273.2L422.6 173.9" stroke="#E6EAF6" stroke-width="2" stroke-miterlimit="10"/>
<path d="M174.8 99.1002C174.8 89.1763 182.776 81.2002 192.7 81.2002C202.624 81.2002 210.6 89.1763 210.6 99.1002V175.5C210.6 185.424 202.624 193.4 192.7 193.4C182.874 193.4 174.8 185.422 174.8 175.5V99.1002Z" fill="#E6EAF6" stroke="black"/>
<path d="M232.1 99.1002C232.1 89.1763 240.076 81.2002 250 81.2002C259.924 81.2002 267.9 89.1763 267.9 99.1002V175.5C267.9 185.424 259.924 193.4 250 193.4C240.174 193.4 232.1 185.422 232.1 175.5V99.1002Z" fill="#E6EAF6" stroke="black"/>
<path d="M289.4 99.1001H289.4L289.4 99.0902C289.205 89.2601 296.992 80.9944 306.81 80.8C316.638 80.6053 324.903 88.3895 325.1 98.205V98.2053V98.2071V98.2088V98.2106V98.2124V98.2141V98.2159V98.2176V98.2194V98.2211V98.2229V98.2247V98.2264V98.2282V98.2299V98.2317V98.2334V98.2352V98.237V98.2387V98.2405V98.2422V98.244V98.2458V98.2475V98.2493V98.251V98.2528V98.2545V98.2563V98.2581V98.2598V98.2616V98.2633V98.2651V98.2668V98.2686V98.2704V98.2721V98.2739V98.2756V98.2774V98.2792V98.2809V98.2827V98.2844V98.2862V98.2879V98.2897V98.2915V98.2932V98.295V98.2967V98.2985V98.3002V98.302V98.3038V98.3055V98.3073V98.309V98.3108V98.3125V98.3143V98.3161V98.3178V98.3196V98.3213V98.3231V98.3249V98.3266V98.3284V98.3301V98.3319V98.3336V98.3354V98.3372V98.3389V98.3407V98.3424V98.3442V98.3459V98.3477V98.3495V98.3512V98.353V98.3547V98.3565V98.3583V98.36V98.3618V98.3635V98.3653V98.367V98.3688V98.3706V98.3723V98.3741V98.3758V98.3776V98.3793V98.3811V98.3829V98.3846V98.3864V98.3881V98.3899V98.3917V98.3934V98.3952V98.3969V98.3987V98.4004V98.4022V98.404V98.4057V98.4075V98.4092V98.411V98.4127V98.4145V98.4163V98.418V98.4198V98.4215V98.4233V98.4251V98.4268V98.4286V98.4303V98.4321V98.4338V98.4356V98.4374V98.4391V98.4409V98.4426V98.4444V98.4461V98.4479V98.4497V98.4514V98.4532V98.4549V98.4567V98.4584V98.4602V98.462V98.4637V98.4655V98.4672V98.469V98.4708V98.4725V98.4743V98.476V98.4778V98.4795V98.4813V98.4831V98.4848V98.4866V98.4883V98.4901V98.4918V98.4936V98.4954V98.4971V98.4989V98.5006V98.5024V98.5042V98.5059V98.5077V98.5094V98.5112V98.5129V98.5147V98.5165V98.5182V98.52V98.5217V98.5235V98.5252V98.527V98.5288V98.5305V98.5323V98.534V98.5358V98.5375V98.5393V98.5411V98.5428V98.5446V98.5463V98.5481V98.5499V98.5516V98.5534V98.5551V98.5569V98.5586V98.5604V98.5622V98.5639V98.5657V98.5674V98.5692V98.5709V98.5727V98.5745V98.5762V98.578V98.5797V98.5815V98.5833V98.585V98.5868V98.5885V98.5903V98.592V98.5938V98.5956V98.5973V98.5991V98.6008V98.6026V98.6043V98.6061V98.6079V98.6096V98.6114V98.6131V98.6149V98.6167V98.6184V98.6202V98.6219V98.6237V98.6254V98.6272V98.629V98.6307V98.6325V98.6342V98.636V98.6377V98.6395V98.6413V98.643V98.6448V98.6465V98.6483V98.6501V98.6518V98.6536V98.6553V98.6571V98.6588V98.6606V98.6624V98.6641V98.6659V98.6676V98.6694V98.6711V98.6729V98.6747V98.6764V98.6782V98.6799V98.6817V98.6834V98.6852V98.687V98.6887V98.6905V98.6922V98.694V98.6958V98.6975V98.6993V98.701V98.7028V98.7045V98.7063V98.7081V98.7098V98.7116V98.7133V98.7151V98.7168V98.7186V98.7204V98.7221V98.7239V98.7256V98.7274V98.7292V98.7309V98.7327V98.7344V98.7362V98.7379V98.7397V98.7415V98.7432V98.745V98.7467V98.7485V98.7502V98.752V98.7538V98.7555V98.7573V98.759V98.7608V98.7626V98.7643V98.7661V98.7678V98.7696V98.7713V98.7731V98.7749V98.7766V98.7784V98.7801V98.7819V98.7836V98.7854V98.7872V98.7889V98.7907V98.7924V98.7942V98.7959V98.7977V98.7995V98.8012V98.803V98.8047V98.8065V98.8083V98.81V98.8118V98.8135V98.8153V98.817V98.8188V98.8206V98.8223V98.8241V98.8258V98.8276V98.8293V98.8311V98.8329V98.8346V98.8364V98.8381V98.8399V98.8417V98.8434V98.8452V98.8469V98.8487V98.8504V98.8522V98.854V98.8557V98.8575V98.8592V98.861V98.8627V98.8645V98.8663V98.868V98.8698V98.8715V98.8733V98.8751V98.8768V98.8786V98.8803V98.8821V98.8838V98.8856V98.8874V98.8891V98.8909V98.8926V98.8944V98.8961V98.8979V98.8997V98.9014V98.9032V98.9049V98.9067V98.9085V98.9102V98.912V98.9137V98.9155V98.9172V98.919V98.9208V98.9225V98.9243V98.926V98.9278V98.9295V98.9313V98.9331V98.9348V98.9366V98.9383V98.9401V98.9418V98.9436V98.9454V98.9471V98.9489V98.9506V98.9524V98.9542V98.9559V98.9577V98.9594V98.9612V98.9629V98.9647V98.9665V98.9682V98.97V98.9717V98.9735V98.9752V98.977V98.9788V98.9805V98.9823V98.984V98.9858V98.9876V98.9893V98.9911V98.9928V98.9946V98.9963V98.9981V98.9999V99.0016V99.0034V99.0051V99.0069V99.0086V99.0104V99.0122V99.0139V99.0157V99.0174V99.0192V99.021V99.0227V99.0245V99.0262V99.028V99.0297V99.0315V99.0333V99.035V99.0368V99.0385V99.0403V99.042V99.0438V99.0456V99.0473V99.0491V99.0508V99.0526V99.0543V99.0561V99.0579V99.0596V99.0614V99.0631V99.0649V99.0667V99.0684V99.0702V99.0719V99.0737V99.0754V99.0772V99.079V99.0807V99.0825V99.0842V99.086V99.0877V99.0895V99.0913V99.093V99.0948V99.0965V99.0983V99.1001L325.1 175.5L325.1 175.51C325.295 185.34 317.508 193.606 307.69 193.8C297.862 193.995 289.597 186.211 289.4 176.395V176.395V176.393V176.391V176.39V176.388V176.386V176.384V176.382V176.381V176.379V176.377V176.375V176.374V176.372V176.37V176.368V176.367V176.365V176.363V176.361V176.36V176.358V176.356V176.354V176.353V176.351V176.349V176.347V176.346V176.344V176.342V176.34V176.339V176.337V176.335V176.333V176.331V176.33V176.328V176.326V176.324V176.323V176.321V176.319V176.317V176.316V176.314V176.312V176.31V176.309V176.307V176.305V176.303V176.302V176.3V176.298V176.296V176.295V176.293V176.291V176.289V176.288V176.286V176.284V176.282V176.281V176.279V176.277V176.275V176.273V176.272V176.27V176.268V176.266V176.265V176.263V176.261V176.259V176.258V176.256V176.254V176.252V176.251V176.249V176.247V176.245V176.244V176.242V176.24V176.238V176.237V176.235V176.233V176.231V176.23V176.228V176.226V176.224V176.223V176.221V176.219V176.217V176.215V176.214V176.212V176.21V176.208V176.207V176.205V176.203V176.201V176.2V176.198V176.196V176.194V176.193V176.191V176.189V176.187V176.186V176.184V176.182V176.18V176.179V176.177V176.175V176.173V176.172V176.17V176.168V176.166V176.164V176.163V176.161V176.159V176.157V176.156V176.154V176.152V176.15V176.149V176.147V176.145V176.143V176.142V176.14V176.138V176.136V176.135V176.133V176.131V176.129V176.128V176.126V176.124V176.122V176.121V176.119V176.117V176.115V176.114V176.112V176.11V176.108V176.106V176.105V176.103V176.101V176.099V176.098V176.096V176.094V176.092V176.091V176.089V176.087V176.085V176.084V176.082V176.08V176.078V176.077V176.075V176.073V176.071V176.07V176.068V176.066V176.064V176.063V176.061V176.059V176.057V176.056V176.054V176.052V176.05V176.048V176.047V176.045V176.043V176.041V176.04V176.038V176.036V176.034V176.033V176.031V176.029V176.027V176.026V176.024V176.022V176.02V176.019V176.017V176.015V176.013V176.012V176.01V176.008V176.006V176.005V176.003V176.001V175.999V175.998V175.996V175.994V175.992V175.99V175.989V175.987V175.985V175.983V175.982V175.98V175.978V175.976V175.975V175.973V175.971V175.969V175.968V175.966V175.964V175.962V175.961V175.959V175.957V175.955V175.954V175.952V175.95V175.948V175.947V175.945V175.943V175.941V175.94V175.938V175.936V175.934V175.932V175.931V175.929V175.927V175.925V175.924V175.922V175.92V175.918V175.917V175.915V175.913V175.911V175.91V175.908V175.906V175.904V175.903V175.901V175.899V175.897V175.896V175.894V175.892V175.89V175.889V175.887V175.885V175.883V175.882V175.88V175.878V175.876V175.874V175.873V175.871V175.869V175.867V175.866V175.864V175.862V175.86V175.859V175.857V175.855V175.853V175.852V175.85V175.848V175.846V175.845V175.843V175.841V175.839V175.838V175.836V175.834V175.832V175.831V175.829V175.827V175.825V175.823V175.822V175.82V175.818V175.816V175.815V175.813V175.811V175.809V175.808V175.806V175.804V175.802V175.801V175.799V175.797V175.795V175.794V175.792V175.79V175.788V175.787V175.785V175.783V175.781V175.78V175.778V175.776V175.774V175.773V175.771V175.769V175.767V175.765V175.764V175.762V175.76V175.758V175.757V175.755V175.753V175.751V175.75V175.748V175.746V175.744V175.743V175.741V175.739V175.737V175.736V175.734V175.732V175.73V175.729V175.727V175.725V175.723V175.722V175.72V175.718V175.716V175.715V175.713V175.711V175.709V175.707V175.706V175.704V175.702V175.7V175.699V175.697V175.695V175.693V175.692V175.69V175.688V175.686V175.685V175.683V175.681V175.679V175.678V175.676V175.674V175.672V175.671V175.669V175.667V175.665V175.664V175.662V175.66V175.658V175.657V175.655V175.653V175.651V175.649V175.648V175.646V175.644V175.642V175.641V175.639V175.637V175.635V175.634V175.632V175.63V175.628V175.627V175.625V175.623V175.621V175.62V175.618V175.616V175.614V175.613V175.611V175.609V175.607V175.606V175.604V175.602V175.6V175.598V175.597V175.595V175.593V175.591V175.59V175.588V175.586V175.584V175.583V175.581V175.579V175.577V175.576V175.574V175.572V175.57V175.569V175.567V175.565V175.563V175.562V175.56V175.558V175.556V175.555V175.553V175.551V175.549V175.548V175.546V175.544V175.542V175.54V175.539V175.537V175.535V175.533V175.532V175.53V175.528V175.526V175.525V175.523V175.521V175.519V175.518V175.516V175.514V175.512V175.511V175.509V175.507V175.505V175.504V175.502V175.5V99.1001Z" fill="#E6EAF6" stroke="black"/>
<path d="M60.2 99.1002C60.2 89.1763 68.1761 81.2002 78.0999 81.2002C87.9256 81.2002 96 89.1781 96 99.1002V175.5C96 185.424 88.0238 193.4 78.0999 193.4C68.2743 193.4 60.2 185.422 60.2 175.5V99.1002Z" fill="#E6EAF6" stroke="black"/>
<path d="M117.5 99.1002C117.5 89.1763 125.476 81.2002 135.4 81.2002C145.324 81.2002 153.3 89.1763 153.3 99.1002V175.5C153.3 185.424 145.324 193.4 135.4 193.4C125.476 193.4 117.5 185.424 117.5 175.5V99.1002Z" fill="#E6EAF6" stroke="black"/>
<path d="M404 99.1002C404 89.1763 411.976 81.2002 421.9 81.2002C431.824 81.2002 439.8 89.1763 439.8 99.1002V175.5C439.8 185.424 431.824 193.4 421.9 193.4C411.976 193.4 404 185.424 404 175.5V99.1002Z" fill="#E6EAF6" stroke="black"/>
<path d="M346.7 99.1002C346.7 89.1763 354.676 81.2002 364.6 81.2002C374.522 81.2002 382.5 89.2746 382.5 99.1002V175.5C382.5 185.424 374.524 193.4 364.6 193.4C354.676 193.4 346.7 185.424 346.7 175.5V99.1002Z" fill="#E6EAF6" stroke="black"/>
<path d="M64.5664 269.006C66.8846 269.083 68.7013 271.025 68.6241 273.343C68.5469 275.661 66.6051 277.478 64.2869 277.401C61.9687 277.324 60.152 275.382 60.2292 273.064C60.3064 270.745 62.2482 268.929 64.5664 269.006Z" fill="#E6007A" stroke="black"/>
<path d="M86.3 273.2C86.3 275.52 84.4196 277.4 82.1 277.4C79.7804 277.4 77.9 275.52 77.9 273.2C77.9 270.88 79.7804 269 82.1 269C84.4196 269 86.3 270.88 86.3 273.2Z" fill="#E6007A" stroke="black"/>
<path d="M104 273.2C104 275.52 102.12 277.4 99.8 277.4C97.4804 277.4 95.6 275.52 95.6 273.2C95.6 270.88 97.4804 269 99.8 269C102.12 269 104 270.88 104 273.2Z" fill="#E6007A" stroke="black"/>
<path d="M121.6 273.2C121.6 275.52 119.72 277.4 117.4 277.4C115.08 277.4 113.2 275.52 113.2 273.2C113.2 270.88 115.08 269 117.4 269C119.72 269 121.6 270.88 121.6 273.2Z" fill="#E6007A" stroke="black"/>
<path d="M139.3 273.2C139.3 275.52 137.42 277.4 135.1 277.4C132.78 277.4 130.9 275.52 130.9 273.2C130.9 270.88 132.78 269 135.1 269C137.42 269 139.3 270.88 139.3 273.2Z" fill="#E6007A" stroke="black"/>
<path d="M174.7 273.2C174.7 275.52 172.82 277.4 170.5 277.4C168.18 277.4 166.3 275.52 166.3 273.2C166.3 270.88 168.18 269 170.5 269C172.82 269 174.7 270.88 174.7 273.2Z" fill="#E6007A" stroke="black"/>
<path d="M192.3 273.2C192.3 275.52 190.42 277.4 188.1 277.4C185.78 277.4 183.9 275.52 183.9 273.2C183.9 270.88 185.78 269 188.1 269C190.42 269 192.3 270.88 192.3 273.2Z" fill="#E6007A" stroke="black"/>
<path d="M210 273.2C210 275.52 208.12 277.4 205.8 277.4C203.48 277.4 201.6 275.52 201.6 273.2C201.6 270.88 203.48 269 205.8 269C208.12 269 210 270.88 210 273.2Z" fill="#E6007A" stroke="black"/>
<path d="M245.3 273.2C245.3 275.52 243.42 277.4 241.1 277.4C238.78 277.4 236.9 275.52 236.9 273.2C236.9 270.88 238.78 269 241.1 269C243.42 269 245.3 270.88 245.3 273.2Z" fill="#E6007A" stroke="black"/>
<path d="M263 273.2C263 275.52 261.12 277.4 258.8 277.4C256.48 277.4 254.6 275.52 254.6 273.2C254.6 270.88 256.48 269 258.8 269C261.12 269 263 270.88 263 273.2Z" fill="#E6007A" stroke="black"/>
<path d="M280.7 273.2C280.7 275.52 278.82 277.4 276.5 277.4C274.18 277.4 272.3 275.52 272.3 273.2C272.3 270.88 274.18 269 276.5 269C278.82 269 280.7 270.88 280.7 273.2Z" fill="#E6007A" stroke="black"/>
<path d="M298.4 273.2C298.4 275.52 296.52 277.4 294.2 277.4C291.88 277.4 290 275.52 290 273.2C290 270.88 291.88 269 294.2 269C296.52 269 298.4 270.88 298.4 273.2Z" fill="#E6007A" stroke="black"/>
<path d="M316.1 273.2C316.1 275.52 314.22 277.4 311.9 277.4C309.58 277.4 307.7 275.52 307.7 273.2C307.7 270.88 309.58 269 311.9 269C314.22 269 316.1 270.88 316.1 273.2Z" fill="#E6007A" stroke="black"/>
<path d="M351.4 273.2C351.4 275.52 349.52 277.4 347.2 277.4C344.88 277.4 343 275.52 343 273.2C343 270.88 344.88 269 347.2 269C349.52 269 351.4 270.88 351.4 273.2Z" fill="#E6007A" stroke="black"/>
<path d="M369.1 273.2C369.1 275.52 367.22 277.4 364.9 277.4C362.58 277.4 360.7 275.52 360.7 273.2C360.7 270.88 362.58 269 364.9 269C367.22 269 369.1 270.88 369.1 273.2Z" fill="#E6007A" stroke="black"/>
<path d="M404.4 273.2C404.4 275.52 402.52 277.4 400.2 277.4C397.88 277.4 396 275.52 396 273.2C396 270.88 397.88 269 400.2 269C402.52 269 404.4 270.88 404.4 273.2Z" fill="#E6007A" stroke="black"/>
<path d="M422.1 273.2C422.1 275.52 420.22 277.4 417.9 277.4C415.58 277.4 413.7 275.52 413.7 273.2C413.7 270.88 415.58 269 417.9 269C420.22 269 422.1 270.88 422.1 273.2Z" fill="#E6007A" stroke="black"/>
<path d="M439.8 273.2C439.8 275.52 437.92 277.4 435.6 277.4C433.28 277.4 431.4 275.52 431.4 273.2C431.4 270.88 433.28 269 435.6 269C437.92 269 439.8 270.88 439.8 273.2Z" fill="#E6007A" stroke="black"/>
<path d="M64.5956 286.677C66.9138 286.754 68.7305 288.696 68.6534 291.015C68.5762 293.333 66.6343 295.149 64.3161 295.072C61.9979 294.995 60.1812 293.053 60.2584 290.735C60.3356 288.417 62.2774 286.6 64.5956 286.677Z" fill="#E6007A" stroke="black"/>
<path d="M86.3 290.9C86.3 293.22 84.4196 295.1 82.1 295.1C79.7804 295.1 77.9 293.22 77.9 290.9C77.9 288.581 79.7804 286.7 82.1 286.7C84.4196 286.7 86.3 288.581 86.3 290.9Z" fill="#E6007A" stroke="black"/>
<path d="M104 290.9C104 293.22 102.12 295.1 99.8 295.1C97.4804 295.1 95.6 293.22 95.6 290.9C95.6 288.581 97.4804 286.7 99.8 286.7C102.12 286.7 104 288.581 104 290.9Z" fill="#E6007A" stroke="black"/>
<path d="M121.6 290.9C121.6 293.22 119.72 295.1 117.4 295.1C115.08 295.1 113.2 293.22 113.2 290.9C113.2 288.581 115.08 286.7 117.4 286.7C119.72 286.7 121.6 288.581 121.6 290.9Z" fill="#E6007A" stroke="black"/>
<path d="M139.3 290.9C139.3 293.22 137.42 295.1 135.1 295.1C132.78 295.1 130.9 293.22 130.9 290.9C130.9 288.581 132.78 286.7 135.1 286.7C137.42 286.7 139.3 288.581 139.3 290.9Z" fill="#E6007A" stroke="black"/>
<path d="M174.7 290.9C174.7 293.22 172.82 295.1 170.5 295.1C168.18 295.1 166.3 293.22 166.3 290.9C166.3 288.581 168.18 286.7 170.5 286.7C172.82 286.7 174.7 288.581 174.7 290.9Z" fill="#E6007A" stroke="black"/>
<path d="M192.3 290.9C192.3 293.22 190.42 295.1 188.1 295.1C185.78 295.1 183.9 293.22 183.9 290.9C183.9 288.581 185.78 286.7 188.1 286.7C190.42 286.7 192.3 288.581 192.3 290.9Z" fill="#E6007A" stroke="black"/>
<path d="M210 290.9C210 293.22 208.12 295.1 205.8 295.1C203.48 295.1 201.6 293.22 201.6 290.9C201.6 288.581 203.48 286.7 205.8 286.7C208.12 286.7 210 288.581 210 290.9Z" fill="#E6007A" stroke="black"/>
<path d="M245.3 290.9C245.3 293.22 243.42 295.1 241.1 295.1C238.78 295.1 236.9 293.22 236.9 290.9C236.9 288.581 238.78 286.7 241.1 286.7C243.42 286.7 245.3 288.581 245.3 290.9Z" fill="#E6007A" stroke="black"/>
<path d="M263 290.9C263 293.22 261.12 295.1 258.8 295.1C256.48 295.1 254.6 293.22 254.6 290.9C254.6 288.581 256.48 286.7 258.8 286.7C261.12 286.7 263 288.581 263 290.9Z" fill="#E6007A" stroke="black"/>
<path d="M280.7 290.9C280.7 293.22 278.82 295.1 276.5 295.1C274.18 295.1 272.3 293.22 272.3 290.9C272.3 288.581 274.18 286.7 276.5 286.7C278.82 286.7 280.7 288.581 280.7 290.9Z" fill="#E6007A" stroke="black"/>
<path d="M298.4 290.9C298.4 293.22 296.52 295.1 294.2 295.1C291.88 295.1 290 293.22 290 290.9C290 288.581 291.88 286.7 294.2 286.7C296.52 286.7 298.4 288.581 298.4 290.9Z" fill="#E6007A" stroke="black"/>
<path d="M316.1 290.9C316.1 293.22 314.22 295.1 311.9 295.1C309.58 295.1 307.7 293.22 307.7 290.9C307.7 288.581 309.58 286.7 311.9 286.7C314.22 286.7 316.1 288.581 316.1 290.9Z" fill="#E6007A" stroke="black"/>
<path d="M351.4 290.9C351.4 293.22 349.52 295.1 347.2 295.1C344.88 295.1 343 293.22 343 290.9C343 288.581 344.88 286.7 347.2 286.7C349.52 286.7 351.4 288.581 351.4 290.9Z" fill="#E6007A" stroke="black"/>
<path d="M369.1 290.9C369.1 293.22 367.22 295.1 364.9 295.1C362.58 295.1 360.7 293.22 360.7 290.9C360.7 288.581 362.58 286.7 364.9 286.7C367.22 286.7 369.1 288.581 369.1 290.9Z" fill="#E6007A" stroke="black"/>
<path d="M404.4 290.9C404.4 293.22 402.52 295.1 400.2 295.1C397.88 295.1 396 293.22 396 290.9C396 288.581 397.88 286.7 400.2 286.7C402.52 286.7 404.4 288.581 404.4 290.9Z" fill="#E6007A" stroke="black"/>
<path d="M422.1 290.9C422.1 293.22 420.22 295.1 417.9 295.1C415.58 295.1 413.7 293.22 413.7 290.9C413.7 288.581 415.58 286.7 417.9 286.7C420.22 286.7 422.1 288.581 422.1 290.9Z" fill="#E6007A" stroke="black"/>
<path d="M439.8 290.9C439.8 293.22 437.92 295.1 435.6 295.1C433.28 295.1 431.4 293.22 431.4 290.9C431.4 288.581 433.28 286.7 435.6 286.7C437.92 286.7 439.8 288.581 439.8 290.9Z" fill="#E6007A" stroke="black"/>
<path d="M64.5249 304.345C66.8431 304.422 68.6598 306.364 68.5826 308.682C68.5054 311 66.5635 312.817 64.2453 312.74C61.9271 312.663 60.1104 310.721 60.1876 308.402C60.2648 306.084 62.2067 304.268 64.5249 304.345Z" fill="#E6007A" stroke="black"/>
<path d="M86.3 308.5C86.3 310.819 84.4196 312.7 82.1 312.7C79.7804 312.7 77.9 310.819 77.9 308.5C77.9 306.18 79.7804 304.3 82.1 304.3C84.4196 304.3 86.3 306.18 86.3 308.5Z" fill="#E6007A" stroke="black"/>
<path d="M104 308.5C104 310.819 102.12 312.7 99.8 312.7C97.4804 312.7 95.6 310.819 95.6 308.5C95.6 306.18 97.4804 304.3 99.8 304.3C102.12 304.3 104 306.18 104 308.5Z" fill="#E6007A" stroke="black"/>
<path d="M121.6 308.5C121.6 310.819 119.72 312.7 117.4 312.7C115.08 312.7 113.2 310.819 113.2 308.5C113.2 306.18 115.08 304.3 117.4 304.3C119.72 304.3 121.6 306.18 121.6 308.5Z" fill="#E6007A" stroke="black"/>
<path d="M139.3 308.5C139.3 310.819 137.42 312.7 135.1 312.7C132.78 312.7 130.9 310.819 130.9 308.5C130.9 306.18 132.78 304.3 135.1 304.3C137.42 304.3 139.3 306.18 139.3 308.5Z" fill="#E6007A" stroke="black"/>
<path d="M174.7 308.5C174.7 310.819 172.82 312.7 170.5 312.7C168.18 312.7 166.3 310.819 166.3 308.5C166.3 306.18 168.18 304.3 170.5 304.3C172.82 304.3 174.7 306.18 174.7 308.5Z" fill="#E6007A" stroke="black"/>
<path d="M192.3 308.5C192.3 310.819 190.42 312.7 188.1 312.7C185.78 312.7 183.9 310.819 183.9 308.5C183.9 306.18 185.78 304.3 188.1 304.3C190.42 304.3 192.3 306.18 192.3 308.5Z" fill="#E6007A" stroke="black"/>
<path d="M210 308.5C210 310.819 208.12 312.7 205.8 312.7C203.48 312.7 201.6 310.819 201.6 308.5C201.6 306.18 203.48 304.3 205.8 304.3C208.12 304.3 210 306.18 210 308.5Z" fill="#E6007A" stroke="black"/>
<path d="M245.3 308.5C245.3 310.819 243.42 312.7 241.1 312.7C238.78 312.7 236.9 310.819 236.9 308.5C236.9 306.18 238.78 304.3 241.1 304.3C243.42 304.3 245.3 306.18 245.3 308.5Z" fill="#E6007A" stroke="black"/>
<path d="M263 308.5C263 310.819 261.12 312.7 258.8 312.7C256.48 312.7 254.6 310.819 254.6 308.5C254.6 306.18 256.48 304.3 258.8 304.3C261.12 304.3 263 306.18 263 308.5Z" fill="#E6007A" stroke="black"/>
<path d="M280.7 308.5C280.7 310.819 278.82 312.7 276.5 312.7C274.18 312.7 272.3 310.819 272.3 308.5C272.3 306.18 274.18 304.3 276.5 304.3C278.82 304.3 280.7 306.18 280.7 308.5Z" fill="#E6007A" stroke="black"/>
<path d="M298.4 308.5C298.4 310.819 296.52 312.7 294.2 312.7C291.88 312.7 290 310.819 290 308.5C290 306.18 291.88 304.3 294.2 304.3C296.52 304.3 298.4 306.18 298.4 308.5Z" fill="#E6007A" stroke="black"/>
<path d="M316.1 308.5C316.1 310.819 314.22 312.7 311.9 312.7C309.58 312.7 307.7 310.819 307.7 308.5C307.7 306.18 309.58 304.3 311.9 304.3C314.22 304.3 316.1 306.18 316.1 308.5Z" fill="#E6007A" stroke="black"/>
<path d="M351.4 308.5C351.4 310.819 349.52 312.7 347.2 312.7C344.88 312.7 343 310.819 343 308.5C343 306.18 344.88 304.3 347.2 304.3C349.52 304.3 351.4 306.18 351.4 308.5Z" fill="#E6007A" stroke="black"/>
<path d="M369.1 308.5C369.1 310.819 367.22 312.7 364.9 312.7C362.58 312.7 360.7 310.819 360.7 308.5C360.7 306.18 362.58 304.3 364.9 304.3C367.22 304.3 369.1 306.18 369.1 308.5Z" fill="#E6007A" stroke="black"/>
<path d="M404.4 308.5C404.4 310.819 402.52 312.7 400.2 312.7C397.88 312.7 396 310.819 396 308.5C396 306.18 397.88 304.3 400.2 304.3C402.52 304.3 404.4 306.18 404.4 308.5Z" fill="#E6007A" stroke="black"/>
<path d="M422.1 308.5C422.1 310.819 420.22 312.7 417.9 312.7C415.58 312.7 413.7 310.819 413.7 308.5C413.7 306.18 415.58 304.3 417.9 304.3C420.22 304.3 422.1 306.18 422.1 308.5Z" fill="#E6007A" stroke="black"/>
<path d="M439.8 308.5C439.8 310.819 437.92 312.7 435.6 312.7C433.28 312.7 431.4 310.819 431.4 308.5C431.4 306.18 433.28 304.3 435.6 304.3C437.92 304.3 439.8 306.18 439.8 308.5Z" fill="#E6007A" stroke="black"/>
<path d="M64.544 322.025C66.8622 322.103 68.6789 324.044 68.6017 326.363C68.5245 328.681 66.5827 330.498 64.2645 330.42C61.9463 330.343 60.1296 328.401 60.2068 326.083C60.284 323.765 62.2258 321.948 64.544 322.025Z" fill="#E6007A" stroke="black"/>
<path d="M86.3 326.2C86.3 328.52 84.4196 330.4 82.1 330.4C79.7804 330.4 77.9 328.52 77.9 326.2C77.9 323.88 79.7804 322 82.1 322C84.4196 322 86.3 323.88 86.3 326.2Z" fill="#E6007A" stroke="black"/>
<path d="M104 326.2C104 328.52 102.12 330.4 99.8 330.4C97.4804 330.4 95.6 328.52 95.6 326.2C95.6 323.88 97.4804 322 99.8 322C102.12 322 104 323.88 104 326.2Z" fill="#E6007A" stroke="black"/>
<path d="M121.6 326.2C121.6 328.52 119.72 330.4 117.4 330.4C115.08 330.4 113.2 328.52 113.2 326.2C113.2 323.88 115.08 322 117.4 322C119.72 322 121.6 323.88 121.6 326.2Z" fill="#E6007A" stroke="black"/>
<path d="M139.3 326.2C139.3 328.52 137.42 330.4 135.1 330.4C132.78 330.4 130.9 328.52 130.9 326.2C130.9 323.88 132.78 322 135.1 322C137.42 322 139.3 323.88 139.3 326.2Z" fill="#E6007A" stroke="black"/>
<path d="M174.7 326.2C174.7 328.52 172.82 330.4 170.5 330.4C168.18 330.4 166.3 328.52 166.3 326.2C166.3 323.88 168.18 322 170.5 322C172.82 322 174.7 323.88 174.7 326.2Z" fill="#E6007A" stroke="black"/>
<path d="M192.3 326.2C192.3 328.52 190.42 330.4 188.1 330.4C185.78 330.4 183.9 328.52 183.9 326.2C183.9 323.88 185.78 322 188.1 322C190.42 322 192.3 323.88 192.3 326.2Z" fill="#E6007A" stroke="black"/>
<path d="M210 326.2C210 328.52 208.12 330.4 205.8 330.4C203.48 330.4 201.6 328.52 201.6 326.2C201.6 323.88 203.48 322 205.8 322C208.12 322 210 323.88 210 326.2Z" fill="#E6007A" stroke="black"/>
<path d="M245.3 326.2C245.3 328.52 243.42 330.4 241.1 330.4C238.78 330.4 236.9 328.52 236.9 326.2C236.9 323.88 238.78 322 241.1 322C243.42 322 245.3 323.88 245.3 326.2Z" fill="#E6007A" stroke="black"/>
<path d="M263 326.2C263 328.52 261.12 330.4 258.8 330.4C256.48 330.4 254.6 328.52 254.6 326.2C254.6 323.88 256.48 322 258.8 322C261.12 322 263 323.88 263 326.2Z" fill="#E6007A" stroke="black"/>
<path d="M280.7 326.2C280.7 328.52 278.82 330.4 276.5 330.4C274.18 330.4 272.3 328.52 272.3 326.2C272.3 323.88 274.18 322 276.5 322C278.82 322 280.7 323.88 280.7 326.2Z" fill="#E6007A" stroke="black"/>
<path d="M298.4 326.2C298.4 328.52 296.52 330.4 294.2 330.4C291.88 330.4 290 328.52 290 326.2C290 323.88 291.88 322 294.2 322C296.52 322 298.4 323.88 298.4 326.2Z" fill="#E6007A" stroke="black"/>
<path d="M316.1 326.2C316.1 328.52 314.22 330.4 311.9 330.4C309.58 330.4 307.7 328.52 307.7 326.2C307.7 323.88 309.58 322 311.9 322C314.22 322 316.1 323.88 316.1 326.2Z" fill="#E6007A" stroke="black"/>
<path d="M351.4 326.2C351.4 328.52 349.52 330.4 347.2 330.4C344.88 330.4 343 328.52 343 326.2C343 323.88 344.88 322 347.2 322C349.52 322 351.4 323.88 351.4 326.2Z" fill="#E6007A" stroke="black"/>
<path d="M369.1 326.2C369.1 328.52 367.22 330.4 364.9 330.4C362.58 330.4 360.7 328.52 360.7 326.2C360.7 323.88 362.58 322 364.9 322C367.22 322 369.1 323.88 369.1 326.2Z" fill="#E6007A" stroke="black"/>
<path d="M404.4 326.2C404.4 328.52 402.52 330.4 400.2 330.4C397.88 330.4 396 328.52 396 326.2C396 323.88 397.88 322 400.2 322C402.52 322 404.4 323.88 404.4 326.2Z" fill="#E6007A" stroke="black"/>
<path d="M422.1 326.2C422.1 328.52 420.22 330.4 417.9 330.4C415.58 330.4 413.7 328.52 413.7 326.2C413.7 323.88 415.58 322 417.9 322C420.22 322 422.1 323.88 422.1 326.2Z" fill="#E6007A" stroke="black"/>
<path d="M439.8 326.2C439.8 328.52 437.92 330.4 435.6 330.4C433.28 330.4 431.4 328.52 431.4 326.2C431.4 323.88 433.28 322 435.6 322C437.92 322 439.8 323.88 439.8 326.2Z" fill="#E6007A" stroke="black"/>
<path d="M64.5732 339.696C66.8914 339.774 68.7081 341.715 68.631 344.034C68.5538 346.352 66.6119 348.168 64.2937 348.091C61.9755 348.014 60.1588 346.072 60.236 343.754C60.3132 341.436 62.255 339.619 64.5732 339.696Z" fill="#E6007A" stroke="black"/>
<path d="M86.3 343.9C86.3 346.22 84.4196 348.1 82.1 348.1C79.7804 348.1 77.9 346.22 77.9 343.9C77.9 341.581 79.7804 339.7 82.1 339.7C84.4196 339.7 86.3 341.581 86.3 343.9Z" fill="#E6007A" stroke="black"/>
<path d="M104 343.9C104 346.22 102.12 348.1 99.8 348.1C97.4804 348.1 95.6 346.22 95.6 343.9C95.6 341.581 97.4804 339.7 99.8 339.7C102.12 339.7 104 341.581 104 343.9Z" fill="#E6007A" stroke="black"/>
<path d="M121.6 343.9C121.6 346.22 119.72 348.1 117.4 348.1C115.08 348.1 113.2 346.22 113.2 343.9C113.2 341.581 115.08 339.7 117.4 339.7C119.72 339.7 121.6 341.581 121.6 343.9Z" fill="#E6007A" stroke="black"/>
<path d="M139.3 343.9C139.3 346.22 137.42 348.1 135.1 348.1C132.78 348.1 130.9 346.22 130.9 343.9C130.9 341.581 132.78 339.7 135.1 339.7C137.42 339.7 139.3 341.581 139.3 343.9Z" fill="#E6007A" stroke="black"/>
<path d="M174.7 343.9C174.7 346.22 172.82 348.1 170.5 348.1C168.18 348.1 166.3 346.22 166.3 343.9C166.3 341.581 168.18 339.7 170.5 339.7C172.82 339.7 174.7 341.581 174.7 343.9Z" fill="#E6007A" stroke="black"/>
<path d="M192.3 343.9C192.3 346.22 190.42 348.1 188.1 348.1C185.78 348.1 183.9 346.22 183.9 343.9C183.9 341.581 185.78 339.7 188.1 339.7C190.42 339.7 192.3 341.581 192.3 343.9Z" fill="#E6007A" stroke="black"/>
<path d="M210 343.9C210 346.22 208.12 348.1 205.8 348.1C203.48 348.1 201.6 346.22 201.6 343.9C201.6 341.581 203.48 339.7 205.8 339.7C208.12 339.7 210 341.581 210 343.9Z" fill="#E6007A" stroke="black"/>
<path d="M245.3 343.9C245.3 346.22 243.42 348.1 241.1 348.1C238.78 348.1 236.9 346.22 236.9 343.9C236.9 341.581 238.78 339.7 241.1 339.7C243.42 339.7 245.3 341.581 245.3 343.9Z" fill="#E6007A" stroke="black"/>
<path d="M263 343.9C263 346.22 261.12 348.1 258.8 348.1C256.48 348.1 254.6 346.22 254.6 343.9C254.6 341.581 256.48 339.7 258.8 339.7C261.12 339.7 263 341.581 263 343.9Z" fill="#E6007A" stroke="black"/>
<path d="M280.7 343.9C280.7 346.22 278.82 348.1 276.5 348.1C274.18 348.1 272.3 346.22 272.3 343.9C272.3 341.581 274.18 339.7 276.5 339.7C278.82 339.7 280.7 341.581 280.7 343.9Z" fill="#E6007A" stroke="black"/>
<path d="M298.4 343.9C298.4 346.22 296.52 348.1 294.2 348.1C291.88 348.1 290 346.22 290 343.9C290 341.581 291.88 339.7 294.2 339.7C296.52 339.7 298.4 341.581 298.4 343.9Z" fill="#E6007A" stroke="black"/>
<path d="M316.1 343.9C316.1 346.22 314.22 348.1 311.9 348.1C309.58 348.1 307.7 346.22 307.7 343.9C307.7 341.581 309.58 339.7 311.9 339.7C314.22 339.7 316.1 341.581 316.1 343.9Z" fill="#E6007A" stroke="black"/>
<path d="M351.4 343.9C351.4 346.22 349.52 348.1 347.2 348.1C344.88 348.1 343 346.22 343 343.9C343 341.581 344.88 339.7 347.2 339.7C349.52 339.7 351.4 341.581 351.4 343.9Z" fill="#E6007A" stroke="black"/>
<path d="M369.1 343.9C369.1 346.22 367.22 348.1 364.9 348.1C362.58 348.1 360.7 346.22 360.7 343.9C360.7 341.581 362.58 339.7 364.9 339.7C367.22 339.7 369.1 341.581 369.1 343.9Z" fill="#E6007A" stroke="black"/>
<path d="M404.4 343.9C404.4 346.22 402.52 348.1 400.2 348.1C397.88 348.1 396 346.22 396 343.9C396 341.581 397.88 339.7 400.2 339.7C402.52 339.7 404.4 341.581 404.4 343.9Z" fill="#E6007A" stroke="black"/>
<path d="M422.1 343.9C422.1 346.22 420.22 348.1 417.9 348.1C415.58 348.1 413.7 346.22 413.7 343.9C413.7 341.581 415.58 339.7 417.9 339.7C420.22 339.7 422.1 341.581 422.1 343.9Z" fill="#E6007A" stroke="black"/>
<path d="M439.8 343.9C439.8 346.22 437.92 348.1 435.6 348.1C433.28 348.1 431.4 346.22 431.4 343.9C431.4 341.581 433.28 339.7 435.6 339.7C437.92 339.7 439.8 341.581 439.8 343.9Z" fill="#E6007A" stroke="black"/>
<path d="M64.4925 357.374C66.8107 357.451 68.6274 359.393 68.5502 361.711C68.473 364.03 66.5311 365.846 64.2129 365.769C61.8947 365.692 60.078 363.75 60.1552 361.432C60.2324 359.114 62.1742 357.297 64.4925 357.374Z" fill="#E6007A" stroke="black"/>
<path d="M86.3 361.5C86.3 363.819 84.4196 365.7 82.1 365.7C79.7804 365.7 77.9 363.819 77.9 361.5C77.9 359.18 79.7804 357.3 82.1 357.3C84.4196 357.3 86.3 359.18 86.3 361.5Z" fill="#E6007A" stroke="black"/>
<path d="M104 361.5C104 363.819 102.12 365.7 99.8 365.7C97.4804 365.7 95.6 363.819 95.6 361.5C95.6 359.18 97.4804 357.3 99.8 357.3C102.12 357.3 104 359.18 104 361.5Z" fill="#E6007A" stroke="black"/>
<path d="M121.6 361.5C121.6 363.819 119.72 365.7 117.4 365.7C115.08 365.7 113.2 363.819 113.2 361.5C113.2 359.18 115.08 357.3 117.4 357.3C119.72 357.3 121.6 359.18 121.6 361.5Z" fill="#E6007A" stroke="black"/>
<path d="M139.3 361.5C139.3 363.819 137.42 365.7 135.1 365.7C132.78 365.7 130.9 363.819 130.9 361.5C130.9 359.18 132.78 357.3 135.1 357.3C137.42 357.3 139.3 359.18 139.3 361.5Z" fill="#E6007A" stroke="black"/>
<path d="M174.7 361.5C174.7 363.819 172.82 365.7 170.5 365.7C168.18 365.7 166.3 363.819 166.3 361.5C166.3 359.18 168.18 357.3 170.5 357.3C172.82 357.3 174.7 359.18 174.7 361.5Z" fill="#E6007A" stroke="black"/>
<path d="M192.3 361.5C192.3 363.819 190.42 365.7 188.1 365.7C185.78 365.7 183.9 363.819 183.9 361.5C183.9 359.18 185.78 357.3 188.1 357.3C190.42 357.3 192.3 359.18 192.3 361.5Z" fill="#E6007A" stroke="black"/>
<path d="M210 361.5C210 363.819 208.12 365.7 205.8 365.7C203.48 365.7 201.6 363.819 201.6 361.5C201.6 359.18 203.48 357.3 205.8 357.3C208.12 357.3 210 359.18 210 361.5Z" fill="#E6007A" stroke="black"/>
<path d="M245.3 361.5C245.3 363.819 243.42 365.7 241.1 365.7C238.78 365.7 236.9 363.819 236.9 361.5C236.9 359.18 238.78 357.3 241.1 357.3C243.42 357.3 245.3 359.18 245.3 361.5Z" fill="#E6007A" stroke="black"/>
<path d="M263 361.5C263 363.819 261.12 365.7 258.8 365.7C256.48 365.7 254.6 363.819 254.6 361.5C254.6 359.18 256.48 357.3 258.8 357.3C261.12 357.3 263 359.18 263 361.5Z" fill="#E6007A" stroke="black"/>
<path d="M280.7 361.5C280.7 363.819 278.82 365.7 276.5 365.7C274.18 365.7 272.3 363.819 272.3 361.5C272.3 359.18 274.18 357.3 276.5 357.3C278.82 357.3 280.7 359.18 280.7 361.5Z" fill="#E6007A" stroke="black"/>
<path d="M298.4 361.5C298.4 363.819 296.52 365.7 294.2 365.7C291.88 365.7 290 363.819 290 361.5C290 359.18 291.88 357.3 294.2 357.3C296.52 357.3 298.4 359.18 298.4 361.5Z" fill="#E6007A" stroke="black"/>
<path d="M316.1 361.5C316.1 363.819 314.22 365.7 311.9 365.7C309.58 365.7 307.7 363.819 307.7 361.5C307.7 359.18 309.58 357.3 311.9 357.3C314.22 357.3 316.1 359.18 316.1 361.5Z" fill="#E6007A" stroke="black"/>
<path d="M351.4 361.5C351.4 363.819 349.52 365.7 347.2 365.7C344.88 365.7 343 363.819 343 361.5C343 359.18 344.88 357.3 347.2 357.3C349.52 357.3 351.4 359.18 351.4 361.5Z" fill="#E6007A" stroke="black"/>
<path d="M369.1 361.5C369.1 363.819 367.22 365.7 364.9 365.7C362.58 365.7 360.7 363.819 360.7 361.5C360.7 359.18 362.58 357.3 364.9 357.3C367.22 357.3 369.1 359.18 369.1 361.5Z" fill="#E6007A" stroke="black"/>
<path d="M404.4 361.5C404.4 363.819 402.52 365.7 400.2 365.7C397.88 365.7 396 363.819 396 361.5C396 359.18 397.88 357.3 400.2 357.3C402.52 357.3 404.4 359.18 404.4 361.5Z" fill="#E6007A" stroke="black"/>
<path d="M422.1 361.5C422.1 363.819 420.22 365.7 417.9 365.7C415.58 365.7 413.7 363.819 413.7 361.5C413.7 359.18 415.58 357.3 417.9 357.3C420.22 357.3 422.1 359.18 422.1 361.5Z" fill="#E6007A" stroke="black"/>
<path d="M439.8 361.5C439.8 363.819 437.92 365.7 435.6 365.7C433.28 365.7 431.4 363.819 431.4 361.5C431.4 359.18 433.28 357.3 435.6 357.3C437.92 357.3 439.8 359.18 439.8 361.5Z" fill="#E6007A" stroke="black"/>
<path d="M64.5216 375.045C66.8398 375.122 68.6565 377.064 68.5793 379.382C68.5021 381.7 66.5603 383.517 64.2421 383.44C61.9239 383.363 60.1072 381.421 60.1844 379.103C60.2616 376.784 62.2034 374.968 64.5216 375.045Z" fill="#E6007A" stroke="black"/>
<path d="M86.3 379.2C86.3 381.52 84.4196 383.4 82.1 383.4C79.7804 383.4 77.9 381.52 77.9 379.2C77.9 376.88 79.7804 375 82.1 375C84.4196 375 86.3 376.88 86.3 379.2Z" fill="#E6007A" stroke="black"/>
<path d="M104 379.2C104 381.52 102.12 383.4 99.8 383.4C97.4804 383.4 95.6 381.52 95.6 379.2C95.6 376.88 97.4804 375 99.8 375C102.12 375 104 376.88 104 379.2Z" fill="#E6007A" stroke="black"/>
<path d="M121.6 379.2C121.6 381.52 119.72 383.4 117.4 383.4C115.08 383.4 113.2 381.52 113.2 379.2C113.2 376.88 115.08 375 117.4 375C119.72 375 121.6 376.88 121.6 379.2Z" fill="#E6007A" stroke="black"/>
<path d="M139.3 379.2C139.3 381.52 137.42 383.4 135.1 383.4C132.78 383.4 130.9 381.52 130.9 379.2C130.9 376.88 132.78 375 135.1 375C137.42 375 139.3 376.88 139.3 379.2Z" fill="#E6007A" stroke="black"/>
<path d="M174.7 379.2C174.7 381.52 172.82 383.4 170.5 383.4C168.18 383.4 166.3 381.52 166.3 379.2C166.3 376.88 168.18 375 170.5 375C172.82 375 174.7 376.88 174.7 379.2Z" fill="#E6007A" stroke="black"/>
<path d="M192.3 379.2C192.3 381.52 190.42 383.4 188.1 383.4C185.78 383.4 183.9 381.52 183.9 379.2C183.9 376.88 185.78 375 188.1 375C190.42 375 192.3 376.88 192.3 379.2Z" fill="#E6007A" stroke="black"/>
<path d="M210 379.2C210 381.52 208.12 383.4 205.8 383.4C203.48 383.4 201.6 381.52 201.6 379.2C201.6 376.88 203.48 375 205.8 375C208.12 375 210 376.88 210 379.2Z" fill="#E6007A" stroke="black"/>
<path d="M245.3 379.2C245.3 381.52 243.42 383.4 241.1 383.4C238.78 383.4 236.9 381.52 236.9 379.2C236.9 376.88 238.78 375 241.1 375C243.42 375 245.3 376.88 245.3 379.2Z" fill="#E6007A" stroke="black"/>
<path d="M263 379.2C263 381.52 261.12 383.4 258.8 383.4C256.48 383.4 254.6 381.52 254.6 379.2C254.6 376.88 256.48 375 258.8 375C261.12 375 263 376.88 263 379.2Z" fill="#E6007A" stroke="black"/>
<path d="M280.7 379.2C280.7 381.52 278.82 383.4 276.5 383.4C274.18 383.4 272.3 381.52 272.3 379.2C272.3 376.88 274.18 375 276.5 375C278.82 375 280.7 376.88 280.7 379.2Z" fill="#E6007A" stroke="black"/>
<path d="M298.4 379.2C298.4 381.52 296.52 383.4 294.2 383.4C291.88 383.4 290 381.52 290 379.2C290 376.88 291.88 375 294.2 375C296.52 375 298.4 376.88 298.4 379.2Z" fill="#E6007A" stroke="black"/>
<path d="M316.1 379.2C316.1 381.52 314.22 383.4 311.9 383.4C309.58 383.4 307.7 381.52 307.7 379.2C307.7 376.88 309.58 375 311.9 375C314.22 375 316.1 376.88 316.1 379.2Z" fill="#E6007A" stroke="black"/>
<path d="M351.4 379.2C351.4 381.52 349.52 383.4 347.2 383.4C344.88 383.4 343 381.52 343 379.2C343 376.88 344.88 375 347.2 375C349.52 375 351.4 376.88 351.4 379.2Z" fill="#E6007A" stroke="black"/>
<path d="M369.1 379.2C369.1 381.52 367.22 383.4 364.9 383.4C362.58 383.4 360.7 381.52 360.7 379.2C360.7 376.88 362.58 375 364.9 375C367.22 375 369.1 376.88 369.1 379.2Z" fill="#E6007A" stroke="black"/>
<path d="M404.4 379.2C404.4 381.52 402.52 383.4 400.2 383.4C397.88 383.4 396 381.52 396 379.2C396 376.88 397.88 375 400.2 375C402.52 375 404.4 376.88 404.4 379.2Z" fill="#E6007A" stroke="black"/>
<path d="M422.1 379.2C422.1 381.52 420.22 383.4 417.9 383.4C415.58 383.4 413.7 381.52 413.7 379.2C413.7 376.88 415.58 375 417.9 375C420.22 375 422.1 376.88 422.1 379.2Z" fill="#E6007A" stroke="black"/>
<path d="M439.8 379.2C439.8 381.52 437.92 383.4 435.6 383.4C433.28 383.4 431.4 381.52 431.4 379.2C431.4 376.88 433.28 375 435.6 375C437.92 375 439.8 376.88 439.8 379.2Z" fill="#E6007A" stroke="black"/>
<path d="M64.5507 392.716C66.8689 392.793 68.6856 394.735 68.6084 397.053C68.5312 399.371 66.5894 401.188 64.2712 401.111C61.953 401.034 60.1363 399.092 60.2135 396.774C60.2907 394.455 62.2325 392.639 64.5507 392.716Z" fill="#E6007A" stroke="black"/>
<path d="M86.3 396.9C86.3 399.22 84.4196 401.1 82.1 401.1C79.7804 401.1 77.9 399.22 77.9 396.9C77.9 394.581 79.7804 392.7 82.1 392.7C84.4196 392.7 86.3 394.581 86.3 396.9Z" fill="#E6007A" stroke="black"/>
<path d="M104 396.9C104 399.22 102.12 401.1 99.8 401.1C97.4804 401.1 95.6 399.22 95.6 396.9C95.6 394.581 97.4804 392.7 99.8 392.7C102.12 392.7 104 394.581 104 396.9Z" fill="#E6007A" stroke="black"/>
<path d="M121.6 396.9C121.6 399.22 119.72 401.1 117.4 401.1C115.08 401.1 113.2 399.22 113.2 396.9C113.2 394.581 115.08 392.7 117.4 392.7C119.72 392.7 121.6 394.581 121.6 396.9Z" fill="#E6007A" stroke="black"/>
<path d="M139.3 396.9C139.3 399.22 137.42 401.1 135.1 401.1C132.78 401.1 130.9 399.22 130.9 396.9C130.9 394.581 132.78 392.7 135.1 392.7C137.42 392.7 139.3 394.581 139.3 396.9Z" fill="#E6007A" stroke="black"/>
<path d="M174.7 396.9C174.7 399.22 172.82 401.1 170.5 401.1C168.18 401.1 166.3 399.22 166.3 396.9C166.3 394.581 168.18 392.7 170.5 392.7C172.82 392.7 174.7 394.581 174.7 396.9Z" fill="#E6007A" stroke="black"/>
<path d="M192.3 396.9C192.3 399.22 190.42 401.1 188.1 401.1C185.78 401.1 183.9 399.22 183.9 396.9C183.9 394.581 185.78 392.7 188.1 392.7C190.42 392.7 192.3 394.581 192.3 396.9Z" fill="#E6007A" stroke="black"/>
<path d="M210 396.9C210 399.22 208.12 401.1 205.8 401.1C203.48 401.1 201.6 399.22 201.6 396.9C201.6 394.581 203.48 392.7 205.8 392.7C208.12 392.7 210 394.581 210 396.9Z" fill="#E6007A" stroke="black"/>
<path d="M245.3 396.9C245.3 399.22 243.42 401.1 241.1 401.1C238.78 401.1 236.9 399.22 236.9 396.9C236.9 394.581 238.78 392.7 241.1 392.7C243.42 392.7 245.3 394.581 245.3 396.9Z" fill="#E6007A" stroke="black"/>
<path d="M263 396.9C263 399.22 261.12 401.1 258.8 401.1C256.48 401.1 254.6 399.22 254.6 396.9C254.6 394.581 256.48 392.7 258.8 392.7C261.12 392.7 263 394.581 263 396.9Z" fill="#E6007A" stroke="black"/>
<path d="M280.7 396.9C280.7 399.22 278.82 401.1 276.5 401.1C274.18 401.1 272.3 399.22 272.3 396.9C272.3 394.581 274.18 392.7 276.5 392.7C278.82 392.7 280.7 394.581 280.7 396.9Z" fill="#E6007A" stroke="black"/>
<path d="M298.4 396.9C298.4 399.22 296.52 401.1 294.2 401.1C291.88 401.1 290 399.22 290 396.9C290 394.581 291.88 392.7 294.2 392.7C296.52 392.7 298.4 394.581 298.4 396.9Z" fill="#E6007A" stroke="black"/>
<path d="M316.1 396.9C316.1 399.22 314.22 401.1 311.9 401.1C309.58 401.1 307.7 399.22 307.7 396.9C307.7 394.581 309.58 392.7 311.9 392.7C314.22 392.7 316.1 394.581 316.1 396.9Z" fill="#E6007A" stroke="black"/>
<path d="M351.4 396.9C351.4 399.22 349.52 401.1 347.2 401.1C344.88 401.1 343 399.22 343 396.9C343 394.581 344.88 392.7 347.2 392.7C349.52 392.7 351.4 394.581 351.4 396.9Z" fill="#E6007A" stroke="black"/>
<path d="M369.1 396.9C369.1 399.22 367.22 401.1 364.9 401.1C362.58 401.1 360.7 399.22 360.7 396.9C360.7 394.581 362.58 392.7 364.9 392.7C367.22 392.7 369.1 394.581 369.1 396.9Z" fill="#E6007A" stroke="black"/>
<path d="M404.4 396.9C404.4 399.22 402.52 401.1 400.2 401.1C397.88 401.1 396 399.22 396 396.9C396 394.581 397.88 392.7 400.2 392.7C402.52 392.7 404.4 394.581 404.4 396.9Z" fill="#E6007A" stroke="black"/>
<path d="M422.1 396.9C422.1 399.22 420.22 401.1 417.9 401.1C415.58 401.1 413.7 399.22 413.7 396.9C413.7 394.581 415.58 392.7 417.9 392.7C420.22 392.7 422.1 394.581 422.1 396.9Z" fill="#E6007A" stroke="black"/>
<path d="M439.8 396.9C439.8 399.22 437.92 401.1 435.6 401.1C433.28 401.1 431.4 399.22 431.4 396.9C431.4 394.581 433.28 392.7 435.6 392.7C437.92 392.7 439.8 394.581 439.8 396.9Z" fill="#E6007A" stroke="black"/>
<path d="M64.57 410.397C66.8882 410.474 68.7049 412.416 68.6277 414.734C68.5505 417.052 66.6087 418.869 64.2905 418.791C61.9723 418.714 60.1556 416.772 60.2328 414.454C60.31 412.136 62.2518 410.319 64.57 410.397Z" fill="#E6007A" stroke="black"/>
<path d="M86.3 414.6C86.3 416.92 84.4196 418.8 82.1 418.8C79.7804 418.8 77.9 416.92 77.9 414.6C77.9 412.281 79.7804 410.4 82.1 410.4C84.4196 410.4 86.3 412.281 86.3 414.6Z" fill="#E6007A" stroke="black"/>
<path d="M104 414.6C104 416.92 102.12 418.8 99.8 418.8C97.4804 418.8 95.6 416.92 95.6 414.6C95.6 412.281 97.4804 410.4 99.8 410.4C102.12 410.4 104 412.281 104 414.6Z" fill="#E6007A" stroke="black"/>
<path d="M121.6 414.6C121.6 416.92 119.72 418.8 117.4 418.8C115.08 418.8 113.2 416.92 113.2 414.6C113.2 412.281 115.08 410.4 117.4 410.4C119.72 410.4 121.6 412.281 121.6 414.6Z" fill="#E6007A" stroke="black"/>
<path d="M139.3 414.6C139.3 416.92 137.42 418.8 135.1 418.8C132.78 418.8 130.9 416.92 130.9 414.6C130.9 412.281 132.78 410.4 135.1 410.4C137.42 410.4 139.3 412.281 139.3 414.6Z" fill="#E6007A" stroke="black"/>
<path d="M174.7 414.6C174.7 416.92 172.82 418.8 170.5 418.8C168.18 418.8 166.3 416.92 166.3 414.6C166.3 412.281 168.18 410.4 170.5 410.4C172.82 410.4 174.7 412.281 174.7 414.6Z" fill="#E6007A" stroke="black"/>
<path d="M192.3 414.6C192.3 416.92 190.42 418.8 188.1 418.8C185.78 418.8 183.9 416.92 183.9 414.6C183.9 412.281 185.78 410.4 188.1 410.4C190.42 410.4 192.3 412.281 192.3 414.6Z" fill="#E6007A" stroke="black"/>
<path d="M210 414.6C210 416.92 208.12 418.8 205.8 418.8C203.48 418.8 201.6 416.92 201.6 414.6C201.6 412.281 203.48 410.4 205.8 410.4C208.12 410.4 210 412.281 210 414.6Z" fill="#E6007A" stroke="black"/>
<path d="M245.3 414.6C245.3 416.92 243.42 418.8 241.1 418.8C238.78 418.8 236.9 416.92 236.9 414.6C236.9 412.281 238.78 410.4 241.1 410.4C243.42 410.4 245.3 412.281 245.3 414.6Z" fill="#E6007A" stroke="black"/>
<path d="M263 414.6C263 416.92 261.12 418.8 258.8 418.8C256.48 418.8 254.6 416.92 254.6 414.6C254.6 412.281 256.48 410.4 258.8 410.4C261.12 410.4 263 412.281 263 414.6Z" fill="#E6007A" stroke="black"/>
<path d="M280.7 414.6C280.7 416.92 278.82 418.8 276.5 418.8C274.18 418.8 272.3 416.92 272.3 414.6C272.3 412.281 274.18 410.4 276.5 410.4C278.82 410.4 280.7 412.281 280.7 414.6Z" fill="#E6007A" stroke="black"/>
<path d="M298.4 414.6C298.4 416.92 296.52 418.8 294.2 418.8C291.88 418.8 290 416.92 290 414.6C290 412.281 291.88 410.4 294.2 410.4C296.52 410.4 298.4 412.281 298.4 414.6Z" fill="#E6007A" stroke="black"/>
<path d="M316.1 414.6C316.1 416.92 314.22 418.8 311.9 418.8C309.58 418.8 307.7 416.92 307.7 414.6C307.7 412.281 309.58 410.4 311.9 410.4C314.22 410.4 316.1 412.281 316.1 414.6Z" fill="#E6007A" stroke="black"/>
<path d="M351.4 414.6C351.4 416.92 349.52 418.8 347.2 418.8C344.88 418.8 343 416.92 343 414.6C343 412.281 344.88 410.4 347.2 410.4C349.52 410.4 351.4 412.281 351.4 414.6Z" fill="#E6007A" stroke="black"/>
<path d="M369.1 414.6C369.1 416.92 367.22 418.8 364.9 418.8C362.58 418.8 360.7 416.92 360.7 414.6C360.7 412.281 362.58 410.4 364.9 410.4C367.22 410.4 369.1 412.281 369.1 414.6Z" fill="#E6007A" stroke="black"/>
<path d="M404.4 414.6C404.4 416.92 402.52 418.8 400.2 418.8C397.88 418.8 396 416.92 396 414.6C396 412.281 397.88 410.4 400.2 410.4C402.52 410.4 404.4 412.281 404.4 414.6Z" fill="#E6007A" stroke="black"/>
<path d="M422.1 414.6C422.1 416.92 420.22 418.8 417.9 418.8C415.58 418.8 413.7 416.92 413.7 414.6C413.7 412.281 415.58 410.4 417.9 410.4C420.22 410.4 422.1 412.281 422.1 414.6Z" fill="#E6007A" stroke="black"/>
<path d="M439.8 414.6C439.8 416.92 437.92 418.8 435.6 418.8C433.28 418.8 431.4 416.92 431.4 414.6C431.4 412.281 433.28 410.4 435.6 410.4C437.92 410.4 439.8 412.281 439.8 414.6Z" fill="#E6007A" stroke="black"/>
</svg>
