<svg width="500" height="500" viewBox="0 0 500 500" fill="none" xmlns="http://www.w3.org/2000/svg">
<g clip-path="url(#clip0_115_980)">
<path d="M422.7 250L250 399.1L77.3 250H163.6H250H336.4H422.7Z" stroke="#DAE0F2" stroke-width="2" stroke-miterlimit="10"/>
<path d="M163.6 250L250 399.1L336.4 250" stroke="#E6EAF6" stroke-width="2" stroke-miterlimit="10"/>
<path d="M422.7 250L250 399.1L77.3 250H163.6H250H336.4H422.7Z" stroke="#E6EAF6" stroke-width="2" stroke-miterlimit="10"/>
<path d="M422.7 250L250 101.3L77.3 250H163.6H250H336.4H422.7Z" stroke="#E6EAF6" stroke-width="2" stroke-miterlimit="10"/>
<path d="M163.6 250L250 101.3L336.4 250" stroke="#E6EAF6" stroke-width="2" stroke-miterlimit="10"/>
<path d="M169.8 500.1L77.3 250" stroke="#E6EAF6" stroke-width="2" stroke-miterlimit="10"/>
<path d="M422.7 250L330.2 500" stroke="#E6EAF6" stroke-width="2" stroke-miterlimit="10"/>
<path d="M250 500.1V0" stroke="#E6EAF6" stroke-width="2" stroke-miterlimit="10"/>
<path d="M95.2 250C95.2 259.886 87.1859 267.9 77.3 267.9C67.4141 267.9 59.4 259.886 59.4 250C59.4 240.114 67.4141 232.1 77.3 232.1C87.1859 232.1 95.2 240.114 95.2 250Z" fill="#E6EAF6" stroke="black"/>
<path d="M181.5 250C181.5 259.886 173.486 267.9 163.6 267.9C153.714 267.9 145.7 259.886 145.7 250C145.7 240.114 153.714 232.1 163.6 232.1C173.486 232.1 181.5 240.114 181.5 250Z" fill="#E6EAF6" stroke="black"/>
<path d="M354.3 250C354.3 259.886 346.286 267.9 336.4 267.9C326.514 267.9 318.5 259.886 318.5 250C318.5 240.114 326.514 232.1 336.4 232.1C346.286 232.1 354.3 240.114 354.3 250Z" fill="#E6EAF6" stroke="black"/>
<path d="M267.9 250C267.9 259.886 259.886 267.9 250 267.9C240.114 267.9 232.1 259.886 232.1 250C232.1 240.114 240.114 232.1 250 232.1C259.886 232.1 267.9 240.114 267.9 250Z" fill="#E6EAF6" stroke="black"/>
<path d="M440.6 250C440.6 259.886 432.586 267.9 422.7 267.9C412.814 267.9 404.8 259.886 404.8 250C404.8 240.114 412.814 232.1 422.7 232.1C432.586 232.1 440.6 240.114 440.6 250Z" fill="#E6EAF6" stroke="black"/>
<path d="M193.9 149.5V73.0999C193.9 63.2796 201.873 55.2986 211.803 55.2H288.2C298.124 55.2 306.1 63.1761 306.1 73.0999V149.5C306.1 159.424 298.124 167.4 288.2 167.4H211.8C201.876 167.4 193.9 159.424 193.9 149.5Z" fill="#321D47" stroke="black"/>
<mask id="path-15-inside-1_115_980" fill="white">
<path fill-rule="evenodd" clip-rule="evenodd" d="M307 354.456V399H306.6V427.3C306.6 437.5 298.3 445.7 288.2 445.7H211.8C201.6 445.7 193.4 437.4 193.4 427.3V399H193V354.456C193 342.562 201.359 333 211.53 333H288.47C298.742 333 307 342.678 307 354.456Z"/>
</mask>
<path fill-rule="evenodd" clip-rule="evenodd" d="M307 354.456V399H306.6V427.3C306.6 437.5 298.3 445.7 288.2 445.7H211.8C201.6 445.7 193.4 437.4 193.4 427.3V399H193V354.456C193 342.562 201.359 333 211.53 333H288.47C298.742 333 307 342.678 307 354.456Z" fill="#E6007A"/>
<path d="M307 399V400H308V399H307ZM306.6 399V398H305.6V399H306.6ZM193.4 399H194.4V398H193.4V399ZM193 399H192V400H193V399ZM308 399V354.456H306V399H308ZM306.6 400H307V398H306.6V400ZM307.6 427.3V399H305.6V427.3H307.6ZM288.2 446.7C298.849 446.7 307.6 438.056 307.6 427.3H305.6C305.6 436.944 297.751 444.7 288.2 444.7V446.7ZM211.8 446.7H288.2V444.7H211.8V446.7ZM192.4 427.3C192.4 437.949 201.044 446.7 211.8 446.7V444.7C202.156 444.7 194.4 436.851 194.4 427.3H192.4ZM192.4 399V427.3H194.4V399H192.4ZM193 400H193.4V398H193V400ZM192 354.456V399H194V354.456H192ZM211.53 332C200.677 332 192 342.148 192 354.456H194C194 342.975 202.04 334 211.53 334V332ZM288.47 332H211.53V334H288.47V332ZM308 354.456C308 342.273 299.43 332 288.47 332V334C298.054 334 306 343.084 306 354.456H308Z" fill="black" mask="url(#path-15-inside-1_115_980)"/>
<path d="M240.5 361.7H259.6C269.524 361.7 277.5 369.676 277.5 379.6V398.7C277.5 408.624 269.524 416.6 259.6 416.6H240.5C230.576 416.6 222.6 408.624 222.6 398.7V379.6C222.6 369.676 230.576 361.7 240.5 361.7Z" fill="white" stroke="black"/>
<path d="M250 123.9L270.3 111.9L250 78.3L229.8 111.9L250 123.9ZM250 127.7L229.7 115.7L250 144.2L270.3 115.7L250 127.7Z" fill="white"/>
</g>
<defs>
<clipPath id="clip0_115_980">
<rect width="500" height="500" fill="white"/>
</clipPath>
</defs>
</svg>
