<svg width="500" height="500" viewBox="0 0 500 500" fill="none" xmlns="http://www.w3.org/2000/svg">
<path d="M118.5 344.5C118.5 334.576 126.476 326.6 136.4 326.6C146.324 326.6 154.3 334.576 154.3 344.5V420.9C154.3 430.824 146.324 438.8 136.4 438.8C126.574 438.8 118.5 430.822 118.5 420.9V344.5Z" fill="#E6EAF6" stroke="black"/>
<path d="M347.7 344.5C347.7 334.576 355.676 326.6 365.6 326.6C375.522 326.6 383.5 334.674 383.5 344.5V420.9C383.5 430.824 375.524 438.8 365.6 438.8C355.676 438.8 347.7 430.824 347.7 420.9V344.5Z" fill="#E6EAF6" stroke="black"/>
<path d="M175.8 344.5C175.8 334.576 183.776 326.6 193.7 326.6C203.526 326.6 211.6 334.578 211.6 344.5V420.9C211.6 430.824 203.624 438.8 193.7 438.8C183.874 438.8 175.8 430.822 175.8 420.9V344.5Z" fill="#E6EAF6" stroke="black"/>
<path d="M233.1 344.5C233.1 334.576 241.076 326.6 251 326.6C260.826 326.6 268.9 334.578 268.9 344.5V420.9C268.9 430.824 260.924 438.8 251 438.8C241.174 438.8 233.1 430.822 233.1 420.9V344.5Z" fill="#E6EAF6" stroke="black"/>
<path d="M290.4 344.5H290.4L290.4 344.49C290.205 334.66 297.992 326.394 307.81 326.2C317.638 326.005 325.903 333.789 326.1 343.605V343.605V343.607V343.609V343.611V343.612V343.614V343.616V343.618V343.619V343.621V343.623V343.625V343.626V343.628V343.63V343.632V343.633V343.635V343.637V343.639V343.64V343.642V343.644V343.646V343.647V343.649V343.651V343.653V343.654V343.656V343.658V343.66V343.662V343.663V343.665V343.667V343.669V343.67V343.672V343.674V343.676V343.677V343.679V343.681V343.683V343.684V343.686V343.688V343.69V343.691V343.693V343.695V343.697V343.698V343.7V343.702V343.704V343.705V343.707V343.709V343.711V343.712V343.714V343.716V343.718V343.72V343.721V343.723V343.725V343.727V343.728V343.73V343.732V343.734V343.735V343.737V343.739V343.741V343.742V343.744V343.746V343.748V343.749V343.751V343.753V343.755V343.756V343.758V343.76V343.762V343.763V343.765V343.767V343.769V343.77V343.772V343.774V343.776V343.778V343.779V343.781V343.783V343.785V343.786V343.788V343.79V343.792V343.793V343.795V343.797V343.799V343.8V343.802V343.804V343.806V343.807V343.809V343.811V343.813V343.814V343.816V343.818V343.82V343.821V343.823V343.825V343.827V343.828V343.83V343.832V343.834V343.836V343.837V343.839V343.841V343.843V343.844V343.846V343.848V343.85V343.851V343.853V343.855V343.857V343.858V343.86V343.862V343.864V343.865V343.867V343.869V343.871V343.872V343.874V343.876V343.878V343.879V343.881V343.883V343.885V343.887V343.888V343.89V343.892V343.894V343.895V343.897V343.899V343.901V343.902V343.904V343.906V343.908V343.909V343.911V343.913V343.915V343.916V343.918V343.92V343.922V343.923V343.925V343.927V343.929V343.93V343.932V343.934V343.936V343.937V343.939V343.941V343.943V343.945V343.946V343.948V343.95V343.952V343.953V343.955V343.957V343.959V343.96V343.962V343.964V343.966V343.967V343.969V343.971V343.973V343.974V343.976V343.978V343.98V343.981V343.983V343.985V343.987V343.988V343.99V343.992V343.994V343.995V343.997V343.999V344.001V344.003V344.004V344.006V344.008V344.01V344.011V344.013V344.015V344.017V344.018V344.02V344.022V344.024V344.025V344.027V344.029V344.031V344.032V344.034V344.036V344.038V344.039V344.041V344.043V344.045V344.046V344.048V344.05V344.052V344.053V344.055V344.057V344.059V344.061V344.062V344.064V344.066V344.068V344.069V344.071V344.073V344.075V344.076V344.078V344.08V344.082V344.083V344.085V344.087V344.089V344.09V344.092V344.094V344.096V344.097V344.099V344.101V344.103V344.104V344.106V344.108V344.11V344.112V344.113V344.115V344.117V344.119V344.12V344.122V344.124V344.126V344.127V344.129V344.131V344.133V344.134V344.136V344.138V344.14V344.141V344.143V344.145V344.147V344.148V344.15V344.152V344.154V344.155V344.157V344.159V344.161V344.162V344.164V344.166V344.168V344.17V344.171V344.173V344.175V344.177V344.178V344.18V344.182V344.184V344.185V344.187V344.189V344.191V344.192V344.194V344.196V344.198V344.199V344.201V344.203V344.205V344.206V344.208V344.21V344.212V344.213V344.215V344.217V344.219V344.22V344.222V344.224V344.226V344.228V344.229V344.231V344.233V344.235V344.236V344.238V344.24V344.242V344.243V344.245V344.247V344.249V344.25V344.252V344.254V344.256V344.257V344.259V344.261V344.263V344.264V344.266V344.268V344.27V344.271V344.273V344.275V344.277V344.278V344.28V344.282V344.284V344.286V344.287V344.289V344.291V344.293V344.294V344.296V344.298V344.3V344.301V344.303V344.305V344.307V344.308V344.31V344.312V344.314V344.315V344.317V344.319V344.321V344.322V344.324V344.326V344.328V344.329V344.331V344.333V344.335V344.337V344.338V344.34V344.342V344.344V344.345V344.347V344.349V344.351V344.352V344.354V344.356V344.358V344.359V344.361V344.363V344.365V344.366V344.368V344.37V344.372V344.373V344.375V344.377V344.379V344.38V344.382V344.384V344.386V344.387V344.389V344.391V344.393V344.395V344.396V344.398V344.4V344.402V344.403V344.405V344.407V344.409V344.41V344.412V344.414V344.416V344.417V344.419V344.421V344.423V344.424V344.426V344.428V344.43V344.431V344.433V344.435V344.437V344.438V344.44V344.442V344.444V344.445V344.447V344.449V344.451V344.453V344.454V344.456V344.458V344.46V344.461V344.463V344.465V344.467V344.468V344.47V344.472V344.474V344.475V344.477V344.479V344.481V344.482V344.484V344.486V344.488V344.489V344.491V344.493V344.495V344.496V344.498V344.5V420.895C325.903 430.715 317.635 438.592 307.815 438.3L307.81 438.3C298.28 438.106 290.597 430.424 290.4 420.895V344.5Z" fill="#E6EAF6" stroke="black"/>
<path d="M136.4 382.7H365.6" stroke="#E6EAF6" stroke-width="2" stroke-miterlimit="10"/>
<path d="M251 493.4V382.7" stroke="#E6EAF6" stroke-width="2" stroke-miterlimit="10"/>
<path d="M291.1 131.2L251 77.3999L212.2 131.2L251 243.7L291.1 131.2Z" stroke="#E6EAF6" stroke-width="2" stroke-miterlimit="10"/>
<path d="M230.1 131.6C230.1 141.486 222.086 149.5 212.2 149.5C202.314 149.5 194.3 141.486 194.3 131.6C194.3 121.714 202.314 113.7 212.2 113.7C222.086 113.7 230.1 121.714 230.1 131.6Z" fill="#E6EAF6" stroke="black"/>
<path d="M307.7 131.6C307.7 141.486 299.686 149.5 289.8 149.5C279.914 149.5 271.9 141.486 271.9 131.6C271.9 121.714 279.914 113.7 289.8 113.7C299.686 113.7 307.7 121.714 307.7 131.6Z" fill="#E6EAF6" stroke="black"/>
<path d="M148 131.2L109.2 77.3999L70.4 131.2L109.2 243.7L148 131.2Z" stroke="#E6EAF6" stroke-width="2" stroke-miterlimit="10"/>
<path d="M88.3 131.6C88.3 141.486 80.2859 149.5 70.4 149.5C60.5141 149.5 52.5 141.486 52.5 131.6C52.5 121.714 60.5141 113.7 70.4 113.7C80.2859 113.7 88.3 121.714 88.3 131.6Z" fill="#E6EAF6" stroke="black"/>
<path d="M165.9 131.6C165.9 141.486 157.886 149.5 148 149.5C138.114 149.5 130.1 141.486 130.1 131.6C130.1 121.714 138.114 113.7 148 113.7C157.886 113.7 165.9 121.714 165.9 131.6Z" fill="#E6EAF6" stroke="black"/>
<path d="M431.6 131.2L392.8 77.3999L354 131.2L392.8 243.7L431.6 131.2Z" stroke="#E6EAF6" stroke-width="2" stroke-miterlimit="10"/>
<path d="M371.9 131.2C371.9 141.086 363.886 149.1 354 149.1C344.114 149.1 336.1 141.086 336.1 131.2C336.1 121.314 344.114 113.3 354 113.3C363.886 113.3 371.9 121.314 371.9 131.2Z" fill="#E6EAF6" stroke="black"/>
<path d="M449.5 131.2C449.5 141.086 441.486 149.1 431.6 149.1C421.714 149.1 413.7 141.086 413.7 131.2C413.7 121.314 421.714 113.3 431.6 113.3C441.486 113.3 449.5 121.314 449.5 131.2Z" fill="#E6EAF6" stroke="black"/>
<path d="M268.9 77.4C268.9 87.2859 260.886 95.3 251 95.3C241.114 95.3 233.1 87.2859 233.1 77.4C233.1 67.5141 241.114 59.5 251 59.5C260.886 59.5 268.9 67.5141 268.9 77.4Z" fill="#E6EAF6" stroke="black"/>
<path d="M410.7 77.4C410.7 87.2859 402.686 95.3 392.8 95.3C382.914 95.3 374.9 87.2859 374.9 77.4C374.9 67.5141 382.914 59.5 392.8 59.5C402.686 59.5 410.7 67.5141 410.7 77.4Z" fill="#E6EAF6" stroke="black"/>
<path d="M127.1 77.7999C127.1 87.6858 119.086 95.6999 109.2 95.6999C99.3141 95.6999 91.3 87.6858 91.3 77.7999C91.3 67.914 99.3141 59.8999 109.2 59.8999C119.086 59.8999 127.1 67.914 127.1 77.7999Z" fill="#E6EAF6" stroke="black"/>
<path d="M109.2 77.3999V243.7" stroke="#E6EAF6" stroke-width="2" stroke-miterlimit="10"/>
<path d="M251 77.3999V243.7" stroke="#E6EAF6" stroke-width="2" stroke-miterlimit="10"/>
<path d="M392.8 77.3999V243.7" stroke="#E6EAF6" stroke-width="2" stroke-miterlimit="10"/>
<path d="M194.9 281.8V205.4C194.9 195.476 202.876 187.5 212.8 187.5H289.2C299.124 187.5 307.1 195.476 307.1 205.4V281.8C307.1 291.724 299.124 299.7 289.2 299.7H212.8C202.876 299.7 194.9 291.724 194.9 281.8Z" fill="#E6007A" stroke="black"/>
<path d="M336.7 281.8V205.4C336.7 195.576 344.776 187.5 354.6 187.5H431C440.922 187.5 448.9 195.574 448.9 205.4V281.8C448.9 291.724 440.924 299.7 431 299.7H354.6C344.676 299.7 336.7 291.724 336.7 281.8Z" fill="#E6EAF6" stroke="black"/>
<path d="M53.1001 281.8V205.4C53.1001 195.476 61.0762 187.5 71.0001 187.5H147.4C157.324 187.5 165.3 195.476 165.3 205.4V281.8C165.3 291.724 157.324 299.7 147.4 299.7H71.0001C61.0762 299.7 53.1001 291.724 53.1001 281.8Z" fill="#E6EAF6" stroke="black"/>
</svg>
