<svg xmlns="http://www.w3.org/2000/svg" viewBox="0 0 169.69 169.69"><defs><style>.cls-1,.cls-2,.cls-4{fill:#fff;}.cls-1,.cls-4,.cls-5{stroke:#670d35;}.cls-1,.cls-2,.cls-3,.cls-4,.cls-5{stroke-linejoin:round;stroke-width:5px;}.cls-2{stroke:#e6007a;}.cls-2,.cls-3,.cls-4{stroke-linecap:round;}.cls-3,.cls-5{fill:none;}.cls-3{stroke:#b5aeae;}</style></defs><title>dg-consensus</title><g id="Layer_2" data-name="Layer 2"><g id="Layer_1-2" data-name="Layer 1"><line class="cls-1" x1="85.42" y1="52.22" x2="83.03" y2="54.61"/><line class="cls-2" x1="92.75" y1="119.84" x2="112.37" y2="139.45"/><line class="cls-2" x1="130.84" y1="88.66" x2="142.53" y2="100.35"/><path class="cls-3" d="M160.72,52.79a82.69,82.69,0,1,1-17.65-26.17"/><path class="cls-2" d="M75.88,50.1l5.83,5.83A7.23,7.23,0,1,1,71.48,66.16L59.9,54.59,49.59,44.27A7.23,7.23,0,1,1,59.82,34l5.83,5.83"/><path class="cls-1" d="M81.71,35.46l4.9-4.9A7.23,7.23,0,1,1,96.84,40.79l-4.9,4.91"/><path class="cls-4" d="M102.17,55.93l12.48-12.48a7.23,7.23,0,1,1,10.23,10.23L114.57,64"/><path class="cls-4" d="M110.9,67.67l11.43-11.44a7.24,7.24,0,1,1,10.24,10.23L122.25,76.78"/><path class="cls-2" d="M39.35,54.5A7.24,7.24,0,0,1,49.59,44.27L71.48,66.16A7.24,7.24,0,1,1,61.24,76.39Z"/><path class="cls-2" d="M31.93,67.55A7.24,7.24,0,0,1,42.16,57.31L61.24,76.39A7.23,7.23,0,0,1,51,86.62Z"/><path class="cls-4" d="M118.05,81l10.32-10.32A7.24,7.24,0,0,1,138.6,80.9L128.28,91.21l-20.63,20.63c-2.58,2.59-10,8.52-20.09,8.52s-14.61-.5-18.7,3.56L53,139.76"/><line class="cls-4" x1="23.17" y1="100.35" x2="33.72" y2="89.8"/><path class="cls-2" d="M78.76,47.22,75.88,50.1A7.23,7.23,0,1,1,65.65,39.87l5.11-5.12a7.24,7.24,0,0,1,10.24,0l9.75,9.76"/><line class="cls-4" x1="100.93" y1="54.69" x2="103.27" y2="57.03"/><line class="cls-4" x1="109.73" y1="66.5" x2="112.07" y2="68.84"/><line class="cls-4" x1="116.88" y1="79.81" x2="119.22" y2="82.15"/><line class="cls-2" x1="143.07" y1="26.62" x2="143.07" y2="26.62"/><line class="cls-2" x1="23.17" y1="100.35" x2="23.17" y2="100.35"/><path class="cls-2" d="M26.78,82.86A7.23,7.23,0,0,1,37,72.63l14,14A7.24,7.24,0,0,1,40.78,96.86Z"/><line class="cls-3" x1="112.37" y1="139.45" x2="112.37" y2="139.45"/><path class="cls-5" d="M85.18,52.46l8.92-8.93,10.32-10.31a7.23,7.23,0,1,1,10.23,10.23L102.91,55.19"/></g></g></svg>