<svg width="171" height="171" viewBox="0 0 171 171" fill="none" xmlns="http://www.w3.org/2000/svg">
<path fill-rule="evenodd" clip-rule="evenodd" d="M170.557 88.6728C169.81 109.976 161.09 130.221 146.125 145.4C131.159 160.579 111.039 169.583 89.749 170.631C68.459 171.679 47.5515 164.693 31.168 151.057C30.1103 150.176 29.9665 148.605 30.8468 147.548C31.7271 146.49 33.2982 146.346 34.3559 147.226C49.7794 160.063 69.461 166.64 89.504 165.654C109.546 164.668 128.487 156.19 142.576 141.901C156.665 127.612 164.874 108.553 165.576 88.4988C166.279 68.4438 159.425 48.857 146.372 33.6164C133.318 18.3758 115.017 8.59324 95.093 6.20604C75.169 3.81884 55.0746 9.00125 38.7901 20.7267C22.5056 32.4522 11.2184 49.8657 7.16396 69.5188C3.31946 88.1538 6.24366 107.513 15.3501 124.143C16.011 125.35 15.5684 126.864 14.3614 127.525C13.1544 128.186 11.6402 127.743 10.9792 126.536C1.30596 108.871 -1.80034 88.3068 2.28346 68.5118C6.59026 47.6355 18.5801 29.138 35.8782 16.6827C53.1764 4.22734 74.521 -1.27756 95.686 1.25814C116.85 3.79394 136.29 14.1854 150.157 30.3747C164.023 46.564 171.303 67.3708 170.557 88.6728Z" fill="#B4AEAD"/>
<path d="M30.1367 149.093C30.1367 147.667 31.2927 146.512 32.7186 146.512C34.1445 146.512 35.3004 147.667 35.3004 149.093C35.3004 150.519 34.1445 151.675 32.7186 151.675C31.2927 151.675 30.1367 150.519 30.1367 149.093Z" fill="#D32D79"/>
<path fill-rule="evenodd" clip-rule="evenodd" d="M45.6225 71.2048C46.9986 71.2048 48.1142 72.3198 48.1142 73.6958V115.714C48.1142 117.09 46.9986 118.206 45.6225 118.206C44.2464 118.206 43.1309 117.09 43.1309 115.714V73.6958C43.1309 72.3198 44.2464 71.2048 45.6225 71.2048Z" fill="#561D34"/>
<path fill-rule="evenodd" clip-rule="evenodd" d="M125.811 71.2048C127.187 71.2048 128.303 72.3198 128.303 73.6958V115.714C128.303 117.09 127.187 118.206 125.811 118.206C124.435 118.206 123.32 117.09 123.32 115.714V73.6958C123.32 72.3198 124.435 71.2048 125.811 71.2048Z" fill="#561D34"/>
<path fill-rule="evenodd" clip-rule="evenodd" d="M84.8558 33.0656C85.6038 32.6578 86.5088 32.6603 87.2538 33.0723L141.276 62.9244C142.48 63.59 142.917 65.1059 142.252 66.3099C141.586 67.5149 140.07 67.9519 138.866 67.2859L86.0408 38.0955L32.5035 67.2929C31.2953 67.9519 29.7819 67.5059 29.123 66.2979C28.4642 65.0901 28.9094 63.5766 30.1175 62.9177L84.8558 33.0656Z" fill="#561D34"/>
<path fill-rule="evenodd" clip-rule="evenodd" d="M31.3379 126.665C31.3379 125.289 32.4535 124.173 33.8296 124.173H137.548C138.924 124.173 140.04 125.289 140.04 126.665C140.04 128.041 138.924 129.156 137.548 129.156H33.8296C32.4535 129.156 31.3379 128.041 31.3379 126.665Z" fill="#561D34"/>
<path fill-rule="evenodd" clip-rule="evenodd" d="M85.6977 61.3023C72.3857 61.3023 61.5945 72.0931 61.5945 85.4051C61.5945 98.7171 72.3857 109.508 85.6977 109.508C99.0087 109.508 109.801 98.7171 109.801 85.4051C109.801 72.0931 99.0087 61.3023 85.6977 61.3023ZM56.6113 85.4051C56.6113 69.3411 69.6337 56.3191 85.6977 56.3191C101.762 56.3191 114.784 69.3411 114.784 85.4051C114.784 101.469 101.762 114.491 85.6977 114.491C69.6337 114.491 56.6113 101.469 56.6113 85.4051Z" fill="#D32D79"/>
<path fill-rule="evenodd" clip-rule="evenodd" d="M85.6816 72.342H85.7256C87.2376 72.342 88.4876 72.46 89.8906 72.874C91.2206 73.266 92.6046 73.901 94.3936 74.782C95.6286 75.39 96.1366 76.884 95.5286 78.119C94.9206 79.353 93.4266 79.861 92.1926 79.253C90.3976 78.369 89.3576 77.912 88.4806 77.654C87.6816 77.418 86.9436 77.326 85.7476 77.325C83.9056 77.361 82.5866 77.798 81.8086 78.319C81.0766 78.81 80.8916 79.298 80.8916 79.727C80.8916 80.748 81.1726 81.41 81.6766 81.862C82.2296 82.356 83.4606 82.968 86.1216 82.968C89.8156 82.968 92.4706 83.776 94.1816 85.408C95.9396 87.085 96.2026 89.153 96.2026 90.462C96.2026 92.358 95.5506 94.349 93.9426 95.852C92.3406 97.35 90.0756 98.098 87.3506 98.098C81.6396 98.098 78.4996 96.34 76.6116 95.283C76.5576 95.252 76.5036 95.222 76.4506 95.193C75.2496 94.522 74.8196 93.004 75.4906 91.802C76.1616 90.601 77.6796 90.171 78.8806 90.842C78.9436 90.877 79.0076 90.913 79.0736 90.95C80.6806 91.852 82.9316 93.115 87.3506 93.115C89.1856 93.115 90.1016 92.621 90.5396 92.212C90.9706 91.809 91.2186 91.227 91.2186 90.462C91.2186 89.771 91.0806 89.337 90.7416 89.014C90.3546 88.645 89.2156 87.951 86.1216 87.951C82.7946 87.951 80.1646 87.197 78.3526 85.574C76.4936 83.91 75.9086 81.706 75.9086 79.727C75.9086 77.329 77.1986 75.41 79.0356 74.179C80.8236 72.981 83.1616 72.386 85.6816 72.342Z" fill="#D32D79"/>
<path fill-rule="evenodd" clip-rule="evenodd" d="M85.5779 66.1462C86.9539 66.1462 88.0689 67.2622 88.0689 68.6382V73.6672C88.0689 75.0432 86.9539 76.1582 85.5779 76.1582C84.2019 76.1582 83.0859 75.0432 83.0859 73.6672V68.6382C83.0859 67.2622 84.2019 66.1462 85.5779 66.1462Z" fill="#D32D79"/>
<path fill-rule="evenodd" clip-rule="evenodd" d="M85.5779 94.8821C86.9539 94.8821 88.0689 95.9981 88.0689 97.3741V102.172C88.0689 103.548 86.9539 104.664 85.5779 104.664C84.2019 104.664 83.0859 103.548 83.0859 102.172V97.3741C83.0859 95.9981 84.2019 94.8821 85.5779 94.8821Z" fill="#D32D79"/>
<path d="M142.656 65.1055C142.656 66.5311 141.5 67.6871 140.074 67.6871C138.648 67.6871 137.492 66.5311 137.492 65.1055C137.492 63.6796 138.648 62.5237 140.074 62.5237C141.5 62.5237 142.656 63.6796 142.656 65.1055Z" fill="#D32D79"/>
</svg>
