<svg xmlns="http://www.w3.org/2000/svg" viewBox="0 0 169.69 169.69"><defs><style>.cls-1,.cls-2{fill:#fff;}.cls-1{stroke:#670d35;}.cls-1,.cls-2,.cls-3,.cls-4{stroke-linecap:round;stroke-linejoin:round;stroke-width:5px;}.cls-2,.cls-3{stroke:#e6007a;}.cls-3,.cls-4{fill:none;}.cls-4{stroke:#b5aeae;}</style></defs><title>dg-governance</title><g id="Layer_2" data-name="Layer 2"><g id="Layer_1-2" data-name="Layer 1"><polyline class="cls-1" points="42.7 128.47 42.7 54.63 126.99 54.63 126.99 138.92 42.7 138.92"/><rect class="cls-2" x="92.1" y="86.45" width="34.89" height="34.89"/><line class="cls-2" x1="115.56" y1="109.91" x2="103.53" y2="97.89"/><line class="cls-2" x1="103.53" y1="109.91" x2="115.56" y2="97.89"/><rect class="cls-3" x="65.36" y="23.2" width="34.89" height="34.89" transform="translate(-8.78 51.62) rotate(-32.98)"/><polyline class="cls-2" points="75.5 44.3 83.82 46.08 86.83 31.94"/><rect class="cls-2" x="57.21" y="103.9" width="34.89" height="34.89"/><polyline class="cls-2" points="66.54 120.44 72.55 126.45 82.77 116.23"/><line class="cls-2" x1="42.7" y1="128.46" x2="42.7" y2="128.46"/><line class="cls-1" x1="115.56" y1="97.89" x2="115.56" y2="97.89"/><path class="cls-4" d="M52.79,9A82.69,82.69,0,1,1,26.62,26.62"/><line class="cls-2" x1="52.79" y1="8.97" x2="52.79" y2="8.97"/></g></g></svg>