<?xml version="1.0" encoding="utf-8"?>
<!-- Generator: Adobe Illustrator 22.1.0, SVG Export Plug-In . SVG Version: 6.00 Build 0)  -->
<svg version="1.1" id="Layer_1" xmlns="http://www.w3.org/2000/svg" xmlns:xlink="http://www.w3.org/1999/xlink" x="0px" y="0px"
	 viewBox="0 0 200 200" style="enable-background:new 0 0 200 200;" xml:space="preserve">
<style type="text/css">
	.st0{fill:#fff;}
</style>
<title>logo-circle-parity</title>
<path class="st0" d="M100,0C44.8,0,0,44.8,0,100s44.8,100,100,100s100-44.8,100-100S155.2,0,100,0z M36.2,87.4L118.6,36l1.1,1.8
	L37.4,89.2L36.2,87.4z M41,95l82.3-51.4l1.1,1.8L42.2,96.9L41,95z M81.7,77.5l-10.1,6.3v-2.5l6-3.8H81.7z M45.8,102.7l82.3-51.4
	l1.1,1.8l-82.3,51.4L45.8,102.7z M98.8,77.5l-27.2,17V92l23.1-14.4L98.8,77.5L98.8,77.5z M50.6,110.4l82.3-51.5l1.1,1.8l-82.3,51.4
	L50.6,110.4z M115.8,77.5L86.9,95.6h-4l28.9-18.1C111.7,77.5,115.8,77.5,115.8,77.5z M55.4,118l82.3-51.4l1.1,1.8l-82.3,51.4
	L55.4,118z M132.6,77.5v0.2L104,95.6h-4l28.9-18.1C128.8,77.5,132.6,77.5,132.6,77.5z M82.3,109.1l-10.6,6.7v-2.5l6.6-4.1
	L82.3,109.1L82.3,109.1z M60.2,125.7l82.3-51.4l1.1,1.8l-82.3,51.4L60.2,125.7z M132.6,85.7v2.5L121,95.4h-4L132.6,85.7z
	 M99.3,109.1l-27.7,17.3v-2.5l23.6-14.7C95.2,109.1,99.3,109.1,99.3,109.1z M64.9,133.4L147.3,82l1.1,1.8l-82.3,51.4L64.9,133.4z
	 M116.3,109.1l-28.9,18.1h-4l28.9-18.1H116.3z M69.7,140.9L152,89.5l1.1,1.8l-82.3,51.4L69.7,140.9z M132.6,109.1v0.5l-28.1,17.5h-4
	l28.9-18.1L132.6,109.1L132.6,109.1z M74.5,148.6l82.3-51.4L158,99l-82.3,51.4L74.5,148.6z M132.6,117.7v2.5l-11.1,6.9h-4
	L132.6,117.7z M79.3,156.3l82.3-51.4l1.1,1.8l-82.3,51.4L79.3,156.3z M85.2,165.8l-1.1-1.8l82.3-51.4l1.1,1.8L85.2,165.8z"/>
</svg>
