<?xml version="1.0" encoding="utf-8"?>
<!-- Generator: Adobe Illustrator 22.1.0, SVG Export Plug-In . SVG Version: 6.00 Build 0)  -->
<svg version="1.1" id="Layer_1" xmlns="http://www.w3.org/2000/svg" xmlns:xlink="http://www.w3.org/1999/xlink" x="0px" y="0px"
	 viewBox="0 0 200 200" style="enable-background:new 0 0 200 200;" xml:space="preserve">
<style type="text/css">
	.st0{fill:#fff;}
</style>
<title>logo-circle-chainsafe</title>
<g id="Layer_2_1_">
	<g id="Layer_1-2">
		<path class="st0" d="M100,0C44.8,0,0,44.8,0,100s44.8,100,100,100s100-44.8,100-100S155.2,0,100,0z M52,64l32.9-17.6
			c0.1-0.1,0.3-0.2,0.4-0.3h0.3l7.9,4.6l60.2,34.7l0.6,0.4c-0.3,0.2-0.4,0.3-0.6,0.4c-2.4,1.3-4.9,2.6-7.4,3.9
			c-0.4,0.3-0.9,0.3-1.3,0c-9.3-5.3-18.6-10.7-27.9-16c-0.6-0.4-1.3-0.4-1.9,0c-7,3.8-13.9,7.5-20.9,11.3c-0.5,0.3-1.1,0.3-1.5,0
			c-2.6-1.5-5.1-3-7.7-4.5c-0.3-0.2-0.5-0.3-0.9-0.5l5.7-3.1l15.2-8.1l0.5-0.3c0.7-0.4,0.7-1,0-1.4c-1.4-0.8-2.8-1.6-4.2-2.4
			l-15.3-8.9c-0.4-0.3-0.9-0.3-1.3,0c-10,5.4-20,10.7-30,16.1c-0.2,0.1-0.5,0.1-0.7,0c-2.8-1.6-5.5-3.2-8.2-4.7c0,0-0.1-0.1-0.2-0.2
			L52,64z M116.9,76.3c0-0.2,0-0.4,0-0.7c0.3,0.2,0.6,0.3,0.8,0.4l26.7,15.3c0.4,0.2,0.6,0.6,0.6,1c0,2.9,0,5.7,0,8.6
			c0,0.2,0,0.4,0,0.7c-0.3-0.1-0.5-0.2-0.6-0.3L117.6,86c-0.4-0.2-0.6-0.6-0.6-1C116.9,82.1,116.9,79.2,116.9,76.3L116.9,76.3z
			 M63.9,101.6c0,0.5-0.2,0.9-0.7,1.1c-2.5,1.3-5,2.7-7.4,4c-0.2,0.1-0.4,0.2-0.7,0.3c0-0.3,0-0.5,0-0.8c0-10.6,0-21.2,0-31.8
			c-0.1-0.4,0.2-0.8,0.5-1c9.5-5,18.9-10.1,28.4-15.2l0.7-0.3v0.9c0,2.8,0,5.5,0,8.2c0,0.5-0.2,0.9-0.7,1.1
			c-6.4,3.4-12.8,6.9-19.2,10.3c-0.7,0.3-1.1,1-1,1.7C63.8,87.3,63.8,94.5,63.9,101.6L63.9,101.6z M83.5,82.4v-0.8l2.9,1.7
			c2,1.2,4,2.3,6,3.4c0.4,0.1,0.6,0.5,0.5,0.9c0,3.4,0,6.8,0,10.2c0,0.5,0.2,0.9,0.6,1.1l18.8,10.7c6.9,3.9,13.9,7.9,20.8,11.8
			l0.5,0.3l-2.6,1.4c-2.3,1.2-4.6,2.4-6.8,3.6c-0.4,0.2-0.8,0.2-1.2,0c-13-7.4-25.9-14.8-38.9-22.2c-0.5-0.2-0.7-0.7-0.7-1.2
			C83.5,96.3,83.5,89.4,83.5,82.4z M94.3,96.8v-2.7c0-2.2,0-4.4,0-6.5c0-0.4,0.2-0.7,0.5-0.8c6.7-3.6,13.4-7.2,20.1-10.8
			c0.2-0.1,0.3-0.2,0.6-0.3c0,0.1,0,0.3,0,0.4c0,3,0,6,0,9c0,0.3-0.2,0.6-0.4,0.7c-6.7,3.6-13.5,7.2-20.3,10.8
			C94.6,96.7,94.4,96.8,94.3,96.8z M86.2,58.4c0-0.2,0-0.3,0.1-0.5L104,68.2l-2.1,1.2c-2.1,1.1-4.2,2.3-6.3,3.3
			c-0.3,0.1-0.6,0.1-0.9,0c-2.7-1.5-5.4-3.1-8-4.7c-0.2-0.2-0.4-0.4-0.5-0.7C86.2,64.4,86.2,61.4,86.2,58.4z M114.4,153.8
			L114.4,153.8c-2-1.1-3.8-2.2-5.7-3.3l-63.2-36.1c-0.4-0.2-0.7-0.6-0.6-1c0-14.7,0-29.3,0-44v-0.8l0.8,0.4c2.4,1.4,4.9,2.9,7.4,4.2
			c0.4,0.2,0.7,0.7,0.7,1.2c0,11.1,0,22.2,0,33.3c0,0.6,0.3,1.1,0.8,1.4l59.4,34.2c0.4,0.2,0.7,0.6,0.7,1.1
			C114.4,147.6,114.4,150.7,114.4,153.8z M114.5,142.2c-19.4-11.2-38.8-22.3-58.2-33.5l-0.6-0.4c2.5-1.4,5-2.6,7.3-4
			c0.9-0.6,2.1-0.6,3,0.1c16.2,9.4,32.4,18.7,48.7,28c0.4,0.3,1,0.3,1.4,0.1c6.3-3.4,12.6-6.7,19-10.1c0.3-0.2,0.6-0.5,0.7-0.8
			c0-0.2-0.4-0.6-0.7-0.8c-13.1-7.4-26.2-14.8-39.3-22.2L95,98.1c0.2-0.1,0.4-0.3,0.5-0.3c2.8-1.5,5.6-3,8.3-4.5
			c0.3-0.2,0.8-0.2,1.1,0l48.8,28c0.1,0.1,0.3,0.2,0.5,0.3l-3.2,1.7l-35.3,18.9C115.4,142.5,114.9,142.5,114.5,142.2L114.5,142.2z
			 M154.5,133.2c-11.5,6.1-22.9,12.3-34.4,18.4l-4.1,2.2h-0.1c0-1.6,0-3.1-0.1-4.7s0-3.2,0-4.8c0-0.3,0.2-0.7,0.5-0.8l38.3-20.5
			c0.1,0,0.2-0.1,0.4-0.2c0,0.3,0,0.5,0,0.8c0,2.8,0,5.7,0,8.6C155.1,132.6,154.9,133,154.5,133.2L154.5,133.2z M155,96.9
			c-0.3,0.6-1.3,0.8-2,1.2c-2,1.1-4,2.2-6,3.2l-0.7,0.3c0-0.3-0.1-0.5-0.1-0.7v-8.6c-0.1-0.3,0.1-0.7,0.4-0.8c2.7-1.4,5.3-2.8,8-4.2
			c0.1-0.1,0.3-0.1,0.4-0.2v7.5C155.3,95.3,155.2,96.1,155,96.9z"/>
	</g>
</g>
</svg>
