<?xml version="1.0" encoding="utf-8"?>
<!-- Generator: Adobe Illustrator 22.1.0, SVG Export Plug-In . SVG Version: 6.00 Build 0)  -->
<svg version="1.1" id="Layer_1" xmlns="http://www.w3.org/2000/svg" xmlns:xlink="http://www.w3.org/1999/xlink" x="0px" y="0px"
	 viewBox="0 0 200 200" style="enable-background:new 0 0 200 200;" xml:space="preserve">
<style type="text/css">
	.st0{fill:#fff;}
</style>
<title>logo-circle-soramitsu</title>
<g id="Layer_2_1_">
	<g id="Layer_1-2">
		<path class="st0" d="M100,0C44.8,0,0,44.8,0,100s44.8,100,100,100s100-44.8,100-100S155.2,0,100,0z M56.1,129.5v-4.7
			c12-0.7,24.9-1.1,38.4-1.2v6.3H56.4L56.1,129.5z M133,141.3c-19.3,15.4-46.7,15.4-66,0v-5h66V141.3z M143.9,129.5l-0.2,0.4h-38.2
			v-6.3c13.6,0.1,26.5,0.6,38.4,1.2V129.5z M152.1,108.8c-16.7,2.7-33.6,4.1-50.5,4c-18,0.1-36-1.5-53.8-4.6h-0.1
			c-0.3-2.2-0.5-4.5-0.6-6.7h26.7c2.5,0,4.5-2.1,4.5-4.5h14.2c0.1,0,0.2,0,0.3,0c2.5-0.2,4.4-2.3,4.3-4.8c-0.2-2.4-2.2-4.3-4.6-4.3
			h-44c6.7-28.4,35.2-46,63.6-39.3c12.8,3,24,10.7,31.4,21.5H109c-0.1,0-0.2,0-0.3,0c-2.5,0-4.5,2.1-4.5,4.6s2.1,4.5,4.6,4.5
			c0.1,0,0.2,0,0.2,0h14.2c0,2.5,2,4.5,4.6,4.6h22.4C152.9,91.7,153.5,100.4,152.1,108.8L152.1,108.8z"/>
	</g>
</g>
</svg>
