<?xml version="1.0" encoding="utf-8"?>
<!-- Generator: Adobe Illustrator 22.1.0, SVG Export Plug-In . SVG Version: 6.00 Build 0)  -->
<svg version="1.1" id="Layer_1" xmlns="http://www.w3.org/2000/svg" xmlns:xlink="http://www.w3.org/1999/xlink" x="0px" y="0px"
	 viewBox="0 0 200 200" style="enable-background:new 0 0 200 200;" xml:space="preserve">
<style type="text/css">
	.st0{fill:#fff;}
</style>
<title>logo-circle-polkadot-js</title>
<g id="Layer_2_1_">
	<g id="Layer_1-2">
		<path class="st0" d="M85.1,101.2c-0.4,0.3-0.6,0.8-0.6,1.3s0.2,0.9,0.5,1.2c0.4,0.3,0.8,0.5,1.3,0.4c0.6,0,1.2-0.2,1.8-0.5
			c0.6-0.4,1.1-0.9,1.5-1.4v-2c-1,0.1-2.1,0.2-3.1,0.4C86,100.6,85.5,100.9,85.1,101.2z"/>
		<path class="st0" d="M100,0C44.8,0,0,44.8,0,100s44.8,100,100,100s100-44.8,100-100S155.2,0,100,0z M38.6,104
			c-0.7,1.1-1.8,1.7-3.1,1.7c-1.4,0-2.6-0.7-3.3-1.9v6h-1.7V94.4h1.7v1.4c0.4-0.5,0.9-0.9,1.5-1.2c0.6-0.3,1.3-0.5,2-0.5
			c1.2,0,2.3,0.6,3,1.6c0.8,1.2,1.2,2.7,1.1,4.1C39.8,101.3,39.4,102.7,38.6,104z M51.4,104.1c-1.8,2-4.9,2.2-7,0.3
			c-0.1-0.1-0.2-0.2-0.3-0.3c-0.9-1.2-1.4-2.7-1.3-4.2c-0.1-1.5,0.4-3,1.3-4.2c1.8-2,5-2.1,7-0.3c0.1,0.1,0.2,0.2,0.3,0.3
			c0.9,1.2,1.4,2.7,1.3,4.2C52.9,101.4,52.4,102.9,51.4,104.1L51.4,104.1z M64.3,105.4h-4.5V91.9h-2.9v-1.4h4.5V104h2.9V105.4z
			 M77.1,105.4l-4.7-5.5l-1.1,0.9v4.6h-1.7v-15h1.7V99l5.2-4.7h2.1l-5,4.5l5.7,6.6H77.1z M89.9,105.4c-0.2-0.6-0.2-1.2-0.2-1.8
			c-0.8,1.3-2.3,2.1-3.8,2.1c-0.8,0-1.6-0.3-2.2-0.9s-1-1.4-0.9-2.2c0-0.5,0.1-1,0.3-1.4c0.2-0.4,0.6-0.8,1-1.1
			c0.5-0.3,1-0.5,1.6-0.7c0.7-0.2,1.4-0.3,2.2-0.4l1.9-0.2v-0.5c0-1.9-0.9-2.8-2.7-2.8c-0.5,0-1.1,0.1-1.6,0.3
			c-0.6,0.2-1.1,0.4-1.7,0.6l-0.4-1.2c1.3-0.7,2.7-1.1,4.2-1.2c2.5,0,3.8,1.3,3.8,4v4.8c0,0.9,0.1,1.7,0.3,2.6L89.9,105.4z
			 M104.3,105.4h-1.7v-1.6c-0.4,0.6-0.9,1-1.5,1.3s-1.3,0.5-2,0.5c-1.2,0-2.4-0.6-3-1.7c-0.8-1.3-1.2-2.8-1.1-4.3
			c0-1.4,0.4-2.8,1.2-4c0.7-1,1.8-1.6,3-1.6c1.3,0,2.6,0.6,3.4,1.7v-5.4h1.7V105.4z M116.7,104.1c-1.8,2-4.9,2.2-7,0.3
			c-0.1-0.1-0.2-0.2-0.3-0.3c-0.9-1.2-1.4-2.7-1.3-4.2c-0.1-1.5,0.4-3,1.3-4.2c1.8-2,5-2.1,7-0.3c0.1,0.1,0.2,0.2,0.3,0.3
			c0.9,1.2,1.4,2.7,1.3,4.2C118.2,101.4,117.7,102.9,116.7,104.1L116.7,104.1z M127.3,105.7c-2,0-3-1-3-3.2v-6.7h-2.1v-1.4h2.1v-3
			h1.6v3h3.8v1.4h-3.8v6.3c0,0.6,0.1,1.1,0.4,1.6c0.3,0.4,0.7,0.6,1.2,0.6c0.9,0,1.8-0.2,2.7-0.6l0.3,1.3
			C129.5,105.4,128.4,105.7,127.3,105.7L127.3,105.7z M153.1,109c-0.7,0.7-1.6,1-2.5,0.9c-0.9,0-1.7-0.2-2.6-0.4l0.4-1.3
			c0.7,0.2,1.4,0.3,2.1,0.3c0.5,0.1,0.9-0.1,1.2-0.5c0.3-0.6,0.4-1.3,0.3-2V96h-3.3v-1.6h4.9V106C153.9,107.1,153.7,108.1,153.1,109
			z M153.8,92.2c-0.2,0.2-0.5,0.3-0.8,0.3s-0.6-0.1-0.8-0.3c-0.4-0.4-0.5-1.1,0-1.6l0,0c0.2-0.2,0.5-0.3,0.8-0.3
			c0.6,0,1.1,0.5,1.1,1.1C154.1,91.7,154,91.9,153.8,92.2L153.8,92.2z M168.2,104.9c-1,0.6-2.2,1-3.4,0.9c-1.2,0-2.3-0.2-3.4-0.6
			l0.3-1.4c0.9,0.4,2,0.7,3,0.7c0.8,0,1.6-0.2,2.2-0.5c0.5-0.3,0.9-0.8,0.9-1.4c0-0.4-0.2-0.7-0.4-1c-0.6-0.5-1.3-0.8-2-0.9
			c-0.9-0.3-1.5-0.4-1.9-0.6c-0.4-0.1-0.8-0.3-1.1-0.6c-0.7-0.5-1.1-1.3-1.1-2.1c0-0.9,0.5-1.8,1.2-2.3c1-0.6,2.2-0.9,3.3-0.8
			c1,0,2,0.2,3,0.4l-0.4,1.4c-0.8-0.3-1.7-0.4-2.6-0.4c-0.7,0-1.5,0.1-2.1,0.4c-0.5,0.2-0.8,0.7-0.8,1.2c0,0.3,0.1,0.6,0.4,0.8
			c0.4,0.3,0.9,0.6,1.4,0.7l1.6,0.4c0.6,0.2,1.2,0.4,1.8,0.7c0.4,0.2,0.8,0.6,1,1s0.4,0.9,0.4,1.4
			C169.5,103.3,169,104.3,168.2,104.9L168.2,104.9z"/>
		<path class="st0" d="M111.4,96.1c-0.3,0.2-0.5,0.4-0.7,0.7c-0.6,0.9-0.9,2-0.8,3.2c0,1.1,0.3,2.2,0.9,3.1c0.9,1.3,2.7,1.7,4,0.8
			c0.3-0.2,0.6-0.5,0.8-0.8c1.2-1.9,1.2-4.3,0-6.2C114.5,95.5,112.7,95.2,111.4,96.1z"/>
		<path class="st0" d="M47.8,95.5c-1,0-1.9,0.4-2.4,1.2c-1.2,1.9-1.2,4.3,0,6.3c0.9,1.3,2.7,1.7,4,0.8c0.3-0.2,0.6-0.5,0.8-0.8
			c1.2-1.9,1.2-4.3,0-6.2C49.6,96,48.8,95.5,47.8,95.5z"/>
		<path class="st0" d="M35.1,95.6c-1.3,0-2.4,0.8-3,1.9v4.6c0.3,0.6,0.7,1.1,1.3,1.6c0.5,0.4,1,0.6,1.7,0.6c0.9,0,1.7-0.5,2.2-1.2
			c1-2,1-4.3,0-6.2C36.8,96,36,95.5,35.1,95.6z"/>
		<path class="st0" d="M99.8,95.5c-0.9,0-1.7,0.4-2.2,1.2c-0.6,0.9-0.8,2-0.8,3.1s0.2,2.2,0.7,3.2c0.4,0.8,1.2,1.3,2.1,1.2
			c0.4,0,0.9-0.1,1.3-0.3c0.5-0.3,0.9-0.6,1.2-1c0.2-0.2,0.4-0.5,0.6-0.8v-4.6C102.1,96.4,101,95.6,99.8,95.5z"/>
	</g>
</g>
</svg>
