<svg id="Layer_1" data-name="Layer 1" xmlns="http://www.w3.org/2000/svg" viewBox="0 0 1000 1000"><defs><style>.cls-1{fill:#e6007a;}.cls-2{fill:#fff;fill-rule:evenodd;}</style></defs><circle class="cls-1" cx="500" cy="500" r="500"/><path class="cls-2" d="M405.48,202.94A40.51,40.51,0,0,1,446,162.43c149.15,0,270,120.91,270,270.06a40.51,40.51,0,0,1-81,0c0-104.41-84.64-189-189-189A40.51,40.51,0,0,1,405.48,202.94Z"/><path class="cls-2" d="M594.52,797.06A40.51,40.51,0,0,1,554,837.57c-149.15,0-270-120.91-270-270.06a40.51,40.51,0,0,1,81,0c0,104.41,84.64,189,189,189A40.51,40.51,0,0,1,594.52,797.06Z"/><path class="cls-2" d="M202.94,594.52A40.51,40.51,0,0,1,162.43,554c0-149.15,120.91-270,270.06-270a40.51,40.51,0,0,1,0,81c-104.41,0-189,84.64-189,189A40.51,40.51,0,0,1,202.94,594.52Z"/><path class="cls-2" d="M797.06,405.48A40.51,40.51,0,0,1,837.57,446c0,149.15-120.91,270-270.06,270a40.51,40.51,0,0,1,0-81c104.41,0,189-84.64,189-189A40.51,40.51,0,0,1,797.06,405.48Z"/></svg>