<?xml version="1.0" encoding="utf-8"?>
<!-- Generator: Adobe Illustrator 24.0.3, SVG Export Plug-In . SVG Version: 6.00 Build 0)  -->
<svg version="1.1" id="Layer_1" xmlns="http://www.w3.org/2000/svg" xmlns:xlink="http://www.w3.org/1999/xlink" x="0px" y="0px"
	 viewBox="0 0 300 300" style="enable-background:new 0 0 300 300;" xml:space="preserve">
<style type="text/css">
	.st0{fill:#E6007A;}
	.st1{fill:#FFFFFF;}
</style>
<g id="Layer_2_1_">
	<g id="Layer_1-2">
		<path class="st0" d="M150,0C67.2,0,0,67.2,0,150s67.2,150,150,150s150-67.2,150-150S232.8,0,150,0z"/>
	</g>
</g>
<path class="st1" d="M173.1,66.1c-3.4-3.4-7.9-5.2-12.6-5.2H96.5c-9.9,0-17.8,8-17.8,17.8v142.7c0,9.9,7.9,17.8,17.8,17.8h107.1
	c9.9,0,17.8-8,17.8-17.8v-99.6c0-4.7-1.8-9.3-5.2-12.5C216.1,109.2,173.1,66.1,173.1,66.1z M176.8,203.4h-53.6c-4.9,0-8.9-4-8.9-8.9
	s4-8.9,8.9-8.9h53.6c4.9,0,8.9,4,8.9,8.9S181.7,203.4,176.8,203.4z M176.8,167.8h-53.6c-4.9,0-8.9-4-8.9-8.9c0-4.9,4-8.9,8.9-8.9
	h53.6c4.9,0,8.9,4,8.9,8.9C185.7,163.8,181.7,167.8,176.8,167.8z M158.9,114.3V74.2l49.1,49.1h-40.2
	C163,123.2,158.9,119.3,158.9,114.3z"/>
</svg>
