<?xml version="1.0" encoding="utf-8"?>
<!-- Generator: Adobe Illustrator 22.1.0, SVG Export Plug-In . SVG Version: 6.00 Build 0)  -->
<svg version="1.1" id="Layer_1" xmlns="http://www.w3.org/2000/svg" xmlns:xlink="http://www.w3.org/1999/xlink" x="0px" y="0px"
	 viewBox="0 0 120.8 117.8" style="enable-background:new 0 0 120.8 117.8;" xml:space="preserve">
<style type="text/css">
	.st0{fill:#E6007A;}
</style>
<title>logo-circle-github</title>
<g id="Layer_2_1_">
	<g id="Layer_1-2">
		<g id="Layer_2-2">
			<g id="Layer_1-2-2">
				<g id="Layer_2-2-2">
					<g id="Layer_1-2-2-2">
						<path class="st0" d="M60.4,0C27.1,0,0,27,0,60.4c0,26,16.6,49.1,41.3,57.3c3,0.6,4.1-1.3,4.1-2.9c0-1.4,0-6.2-0.1-11.2
							C28.6,107.2,25,96.4,25,96.4c-2.8-7-6.7-8.8-6.7-8.8c-5.5-3.8,0.4-3.7,0.4-3.7c6.1,0.4,9.3,6.2,9.3,6.2
							c5.4,9.2,14.1,6.6,17.6,5c0.5-3.9,2.1-6.6,3.8-8.1C36,85.6,21.9,80.4,21.9,57.2c-0.1-6,2.1-11.8,6.2-16.2
							c-0.6-1.5-2.7-7.7,0.6-16c0,0,5.1-1.6,16.6,6.2c9.9-2.7,20.3-2.7,30.2,0C87,23.4,92.1,25,92.1,25c3.3,8.3,1.2,14.5,0.6,16
							c4.1,4.4,6.3,10.2,6.2,16.2c0,23.2-14.1,28.3-27.6,29.8c2.2,1.9,4.1,5.6,4.1,11.2c0,8.1-0.1,14.6-0.1,16.6
							c0,1.6,1.1,3.5,4.1,2.9c31.6-10.6,48.7-44.8,38.1-76.4C109.4,16.6,86.4,0,60.4,0z"/>
					</g>
				</g>
			</g>
		</g>
	</g>
</g>
</svg>
