<svg width="220" height="161" viewBox="0 0 220 161" fill="none" xmlns="http://www.w3.org/2000/svg">
<g clip-path="url(#clip0_115_905)">
<path d="M7.17896 96.8071H212.451" stroke="#E6007A" stroke-linecap="round" stroke-linejoin="round"/>
<path d="M15.9192 37.8271H55.6786" stroke="#E6007A" stroke-linecap="round" stroke-linejoin="round" stroke-dasharray="1 3"/>
<path d="M65.1736 37.8271H104.933" stroke="#E6007A" stroke-linecap="round" stroke-linejoin="round" stroke-dasharray="1 3"/>
<path d="M114.697 37.8271H154.456" stroke="#E6007A" stroke-linecap="round" stroke-linejoin="round" stroke-dasharray="1 3"/>
<path d="M164.003 37.8271H208.126" stroke="#E6007A" stroke-linecap="round" stroke-linejoin="round" stroke-dasharray="1 3"/>
<path d="M7.17896 67.1572H212.451" stroke="#E6007A" stroke-linecap="round" stroke-linejoin="round" stroke-dasharray="8 3"/>
<path d="M15.0618 126.47H51.622" stroke="#E6007A" stroke-width="3" stroke-linecap="round" stroke-linejoin="round" stroke-dasharray="1 6"/>
<path d="M65.8774 126.47H102.438" stroke="#E6007A" stroke-width="3" stroke-linecap="round" stroke-linejoin="round" stroke-dasharray="1 6"/>
<path d="M117.192 126.47H153.753" stroke="#E6007A" stroke-width="3" stroke-linecap="round" stroke-linejoin="round" stroke-dasharray="1 6"/>
<path d="M168.507 126.47H205.08" stroke="#E6007A" stroke-width="3" stroke-linecap="round" stroke-linejoin="round" stroke-dasharray="1 6"/>
<path d="M13.8579 37.179C13.8579 40.8676 10.8676 43.8579 7.17896 43.8579C3.49027 43.8579 0.5 40.8676 0.5 37.179C0.5 33.4903 3.49027 30.5 7.17896 30.5C10.8676 30.5 13.8579 33.4903 13.8579 37.179Z" fill="#E6007A" stroke="black"/>
<path d="M61.5897 37.4943C61.5897 39.2041 60.2036 40.5902 58.4938 40.5902C56.784 40.5902 55.3979 39.2041 55.3979 37.4943C55.3979 35.7845 56.784 34.3984 58.4938 34.3984C60.2036 34.3984 61.5897 35.7845 61.5897 37.4943Z" fill="#E6007A" stroke="black"/>
<path d="M112.917 37.4943C112.917 39.2041 111.531 40.5902 109.821 40.5902C108.112 40.5902 106.726 39.2041 106.726 37.4943C106.726 35.7845 108.112 34.3984 109.821 34.3984C111.531 34.3984 112.917 35.7845 112.917 37.4943Z" fill="#E6007A" stroke="black"/>
<path d="M164.232 37.4943C164.232 39.2041 162.846 40.5902 161.136 40.5902C159.426 40.5902 158.04 39.2041 158.04 37.4943C158.04 35.7845 159.426 34.3984 161.136 34.3984C162.846 34.3984 164.232 35.7845 164.232 37.4943Z" fill="#E6007A" stroke="black"/>
<path d="M215.547 37.4943C215.547 39.2041 214.161 40.5902 212.451 40.5902C210.742 40.5902 209.355 39.2041 209.355 37.4943C209.355 35.7845 210.742 34.3984 212.451 34.3984C214.161 34.3984 215.547 35.7845 215.547 37.4943Z" fill="#E6007A" stroke="black"/>
<path d="M10.2748 67.1574C10.2748 68.8672 8.88869 70.2533 7.17889 70.2533C5.46908 70.2533 4.08301 68.8672 4.08301 67.1574C4.08301 65.4476 5.46908 64.0615 7.17889 64.0615C8.88869 64.0615 10.2748 65.4476 10.2748 67.1574Z" fill="#E6007A" stroke="black"/>
<path d="M65.1729 67.1575C65.1729 70.8462 62.1826 73.8364 58.4939 73.8364C54.8052 73.8364 51.8149 70.8462 51.8149 67.1575C51.8149 63.4688 54.8052 60.4785 58.4939 60.4785C62.1826 60.4785 65.1729 63.4688 65.1729 67.1575Z" fill="#E6007A" stroke="black"/>
<path d="M116.5 67.1575C116.5 70.8462 113.51 73.8364 109.821 73.8364C106.133 73.8364 103.142 70.8462 103.142 67.1575C103.142 63.4688 106.133 60.4785 109.821 60.4785C113.51 60.4785 116.5 63.4688 116.5 67.1575Z" fill="#E6007A" stroke="black"/>
<path d="M164.232 67.1574C164.232 68.8672 162.846 70.2533 161.136 70.2533C159.426 70.2533 158.04 68.8672 158.04 67.1574C158.04 65.4476 159.426 64.0615 161.136 64.0615C162.846 64.0615 164.232 65.4476 164.232 67.1574Z" fill="#E6007A" stroke="black"/>
<path d="M219.13 67.1575C219.13 70.8462 216.14 73.8364 212.451 73.8364C208.763 73.8364 205.772 70.8462 205.772 67.1575C205.772 63.4688 208.763 60.4785 212.451 60.4785C216.14 60.4785 219.13 63.4688 219.13 67.1575Z" fill="#E6007A" stroke="black"/>
<path d="M10.2748 96.8068C10.2748 98.5166 8.88869 99.9027 7.17889 99.9027C5.46908 99.9027 4.08301 98.5166 4.08301 96.8068C4.08301 95.097 5.46908 93.7109 7.17889 93.7109C8.88869 93.7109 10.2748 95.097 10.2748 96.8068Z" fill="#E6007A" stroke="black"/>
<path d="M61.5897 96.8068C61.5897 98.5166 60.2036 99.9027 58.4938 99.9027C56.784 99.9027 55.3979 98.5166 55.3979 96.8068C55.3979 95.097 56.784 93.7109 58.4938 93.7109C60.2036 93.7109 61.5897 95.097 61.5897 96.8068Z" fill="#E6007A" stroke="black"/>
<path d="M112.917 96.8068C112.917 98.5166 111.531 99.9027 109.821 99.9027C108.112 99.9027 106.726 98.5166 106.726 96.8068C106.726 95.097 108.112 93.7109 109.821 93.7109C111.531 93.7109 112.917 95.097 112.917 96.8068Z" fill="#E6007A" stroke="black"/>
<path d="M167.815 96.8069C167.815 100.496 164.825 103.486 161.136 103.486C157.447 103.486 154.457 100.496 154.457 96.8069C154.457 93.1182 157.447 90.1279 161.136 90.1279C164.825 90.1279 167.815 93.1182 167.815 96.8069Z" fill="#E6007A" stroke="black"/>
<path d="M215.547 96.8068C215.547 98.5166 214.161 99.9027 212.451 99.9027C210.742 99.9027 209.355 98.5166 209.355 96.8068C209.355 95.097 210.742 93.7109 212.451 93.7109C214.161 93.7109 215.547 95.097 215.547 96.8068Z" fill="#E6007A" stroke="black"/>
<path d="M10.2748 126.47C10.2748 128.18 8.88869 129.566 7.17889 129.566C5.46908 129.566 4.08301 128.18 4.08301 126.47C4.08301 124.76 5.46908 123.374 7.17889 123.374C8.88869 123.374 10.2748 124.76 10.2748 126.47Z" fill="#E6007A" stroke="black"/>
<path d="M61.5897 126.47C61.5897 128.18 60.2036 129.566 58.4938 129.566C56.784 129.566 55.3979 128.18 55.3979 126.47C55.3979 124.76 56.784 123.374 58.4938 123.374C60.2036 123.374 61.5897 124.76 61.5897 126.47Z" fill="#E6007A" stroke="black"/>
<path d="M112.917 126.47C112.917 128.18 111.531 129.566 109.821 129.566C108.112 129.566 106.726 128.18 106.726 126.47C106.726 124.76 108.112 123.374 109.821 123.374C111.531 123.374 112.917 124.76 112.917 126.47Z" fill="#E6007A" stroke="black"/>
<path d="M164.232 126.47C164.232 128.18 162.846 129.566 161.136 129.566C159.426 129.566 158.04 128.18 158.04 126.47C158.04 124.76 159.426 123.374 161.136 123.374C162.846 123.374 164.232 124.76 164.232 126.47Z" fill="#E6007A" stroke="black"/>
<path d="M215.547 126.47C215.547 128.18 214.161 129.566 212.451 129.566C210.742 129.566 209.355 128.18 209.355 126.47C209.355 124.76 210.742 123.374 212.451 123.374C214.161 123.374 215.547 124.76 215.547 126.47Z" fill="#E6007A" stroke="black"/>
</g>
<defs>
<clipPath id="clip0_115_905">
<rect width="219.63" height="160.381" fill="white"/>
</clipPath>
</defs>
</svg>
