<svg width="221" height="161" viewBox="0 0 221 161" fill="none" xmlns="http://www.w3.org/2000/svg">
<g clip-path="url(#clip0_115_943)">
<path d="M16.5491 80.2227H56.3085" stroke="#E6007A" stroke-linecap="round" stroke-linejoin="round" stroke-dasharray="1 3"/>
<path d="M61.7214 80.2227H110.451" stroke="#E6007A" stroke-linecap="round" stroke-linejoin="round" stroke-dasharray="8 3"/>
<path d="M110.131 80.2227H159.975" stroke="#E6007A" stroke-linecap="round" stroke-linejoin="round"/>
<path d="M159.975 80.2227H213.081" stroke="#E6007A" stroke-width="3" stroke-linecap="round" stroke-linejoin="round" stroke-dasharray="1 6"/>
<path d="M14.4878 80.197C14.4878 83.8857 11.4975 86.876 7.80884 86.876C4.12015 86.876 1.12988 83.8857 1.12988 80.197C1.12988 76.5083 4.12015 73.5181 7.80884 73.5181C11.4975 73.5181 14.4878 76.5083 14.4878 80.197Z" fill="#E6007A" stroke="black"/>
<path d="M64.0238 80.1969C64.0238 81.9068 62.6377 83.2928 60.9279 83.2928C59.2181 83.2928 57.832 81.9068 57.832 80.1969C57.832 78.4871 59.2181 77.1011 60.9279 77.1011C62.6377 77.1011 64.0238 78.4871 64.0238 80.1969Z" fill="#E6007A" stroke="black"/>
<path d="M113.547 80.1969C113.547 81.9068 112.161 83.2928 110.451 83.2928C108.742 83.2928 107.355 81.9068 107.355 80.1969C107.355 78.4871 108.742 77.1011 110.451 77.1011C112.161 77.1011 113.547 78.4871 113.547 80.1969Z" fill="#E6007A" stroke="black"/>
<path d="M163.07 80.1969C163.07 81.9068 161.684 83.2928 159.975 83.2928C158.265 83.2928 156.879 81.9068 156.879 80.1969C156.879 78.4871 158.265 77.1011 159.975 77.1011C161.684 77.1011 163.07 78.4871 163.07 80.1969Z" fill="#E6007A" stroke="black"/>
<path d="M219.76 80.197C219.76 83.8857 216.77 86.876 213.081 86.876C209.392 86.876 206.402 83.8857 206.402 80.197C206.402 76.5083 209.392 73.5181 213.081 73.5181C216.77 73.5181 219.76 76.5083 219.76 80.197Z" fill="#E6007A" stroke="black"/>
</g>
<defs>
<clipPath id="clip0_115_943">
<rect width="219.63" height="160.381" fill="white" transform="translate(0.629883)"/>
</clipPath>
</defs>
</svg>
