<svg width="548" height="548" viewBox="0 0 548 548" fill="none" xmlns="http://www.w3.org/2000/svg">
<path d="M541.5 273.5C541.5 421.512 421.512 541.5 273.5 541.5C125.488 541.5 5.5 421.512 5.5 273.5C5.5 125.488 125.488 5.5 273.5 5.5C421.512 5.5 541.5 125.488 541.5 273.5Z" stroke="#E5E5EB"/>
<path d="M268.498 2C268.498 0.895428 269.393 0 270.498 0H277.502C278.607 0 279.502 0.895431 279.502 2V9.00402C279.502 10.1086 278.607 11.004 277.502 11.004H270.498C269.393 11.004 268.498 10.1086 268.498 9.00402V2Z" fill="#E6007A"/>
<path d="M268.498 538.996C268.498 537.892 269.393 536.996 270.498 536.996H277.502C278.607 536.996 279.502 537.892 279.502 538.996V546C279.502 547.105 278.607 548 277.502 548H270.498C269.393 548 268.498 547.105 268.498 546V538.996Z" fill="#E6007A"/>
<path d="M339.084 9.84484C339.37 8.7779 340.467 8.14474 341.534 8.43062L348.299 10.2434C349.366 10.5293 349.999 11.626 349.713 12.6929L347.901 19.4583C347.615 20.5252 346.518 21.1583 345.451 20.8725L338.686 19.0597C337.619 18.7738 336.986 17.6771 337.272 16.6102L339.084 9.84484Z" fill="#E6007A"/>
<path d="M200.099 528.543C200.385 527.476 201.482 526.843 202.549 527.129L209.314 528.942C210.381 529.227 211.014 530.324 210.729 531.391L208.916 538.156C208.63 539.223 207.533 539.857 206.466 539.571L199.701 537.758C198.634 537.472 198.001 536.375 198.287 535.308L200.099 528.543Z" fill="#E6007A"/>
<path d="M405.235 35.69C405.787 34.7334 407.011 34.4057 407.967 34.9579L414.033 38.4599C414.989 39.0122 415.317 40.2354 414.765 41.192L411.263 47.2577C410.711 48.2142 409.487 48.542 408.531 47.9897L402.465 44.4877C401.509 43.9354 401.181 42.7122 401.733 41.7556L405.235 35.69Z" fill="#E6007A"/>
<path d="M136.737 500.742C137.289 499.786 138.513 499.458 139.469 500.01L145.535 503.512C146.491 504.065 146.819 505.288 146.267 506.244L142.765 512.31C142.213 513.267 140.989 513.594 140.033 513.042L133.967 509.54C133.011 508.988 132.683 507.765 133.235 506.808L136.737 500.742Z" fill="#E6007A"/>
<path d="M462.443 77.7761C463.224 76.995 464.49 76.995 465.271 77.7761L470.224 82.7287C471.005 83.5097 471.005 84.776 470.224 85.5571L465.271 90.5097C464.49 91.2907 463.224 91.2907 462.443 90.5097L457.49 85.5571C456.709 84.776 456.709 83.5097 457.49 82.7286L462.443 77.7761Z" fill="#E6007A"/>
<path d="M82.7292 457.49C83.5102 456.708 84.7766 456.708 85.5576 457.49L90.5102 462.442C91.2912 463.223 91.2912 464.489 90.5102 465.271L85.5576 470.223C84.7766 471.004 83.5102 471.004 82.7292 470.223L77.7766 465.271C76.9955 464.489 76.9955 463.223 77.7766 462.442L82.7292 457.49Z" fill="#E6007A"/>
<path d="M506.808 133.235C507.765 132.682 508.988 133.01 509.54 133.967L513.042 140.032C513.594 140.989 513.267 142.212 512.31 142.764L506.244 146.267C505.288 146.819 504.065 146.491 503.512 145.534L500.01 139.469C499.458 138.512 499.786 137.289 500.742 136.737L506.808 133.235Z" fill="#E6007A"/>
<path d="M41.756 401.733C42.7125 401.18 43.9357 401.508 44.488 402.465L47.99 408.53C48.5423 409.487 48.2145 410.71 47.258 411.262L41.1923 414.764C40.2357 415.317 39.0125 414.989 38.4603 414.032L34.9582 407.967C34.406 407.01 34.7337 405.787 35.6903 405.235L41.756 401.733Z" fill="#E6007A"/>
<path d="M535.308 198.286C536.375 198 537.471 198.634 537.757 199.701L539.57 206.466C539.856 207.533 539.223 208.629 538.156 208.915L531.39 210.728C530.324 211.014 529.227 210.381 528.941 209.314L527.128 202.549C526.842 201.482 527.475 200.385 528.542 200.099L535.308 198.286Z" fill="#E6007A"/>
<path d="M16.6096 337.271C17.6765 336.985 18.7732 337.619 19.0591 338.686L20.8718 345.451C21.1577 346.518 20.5246 347.615 19.4576 347.9L12.6923 349.713C11.6253 349.999 10.5287 349.366 10.2428 348.299L8.43 341.534C8.14412 340.467 8.77728 339.37 9.84421 339.084L16.6096 337.271Z" fill="#E6007A"/>
<path d="M546 268.498C547.105 268.498 548 269.393 548 270.498V277.502C548 278.607 547.105 279.502 546 279.502H538.996C537.891 279.502 536.996 278.607 536.996 277.502V270.498C536.996 269.393 537.891 268.498 538.996 268.498H546Z" fill="#E6007A"/>
<path d="M9.00397 268.498C10.1085 268.498 11.004 269.393 11.004 270.498V277.502C11.004 278.607 10.1085 279.502 9.00397 279.502H1.99995C0.895379 279.502 -4.96393e-05 278.607 -4.95911e-05 277.502L-4.92849e-05 270.498C-4.92366e-05 269.393 0.895381 268.498 1.99995 268.498H9.00397Z" fill="#E6007A"/>
<path d="M538.156 339.084C539.223 339.37 539.856 340.467 539.57 341.534L537.757 348.299C537.471 349.366 536.375 349.999 535.308 349.713L528.542 347.9C527.475 347.615 526.842 346.518 527.128 345.451L528.941 338.686C529.227 337.619 530.324 336.986 531.39 337.271L538.156 339.084Z" fill="#E6007A"/>
<path d="M19.4576 200.1C20.5245 200.386 21.1577 201.482 20.8718 202.549L19.059 209.314C18.7731 210.381 17.6765 211.015 16.6095 210.729L9.84417 208.916C8.77724 208.63 8.14408 207.533 8.42996 206.466L10.2427 199.701C10.5286 198.634 11.6253 198.001 12.6922 198.287L19.4576 200.1Z" fill="#E6007A"/>
<path d="M512.31 405.235C513.266 405.787 513.594 407.01 513.042 407.967L509.54 414.032C508.988 414.989 507.764 415.317 506.808 414.764L500.742 411.262C499.786 410.71 499.458 409.487 500.01 408.53L503.512 402.465C504.064 401.508 505.288 401.18 506.244 401.733L512.31 405.235Z" fill="#E6007A"/>
<path d="M47.2577 136.737C48.2143 137.289 48.542 138.513 47.9898 139.469L44.4877 145.535C43.9355 146.491 42.7123 146.819 41.7557 146.267L35.69 142.765C34.7335 142.213 34.4057 140.989 34.958 140.033L38.46 133.967C39.0123 133.011 40.2355 132.683 41.192 133.235L47.2577 136.737Z" fill="#E6007A"/>
<path d="M470.224 462.442C471.005 463.223 471.005 464.49 470.224 465.271L465.271 470.223C464.49 471.004 463.224 471.004 462.443 470.223L457.49 465.271C456.709 464.49 456.709 463.223 457.49 462.442L462.443 457.49C463.224 456.709 464.49 456.709 465.271 457.49L470.224 462.442Z" fill="#E6007A"/>
<path d="M90.5101 82.7293C91.2911 83.5103 91.2911 84.7767 90.5101 85.5577L85.5575 90.5103C84.7764 91.2914 83.5101 91.2914 82.729 90.5103L77.7764 85.5577C76.9954 84.7767 76.9954 83.5103 77.7765 82.7293L82.729 77.7767C83.5101 76.9957 84.7764 76.9957 85.5575 77.7767L90.5101 82.7293Z" fill="#E6007A"/>
<path d="M414.765 506.809C415.317 507.765 414.989 508.988 414.033 509.541L407.967 513.043C407.01 513.595 405.787 513.267 405.235 512.311L401.733 506.245C401.181 505.288 401.508 504.065 402.465 503.513L408.531 500.011C409.487 499.459 410.71 499.786 411.263 500.743L414.765 506.809Z" fill="#E6007A"/>
<path d="M146.267 41.7559C146.819 42.7125 146.491 43.9357 145.535 44.488L139.469 47.99C138.512 48.5423 137.289 48.2145 136.737 47.258L133.235 41.1923C132.683 40.2357 133.01 39.0125 133.967 38.4602L140.033 34.9582C140.989 34.406 142.212 34.7337 142.765 35.6903L146.267 41.7559Z" fill="#E6007A"/>
<path d="M349.713 535.307C349.999 536.374 349.366 537.471 348.299 537.757L341.534 539.57C340.467 539.855 339.37 539.222 339.084 538.155L337.271 531.39C336.986 530.323 337.619 529.226 338.686 528.94L345.451 527.128C346.518 526.842 347.615 527.475 347.9 528.542L349.713 535.307Z" fill="#E6007A"/>
<path d="M210.728 16.6096C211.014 17.6765 210.381 18.7732 209.314 19.0591L202.549 20.8719C201.482 21.1577 200.385 20.5246 200.099 19.4576L198.287 12.6923C198.001 11.6253 198.634 10.5287 199.701 10.2428L206.466 8.43002C207.533 8.14413 208.63 8.7773 208.916 9.84423L210.728 16.6096Z" fill="#E6007A"/>
</svg>
